<?xml version="1.0" encoding="UTF-8" standalone="no"?>
<!-- Created with Inkscape (http://www.inkscape.org/) -->

<svg
   version="1.1"
   id="svg1726"
   width="377.33334"
   height="264"
   viewBox="0 0 377.33334 264"
   sodipodi:docname="Tubb4Nat-Mvsr.svg"
   inkscape:version="1.2.2 (b0a8486541, 2022-12-01)"
   xmlns:inkscape="http://www.inkscape.org/namespaces/inkscape"
   xmlns:sodipodi="http://sodipodi.sourceforge.net/DTD/sodipodi-0.dtd"
   xmlns="http://www.w3.org/2000/svg"
   xmlns:svg="http://www.w3.org/2000/svg">
  <defs
     id="defs1730" />
  <sodipodi:namedview
     id="namedview1728"
     pagecolor="#ffffff"
     bordercolor="#cccccc"
     borderopacity="1"
     inkscape:showpageshadow="0"
     inkscape:pageopacity="1"
     inkscape:pagecheckerboard="0"
     inkscape:deskcolor="#d1d1d1"
     showgrid="false"
     showguides="true"
     inkscape:zoom="5.8409092"
     inkscape:cx="121.55642"
     inkscape:cy="88.684823"
     inkscape:window-width="1920"
     inkscape:window-height="940"
     inkscape:window-x="0"
     inkscape:window-y="32"
     inkscape:window-maximized="1"
     inkscape:current-layer="g1734">
    <inkscape:page
       x="0"
       y="0"
       id="page1732"
       width="377.33334"
       height="264"
       inkscape:export-filename="TubNat10ns.pdf"
       inkscape:export-xdpi="96"
       inkscape:export-ydpi="96" />
    <sodipodi:guide
       position="66.770427,215.71984"
       orientation="1,0"
       id="guide5123"
       inkscape:locked="false" />
  </sodipodi:namedview>
  <g
     id="g1734"
     inkscape:groupmode="layer"
     inkscape:label="Page 1"
     transform="matrix(1.3333333,0,0,-1.3333333,0,264)">
    <g
       id="g1736"
       transform="scale(0.1)">
      <path
         d="m 301,294 h 63"
         style="fill:none;stroke:#000000;stroke-width:5;stroke-linecap:butt;stroke-linejoin:miter;stroke-miterlimit:3.8;stroke-dasharray:none;stroke-opacity:1"
         id="path1738" />
      <g
         id="g1740"
         transform="scale(10)">
        <text
           xml:space="preserve"
           transform="matrix(1,0,0,-1,15.0031,26.3648)"
           style="font-variant:normal;font-weight:normal;font-size:7px;font-family:Helvetica;-inkscape-font-specification:Helvetica;writing-mode:lr-tb;fill:#000000;fill-opacity:1;fill-rule:nonzero;stroke:none"
           id="text1744"><tspan
             x="0 3.892"
             y="0"
             sodipodi:role="line"
             id="tspan1742">10</tspan></text>
        <text
           xml:space="preserve"
           transform="matrix(1,0,0,-1,22.78708,29.8648)"
           style="font-variant:normal;font-weight:normal;font-size:5.6px;font-family:Helvetica;-inkscape-font-specification:Helvetica;writing-mode:lr-tb;fill:#000000;fill-opacity:1;fill-rule:nonzero;stroke:none"
           id="text1748"><tspan
             x="0"
             y="0"
             id="tspan1746">0</tspan></text>
      </g>
      <path
         d="m 301,406.5 h 31.5 M 301,472 h 31.5 M 301,518.5 h 31.5 m -31.5,36 h 31.5 M 301,584 h 31.5 M 301,609 h 31.5 M 301,631 h 31.5 M 301,650 h 31.5 M 301,667 h 63"
         style="fill:none;stroke:#000000;stroke-width:5;stroke-linecap:butt;stroke-linejoin:miter;stroke-miterlimit:3.8;stroke-dasharray:none;stroke-opacity:1"
         id="path1750" />
      <g
         id="g1752"
         transform="scale(10)">
        <text
           xml:space="preserve"
           transform="matrix(1,0,0,-1,15.0031,63.6648)"
           style="font-variant:normal;font-weight:normal;font-size:7px;font-family:Helvetica;-inkscape-font-specification:Helvetica;writing-mode:lr-tb;fill:#000000;fill-opacity:1;fill-rule:nonzero;stroke:none"
           id="text1756"><tspan
             x="0 3.892"
             y="0"
             sodipodi:role="line"
             id="tspan1754">10</tspan></text>
        <text
           xml:space="preserve"
           transform="matrix(1,0,0,-1,22.78708,67.1648)"
           style="font-variant:normal;font-weight:normal;font-size:5.6px;font-family:Helvetica;-inkscape-font-specification:Helvetica;writing-mode:lr-tb;fill:#000000;fill-opacity:1;fill-rule:nonzero;stroke:none"
           id="text1760"><tspan
             x="0"
             y="0"
             id="tspan1758">1</tspan></text>
      </g>
      <path
         d="m 301,779 h 31.5 M 301,845 h 31.5 M 301,891.5 h 31.5 m -31.5,36 h 31.5 M 301,957 h 31.5 M 301,982 h 31.5 m -31.5,22 h 31.5 m -31.5,19 h 31.5 m -31.5,17 h 63"
         style="fill:none;stroke:#000000;stroke-width:5;stroke-linecap:butt;stroke-linejoin:miter;stroke-miterlimit:3.8;stroke-dasharray:none;stroke-opacity:1"
         id="path1762" />
      <g
         id="g1764"
         transform="scale(10)">
        <text
           xml:space="preserve"
           transform="matrix(1,0,0,-1,15.0031,100.965)"
           style="font-variant:normal;font-weight:normal;font-size:7px;font-family:Helvetica;-inkscape-font-specification:Helvetica;writing-mode:lr-tb;fill:#000000;fill-opacity:1;fill-rule:nonzero;stroke:none"
           id="text1768"><tspan
             x="0 3.892"
             y="0"
             sodipodi:role="line"
             id="tspan1766">10</tspan></text>
        <text
           xml:space="preserve"
           transform="matrix(1,0,0,-1,22.78708,104.465)"
           style="font-variant:normal;font-weight:normal;font-size:5.6px;font-family:Helvetica;-inkscape-font-specification:Helvetica;writing-mode:lr-tb;fill:#000000;fill-opacity:1;fill-rule:nonzero;stroke:none"
           id="text1772"><tspan
             x="0"
             y="0"
             id="tspan1770">2</tspan></text>
      </g>
      <path
         d="m 301,1152 h 31.5 m -31.5,66 h 31.5 m -31.5,46.5 h 31.5 m -31.5,36 h 31.5 M 301,1330 h 31.5 m -31.5,25 h 31.5 m -31.5,21.5 h 31.5 M 301,1396 h 31.5 m -31.5,17 h 63"
         style="fill:none;stroke:#000000;stroke-width:5;stroke-linecap:butt;stroke-linejoin:miter;stroke-miterlimit:3.8;stroke-dasharray:none;stroke-opacity:1"
         id="path1774" />
      <g
         id="g1776"
         transform="scale(10)">
        <text
           xml:space="preserve"
           transform="matrix(1,0,0,-1,15.0031,138.265)"
           style="font-variant:normal;font-weight:normal;font-size:7px;font-family:Helvetica;-inkscape-font-specification:Helvetica;writing-mode:lr-tb;fill:#000000;fill-opacity:1;fill-rule:nonzero;stroke:none"
           id="text1780"><tspan
             x="0 3.892"
             y="0"
             sodipodi:role="line"
             id="tspan1778">10</tspan></text>
        <text
           xml:space="preserve"
           transform="matrix(1,0,0,-1,22.78708,141.765)"
           style="font-variant:normal;font-weight:normal;font-size:5.6px;font-family:Helvetica;-inkscape-font-specification:Helvetica;writing-mode:lr-tb;fill:#000000;fill-opacity:1;fill-rule:nonzero;stroke:none"
           id="text1784"><tspan
             x="0"
             y="0"
             id="tspan1782">3</tspan></text>
      </g>
      <path
         d="m 301,1525 h 31.5 m -31.5,66 h 31.5 m -31.5,46.5 h 31.5 m -31.5,36 h 31.5 M 301,1703 h 31.5 m -31.5,25 h 31.5 m -31.5,21.5 h 31.5 m -31.5,19 h 31.5 M 301,1786 h 63"
         style="fill:none;stroke:#000000;stroke-width:5;stroke-linecap:butt;stroke-linejoin:miter;stroke-miterlimit:3.8;stroke-dasharray:none;stroke-opacity:1"
         id="path1786" />
      <g
         id="g1788"
         transform="scale(10)">
        <text
           xml:space="preserve"
           transform="matrix(1,0,0,-1,15.0031,175.565)"
           style="font-variant:normal;font-weight:normal;font-size:7px;font-family:Helvetica;-inkscape-font-specification:Helvetica;writing-mode:lr-tb;fill:#000000;fill-opacity:1;fill-rule:nonzero;stroke:none"
           id="text1792"><tspan
             x="0 3.892"
             y="0"
             sodipodi:role="line"
             id="tspan1790">10</tspan></text>
        <text
           xml:space="preserve"
           transform="matrix(1,0,0,-1,22.78708,179.065)"
           style="font-variant:normal;font-weight:normal;font-size:5.6px;font-family:Helvetica;-inkscape-font-specification:Helvetica;writing-mode:lr-tb;fill:#000000;fill-opacity:1;fill-rule:nonzero;stroke:none"
           id="text1796"><tspan
             x="0"
             y="0"
             id="tspan1794">4</tspan></text>
      </g>
      <path
         d="m 301,1898 h 31.5 M 301,294 v 63"
         style="fill:none;stroke:#000000;stroke-width:5;stroke-linecap:butt;stroke-linejoin:miter;stroke-miterlimit:3.8;stroke-dasharray:none;stroke-opacity:1"
         id="path1798" />
      <g
         id="g1800"
         transform="scale(10)">
        <text
           xml:space="preserve"
           transform="matrix(1,0,0,-1,24.6516,19.3648)"
           style="font-variant:normal;font-weight:normal;font-size:7px;font-family:Helvetica;-inkscape-font-specification:Helvetica;writing-mode:lr-tb;fill:#000000;fill-opacity:1;fill-rule:nonzero;stroke:none"
           id="text1804"><tspan
             x="0 3.892"
             y="0"
             sodipodi:role="line"
             id="tspan1802">10</tspan></text>
        <text
           xml:space="preserve"
           transform="matrix(1,0,0,-1,32.43558,22.8648)"
           style="font-variant:normal;font-weight:normal;font-size:5.6px;font-family:Helvetica;-inkscape-font-specification:Helvetica;writing-mode:lr-tb;fill:#000000;fill-opacity:1;fill-rule:nonzero;stroke:none"
           id="text1808"><tspan
             x="0"
             y="0"
             id="tspan1806">0</tspan></text>
      </g>
      <path
         d="m 826,294 v 31.5 M 1133,294 v 31.5 M 1350.5,294 v 31.5 m 169,-31.5 v 31.5 M 1658,294 v 31.5 M 1774.5,294 v 31.5 m 101,-31.5 v 31.5 M 1965,294 v 31.5 m 79.5,-31.5 v 63"
         style="fill:none;stroke:#000000;stroke-width:5;stroke-linecap:butt;stroke-linejoin:miter;stroke-miterlimit:3.8;stroke-dasharray:none;stroke-opacity:1"
         id="path1810" />
      <g
         id="g1812"
         transform="scale(10)">
        <text
           xml:space="preserve"
           transform="matrix(1,0,0,-1,199.002,19.3648)"
           style="font-variant:normal;font-weight:normal;font-size:7px;font-family:Helvetica;-inkscape-font-specification:Helvetica;writing-mode:lr-tb;fill:#000000;fill-opacity:1;fill-rule:nonzero;stroke:none"
           id="text1816"><tspan
             x="0 3.892"
             y="0"
             sodipodi:role="line"
             id="tspan1814">10</tspan></text>
        <text
           xml:space="preserve"
           transform="matrix(1,0,0,-1,206.78598,22.8648)"
           style="font-variant:normal;font-weight:normal;font-size:5.6px;font-family:Helvetica;-inkscape-font-specification:Helvetica;writing-mode:lr-tb;fill:#000000;fill-opacity:1;fill-rule:nonzero;stroke:none"
           id="text1820"><tspan
             x="0"
             y="0"
             id="tspan1818">1</tspan></text>
      </g>
      <path
         d="m 2569.5,294 v 31.5"
         style="fill:none;stroke:#000000;stroke-width:5;stroke-linecap:butt;stroke-linejoin:miter;stroke-miterlimit:3.8;stroke-dasharray:none;stroke-opacity:1"
         id="path1822" />
      <path
         d="M 301,1913.5 V 294 h 2406.5 v 1619.5 z"
         style="fill:none;stroke:#000000;stroke-width:10;stroke-linecap:butt;stroke-linejoin:miter;stroke-miterlimit:3.8;stroke-dasharray:none;stroke-opacity:1"
         id="path1824" />
      <g
         id="g1826"
         transform="scale(10)">
        <text
           xml:space="preserve"
           transform="matrix(1,0,0,-1,42.5,175.5)"
           style="font-variant:normal;font-weight:normal;font-size:9px;font-family:Symbol;-inkscape-font-specification:Symbol;writing-mode:lr-tb;fill:#000000;fill-opacity:1;fill-rule:nonzero;stroke:none"
           id="text1830"><tspan
             x="0"
             y="0"
             id="tspan1828">β</tspan></text>
        <text
           xml:space="preserve"
           transform="matrix(1,0,0,-1,49.94302,175.5)"
           style="font-variant:normal;font-weight:normal;font-size:9px;font-family:Helvetica;-inkscape-font-specification:Helvetica;writing-mode:lr-tb;fill:#000000;fill-opacity:1;fill-rule:nonzero;stroke:none"
           id="text1834"><tspan
             x="0 5.256 7.7579999 12.762 17.766001 20.268 25.271999 30.275999 32.778 34.776001 39.276001 44.279999 46.782001 52.037998 54.540001 61.037998 63.035999 68.040001 73.043999 80.541 82.539001 87.039001 92.042999 94.544998 99.549004 104.553 107.055 112.059 117.063 122.067"
             y="0"
             sodipodi:role="line"
             id="tspan1832">− 4a nativa − Dinámica de 10ns</tspan></text>
        <text
           xml:space="preserve"
           transform="matrix(1,0,0,-1,197.91902,85.0648)"
           style="font-variant:normal;font-weight:normal;font-size:7px;font-family:Helvetica;-inkscape-font-specification:Helvetica;writing-mode:lr-tb;fill:#000000;fill-opacity:1;fill-rule:nonzero;stroke:none"
           id="text1838"><tspan
             x="0"
             y="0"
             id="tspan1836">b</tspan></text>
        <text
           xml:space="preserve"
           transform="matrix(1,0,0,-1,201.81121,82.9648)"
           style="font-variant:normal;font-weight:normal;font-size:5.6px;font-family:Helvetica;-inkscape-font-specification:Helvetica;writing-mode:lr-tb;fill:#000000;fill-opacity:1;fill-rule:nonzero;stroke:none"
           id="text1842"><tspan
             x="0"
             y="0"
             id="tspan1840">1</tspan></text>
        <text
           xml:space="preserve"
           transform="matrix(1,0,0,-1,206.87088,85.0648)"
           style="font-variant:normal;font-weight:normal;font-size:7px;font-family:Helvetica;-inkscape-font-specification:Helvetica;writing-mode:lr-tb;fill:#000000;fill-opacity:1;fill-rule:nonzero;stroke:none"
           id="text1846"><tspan
             x="0 4.0879998 6.0339999 9.9259996 11.872 15.764 19.656 23.548 27.440001"
             y="0"
             sodipodi:role="line"
             id="tspan1844">= 1.55540</tspan></text>
      </g>
      <path
         d="m 2424,867 h 199.5 M 301,684 l 24.5,8 24,8.5 24.5,8 24,8 24.5,8 24.5,8 24,8 24.5,8.5 24.5,8 24,8 24.5,8 24,8 24.5,8.5 24.5,8 24,8 24.5,8 24,8 24.5,8 24.5,8.5 24,8 24.5,8 24.5,8 24,8 24.5,8 24,8.5 24.5,8 24.5,8 24,8 24.5,8 24,8 24.5,8.5 24.5,8 24,8 24.5,8 24.5,8 24,8.5 24.5,8 24,8 24.5,8 24.5,8 24,8 24.5,8.5 24,8 24.5,8 24.5,8 24,8 24.5,8 24.5,8.5 24,8 24.5,8 24,8 24.5,8 24.5,8 24,8.5 24.5,8 24.5,8 24,8 24.5,8 24,8.5 24.5,8 24.5,8 24,8 24.5,8 24,8 24.5,8.5 24.5,8 24,8 24.5,8 24.5,8 24,8 24.5,8.5 24,8 24.5,8 24.5,8 24,8 24.5,8.5 24,8 24.5,8 24.5,8 24,8 24.5,8 24.5,8.5 24,8 24.5,8 24,8 24.5,8 24.5,8 24,8.5 24.5,8 24,8 24.5,8 24.5,8 24,8 24.5,8.5 24.5,8 24,8 24.5,8 24,8 24.5,8.5"
         style="fill:none;stroke:#4069e1;stroke-width:8.5;stroke-linecap:butt;stroke-linejoin:miter;stroke-miterlimit:3.8;stroke-dasharray:none;stroke-opacity:1"
         id="path1848" />
      <g
         id="g1850"
         transform="scale(10)">
        <text
           xml:space="preserve"
           transform="matrix(1,0,0,-1,197.919,78.0648)"
           style="font-variant:normal;font-weight:normal;font-size:7px;font-family:Helvetica;-inkscape-font-specification:Helvetica;writing-mode:lr-tb;fill:#000000;fill-opacity:1;fill-rule:nonzero;stroke:none"
           id="text1854"><tspan
             x="0"
             y="0"
             id="tspan1852">b</tspan></text>
        <text
           xml:space="preserve"
           transform="matrix(1,0,0,-1,201.81119,75.9648)"
           style="font-variant:normal;font-weight:normal;font-size:5.6px;font-family:Helvetica;-inkscape-font-specification:Helvetica;writing-mode:lr-tb;fill:#000000;fill-opacity:1;fill-rule:nonzero;stroke:none"
           id="text1858"><tspan
             x="0"
             y="0"
             id="tspan1856">2</tspan></text>
        <text
           xml:space="preserve"
           transform="matrix(1,0,0,-1,206.87086,78.0648)"
           style="font-variant:normal;font-weight:normal;font-size:7px;font-family:Helvetica;-inkscape-font-specification:Helvetica;writing-mode:lr-tb;fill:#000000;fill-opacity:1;fill-rule:nonzero;stroke:none"
           id="text1862"><tspan
             x="0 4.0879998 6.0339999 9.9259996 11.872 15.764 19.656 23.548 27.440001"
             y="0"
             sodipodi:role="line"
             id="tspan1860">= 2.62404</tspan></text>
      </g>
      <path
         d="m 2424,797 h 199.5 M 301,551.5 l 24.5,13.5 24,13.5 24.5,13.5 24,14 24.5,13.5 24.5,13.5 24,14 24.5,13.5 24.5,13.5 24,13.5 24.5,14 24,13.5 24.5,13.5 24.5,14 24,13.5 24.5,13.5 24,13.5 24.5,14 24.5,13.5 24,13.5 24.5,14 24.5,13.5 24,13.5 24.5,13.5 24,14 24.5,13.5 24.5,13.5 24,14 24.5,13.5 24,13.5 24.5,13.5 24.5,14 24,13.5 24.5,13.5 24.5,14 24,13.5 24.5,13.5 24,13.5 24.5,14 24.5,13.5 24,13.5 24.5,14 24,13.5 24.5,13.5 24.5,13.5 24,14 24.5,13.5 24.5,13.5 24,14 24.5,13.5 24,13.5 24.5,13.5 24.5,14 24,13.5 24.5,13.5 24.5,14 24,13.5 24.5,13.5 24,13.5 24.5,14 24.5,13.5 24,13.5 24.5,14 24,13.5 24.5,13.5 24.5,13.5 24,14 24.5,13.5 24.5,13.5 24,14 24.5,13.5 24,13.5 24.5,13.5 24.5,14 24,13.5 24.5,13.5 24,14 24.5,13.5 24.5,13.5 24,13.5 24.5,14 24.5,13.5 24,13.5 24.5,14 24,13.5 24.5,13.5 24.5,14 24,13.5 24.5,13.5 24,13.5 24.5,14 24.5,13.5 24,13.5 24.5,14 24.5,13.5 24,13.5 24.5,13.5 24,14 24.5,13.5"
         style="fill:none;stroke:#000000;stroke-width:8.5;stroke-linecap:butt;stroke-linejoin:miter;stroke-miterlimit:3.8;stroke-dasharray:none;stroke-opacity:1"
         id="path1864" />
      <g
         id="g1866"
         transform="scale(10)">
        <text
           xml:space="preserve"
           transform="matrix(1,0,0,-1,197.919,71.0648)"
           style="font-variant:normal;font-weight:normal;font-size:7px;font-family:Helvetica;-inkscape-font-specification:Helvetica;writing-mode:lr-tb;fill:#000000;fill-opacity:1;fill-rule:nonzero;stroke:none"
           id="text1870"><tspan
             x="0"
             y="0"
             id="tspan1868">b</tspan></text>
        <text
           xml:space="preserve"
           transform="matrix(1,0,0,-1,201.81119,68.9648)"
           style="font-variant:normal;font-weight:normal;font-size:5.6px;font-family:Helvetica;-inkscape-font-specification:Helvetica;writing-mode:lr-tb;fill:#000000;fill-opacity:1;fill-rule:nonzero;stroke:none"
           id="text1874"><tspan
             x="0"
             y="0"
             id="tspan1872">3</tspan></text>
        <text
           xml:space="preserve"
           transform="matrix(1,0,0,-1,206.87086,71.0648)"
           style="font-variant:normal;font-weight:normal;font-size:7px;font-family:Helvetica;-inkscape-font-specification:Helvetica;writing-mode:lr-tb;fill:#000000;fill-opacity:1;fill-rule:nonzero;stroke:none"
           id="text1878"><tspan
             x="0 4.0879998 6.0339999 9.9259996 11.872 15.764 19.656 23.548 27.440001"
             y="0"
             sodipodi:role="line"
             id="tspan1876">= 2.62761</tspan></text>
      </g>
      <path
         d="m 2424,727 h 199.5 M 301,561.5 l 24.5,13.5 24,13.5 24.5,14 24,13.5 24.5,13.5 24.5,14 24,13.5 24.5,13.5 24.5,14 24,13.5 24.5,13.5 24,14 24.5,13.5 24.5,13.5 24,14 24.5,13.5 24,13.5 24.5,14 24.5,13.5 24,13.5 24.5,14 24.5,13.5 24,13.5 24.5,14 24,13.5 24.5,13.5 24.5,13.5 24,14 24.5,13.5 24,13.5 24.5,14 24.5,13.5 24,13.5 24.5,14 24.5,13.5 24,13.5 24.5,14 24,13.5 24.5,13.5 24.5,14 24,13.5 24.5,13.5 24,14 24.5,13.5 24.5,13.5 24,14 24.5,13.5 24.5,13.5 24,14 24.5,13.5 24,13.5 24.5,14 24.5,13.5 24,13.5 24.5,14 24.5,13.5 24,13.5 24.5,14 24,13.5 24.5,13.5 24.5,14 24,13.5 24.5,13.5 24,13.5 24.5,14 24.5,13.5 24,13.5 24.5,14 24.5,13.5 24,13.5 24.5,14 24,13.5 24.5,13.5 24.5,14 24,13.5 24.5,13.5 24,14 24.5,13.5 24.5,13.5 24,14 24.5,13.5 24.5,13.5 24,14 24.5,13.5 24,13.5 24.5,14 24.5,13.5 24,13.5 24.5,14 24,13.5 24.5,13.5 24.5,14 24,13.5 24.5,13.5 24.5,14 24,13.5 24.5,13.5 24,14 23.5,13"
         style="fill:none;stroke:#ff804f;stroke-width:8.5;stroke-linecap:butt;stroke-linejoin:miter;stroke-miterlimit:3.8;stroke-dasharray:none;stroke-opacity:1"
         id="path1880" />
      <g
         id="g1882"
         transform="scale(10)">
        <text
           xml:space="preserve"
           transform="matrix(1,0,0,-1,215.052,63.3648)"
           style="font-variant:normal;font-weight:normal;font-size:7px;font-family:Helvetica;-inkscape-font-specification:Helvetica;writing-mode:lr-tb;fill:#000000;fill-opacity:1;fill-rule:nonzero;stroke:none"
           id="text1886"><tspan
             x="0 3.892 7.98 11.872 13.818 16.149 20.818001"
             y="0"
             sodipodi:role="line"
             id="tspan1884">1−2 (Å)</tspan></text>
      </g>
      <path
         d="m 505.75,752 c 0,8.695 -7.055,15.75 -15.75,15.75 -8.695,0 -15.75,-7.055 -15.75,-15.75 0,-8.695 7.055,-15.75 15.75,-15.75 8.695,0 15.75,7.055 15.75,15.75"
         style="fill:#4069e1;fill-opacity:1;fill-rule:nonzero;stroke:none"
         id="path1888" />
      <path
         d="m 561.75,771.5 c 0,8.695 -7.055,15.75 -15.75,15.75 -8.695,0 -15.75,-7.055 -15.75,-15.75 0,-8.695 7.055,-15.75 15.75,-15.75 8.695,0 15.75,7.055 15.75,15.75"
         style="fill:#4069e1;fill-opacity:1;fill-rule:nonzero;stroke:none"
         id="path1890" />
      <path
         d="m 613.75,792 c 0,8.695 -7.055,15.75 -15.75,15.75 -8.695,0 -15.75,-7.055 -15.75,-15.75 0,-8.695 7.055,-15.75 15.75,-15.75 8.695,0 15.75,7.055 15.75,15.75"
         style="fill:#4069e1;fill-opacity:1;fill-rule:nonzero;stroke:none"
         id="path1892" />
      <path
         d="m 662.25,824.5 c 0,8.695 -7.055,15.75 -15.75,15.75 -8.695,0 -15.75,-7.055 -15.75,-15.75 0,-8.695 7.055,-15.75 15.75,-15.75 8.695,0 15.75,7.055 15.75,15.75"
         style="fill:#4069e1;fill-opacity:1;fill-rule:nonzero;stroke:none"
         id="path1894" />
      <path
         d="m 707.75,830.5 c 0,8.695 -7.055,15.75 -15.75,15.75 -8.695,0 -15.75,-7.055 -15.75,-15.75 0,-8.695 7.055,-15.75 15.75,-15.75 8.695,0 15.75,7.055 15.75,15.75"
         style="fill:#4069e1;fill-opacity:1;fill-rule:nonzero;stroke:none"
         id="path1896" />
      <path
         d="m 750.75,832.5 c 0,8.695 -7.055,15.75 -15.75,15.75 -8.695,0 -15.75,-7.055 -15.75,-15.75 0,-8.695 7.055,-15.75 15.75,-15.75 8.695,0 15.75,7.055 15.75,15.75"
         style="fill:#4069e1;fill-opacity:1;fill-rule:nonzero;stroke:none"
         id="path1898" />
      <path
         d="m 791.25,835 c 0,8.695 -7.055,15.75 -15.75,15.75 -8.695,0 -15.75,-7.055 -15.75,-15.75 0,-8.695 7.055,-15.75 15.75,-15.75 8.695,0 15.75,7.055 15.75,15.75"
         style="fill:#4069e1;fill-opacity:1;fill-rule:nonzero;stroke:none"
         id="path1900" />
      <path
         d="m 830.25,838.5 c 0,8.695 -7.055,15.75 -15.75,15.75 -8.695,0 -15.75,-7.055 -15.75,-15.75 0,-8.695 7.055,-15.75 15.75,-15.75 8.695,0 15.75,7.055 15.75,15.75"
         style="fill:#4069e1;fill-opacity:1;fill-rule:nonzero;stroke:none"
         id="path1902" />
      <path
         d="m 866.75,852.5 c 0,8.695 -7.055,15.75 -15.75,15.75 -8.695,0 -15.75,-7.055 -15.75,-15.75 0,-8.695 7.055,-15.75 15.75,-15.75 8.695,0 15.75,7.055 15.75,15.75"
         style="fill:#4069e1;fill-opacity:1;fill-rule:nonzero;stroke:none"
         id="path1904" />
      <path
         d="m 901.75,876 c 0,8.695 -7.055,15.75 -15.75,15.75 -8.695,0 -15.75,-7.055 -15.75,-15.75 0,-8.695 7.055,-15.75 15.75,-15.75 8.695,0 15.75,7.055 15.75,15.75"
         style="fill:#4069e1;fill-opacity:1;fill-rule:nonzero;stroke:none"
         id="path1906" />
      <path
         d="m 935.25,901 c 0,8.695 -7.055,15.75 -15.75,15.75 -8.695,0 -15.75,-7.055 -15.75,-15.75 0,-8.695 7.055,-15.75 15.75,-15.75 8.695,0 15.75,7.055 15.75,15.75"
         style="fill:#4069e1;fill-opacity:1;fill-rule:nonzero;stroke:none"
         id="path1908" />
      <path
         d="m 2539.25,657 c 0,8.695 -7.05,15.75 -15.75,15.75 -8.7,0 -15.75,-7.055 -15.75,-15.75 0,-8.695 7.05,-15.75 15.75,-15.75 8.7,0 15.75,7.055 15.75,15.75"
         style="fill:#4069e1;fill-opacity:1;fill-rule:nonzero;stroke:none"
         id="path1910" />
      <g
         id="g1912"
         transform="scale(10)">
        <text
           xml:space="preserve"
           transform="matrix(1,0,0,-1,215.052,56.3648)"
           style="font-variant:normal;font-weight:normal;font-size:7px;font-family:Helvetica;-inkscape-font-specification:Helvetica;writing-mode:lr-tb;fill:#000000;fill-opacity:1;fill-rule:nonzero;stroke:none"
           id="text1916"><tspan
             x="0 3.892 7.98 11.872 13.818 16.149 20.818001"
             y="0"
             sodipodi:role="line"
             id="tspan1914">2−6 (Å)</tspan></text>
      </g>
      <path
         d="m 967.75,910 c 0,8.695 -7.055,15.75 -15.75,15.75 -8.695,0 -15.75,-7.055 -15.75,-15.75 0,-8.695 7.055,-15.75 15.75,-15.75 8.695,0 15.75,7.055 15.75,15.75"
         style="fill:#000000;fill-opacity:1;fill-rule:nonzero;stroke:none"
         id="path1918" />
      <path
         d="m 998.25,931 c 0,8.695 -7.055,15.75 -15.75,15.75 -8.695,0 -15.75,-7.055 -15.75,-15.75 0,-8.695 7.055,-15.75 15.75,-15.75 8.695,0 15.75,7.055 15.75,15.75"
         style="fill:#000000;fill-opacity:1;fill-rule:nonzero;stroke:none"
         id="path1920" />
      <path
         d="m 1027.75,962.5 c 0,8.695 -7.05,15.75 -15.75,15.75 -8.7,0 -15.75,-7.055 -15.75,-15.75 0,-8.695 7.05,-15.75 15.75,-15.75 8.7,0 15.75,7.055 15.75,15.75"
         style="fill:#000000;fill-opacity:1;fill-rule:nonzero;stroke:none"
         id="path1922" />
      <path
         d="m 1056.25,981 c 0,8.695 -7.05,15.75 -15.75,15.75 -8.7,0 -15.75,-7.055 -15.75,-15.75 0,-8.695 7.05,-15.75 15.75,-15.75 8.7,0 15.75,7.055 15.75,15.75"
         style="fill:#000000;fill-opacity:1;fill-rule:nonzero;stroke:none"
         id="path1924" />
      <path
         d="m 1083.75,994 c 0,8.7 -7.05,15.75 -15.75,15.75 -8.7,0 -15.75,-7.05 -15.75,-15.75 0,-8.695 7.05,-15.75 15.75,-15.75 8.7,0 15.75,7.055 15.75,15.75"
         style="fill:#000000;fill-opacity:1;fill-rule:nonzero;stroke:none"
         id="path1926" />
      <path
         d="m 1110.25,1007 c 0,8.7 -7.05,15.75 -15.75,15.75 -8.7,0 -15.75,-7.05 -15.75,-15.75 0,-8.695 7.05,-15.75 15.75,-15.75 8.7,0 15.75,7.055 15.75,15.75"
         style="fill:#000000;fill-opacity:1;fill-rule:nonzero;stroke:none"
         id="path1928" />
      <path
         d="m 1135.75,1019.5 c 0,8.7 -7.05,15.75 -15.75,15.75 -8.7,0 -15.75,-7.05 -15.75,-15.75 0,-8.7 7.05,-15.75 15.75,-15.75 8.7,0 15.75,7.05 15.75,15.75"
         style="fill:#000000;fill-opacity:1;fill-rule:nonzero;stroke:none"
         id="path1930" />
      <path
         d="m 1160.75,1029 c 0,8.7 -7.05,15.75 -15.75,15.75 -8.7,0 -15.75,-7.05 -15.75,-15.75 0,-8.7 7.05,-15.75 15.75,-15.75 8.7,0 15.75,7.05 15.75,15.75"
         style="fill:#000000;fill-opacity:1;fill-rule:nonzero;stroke:none"
         id="path1932" />
      <path
         d="m 1184.75,1039.5 c 0,8.7 -7.05,15.75 -15.75,15.75 -8.7,0 -15.75,-7.05 -15.75,-15.75 0,-8.7 7.05,-15.75 15.75,-15.75 8.7,0 15.75,7.05 15.75,15.75"
         style="fill:#000000;fill-opacity:1;fill-rule:nonzero;stroke:none"
         id="path1934" />
      <path
         d="m 1207.75,1051 c 0,8.7 -7.05,15.75 -15.75,15.75 -8.7,0 -15.75,-7.05 -15.75,-15.75 0,-8.7 7.05,-15.75 15.75,-15.75 8.7,0 15.75,7.05 15.75,15.75"
         style="fill:#000000;fill-opacity:1;fill-rule:nonzero;stroke:none"
         id="path1936" />
      <path
         d="m 1230.25,1062.5 c 0,8.7 -7.05,15.75 -15.75,15.75 -8.7,0 -15.75,-7.05 -15.75,-15.75 0,-8.7 7.05,-15.75 15.75,-15.75 8.7,0 15.75,7.05 15.75,15.75"
         style="fill:#000000;fill-opacity:1;fill-rule:nonzero;stroke:none"
         id="path1938" />
      <path
         d="m 1252.25,1073 c 0,8.7 -7.05,15.75 -15.75,15.75 -8.7,0 -15.75,-7.05 -15.75,-15.75 0,-8.7 7.05,-15.75 15.75,-15.75 8.7,0 15.75,7.05 15.75,15.75"
         style="fill:#000000;fill-opacity:1;fill-rule:nonzero;stroke:none"
         id="path1940" />
      <path
         d="m 1273.25,1083.5 c 0,8.7 -7.05,15.75 -15.75,15.75 -8.7,0 -15.75,-7.05 -15.75,-15.75 0,-8.7 7.05,-15.75 15.75,-15.75 8.7,0 15.75,7.05 15.75,15.75"
         style="fill:#000000;fill-opacity:1;fill-rule:nonzero;stroke:none"
         id="path1942" />
      <path
         d="m 1294.25,1094 c 0,8.7 -7.05,15.75 -15.75,15.75 -8.7,0 -15.75,-7.05 -15.75,-15.75 0,-8.7 7.05,-15.75 15.75,-15.75 8.7,0 15.75,7.05 15.75,15.75"
         style="fill:#000000;fill-opacity:1;fill-rule:nonzero;stroke:none"
         id="path1944" />
      <path
         d="m 1314.25,1105 c 0,8.7 -7.05,15.75 -15.75,15.75 -8.7,0 -15.75,-7.05 -15.75,-15.75 0,-8.7 7.05,-15.75 15.75,-15.75 8.7,0 15.75,7.05 15.75,15.75"
         style="fill:#000000;fill-opacity:1;fill-rule:nonzero;stroke:none"
         id="path1946" />
      <path
         d="m 1333.75,1117 c 0,8.7 -7.05,15.75 -15.75,15.75 -8.7,0 -15.75,-7.05 -15.75,-15.75 0,-8.7 7.05,-15.75 15.75,-15.75 8.7,0 15.75,7.05 15.75,15.75"
         style="fill:#000000;fill-opacity:1;fill-rule:nonzero;stroke:none"
         id="path1948" />
      <path
         d="m 1353.25,1128 c 0,8.7 -7.05,15.75 -15.75,15.75 -8.7,0 -15.75,-7.05 -15.75,-15.75 0,-8.7 7.05,-15.75 15.75,-15.75 8.7,0 15.75,7.05 15.75,15.75"
         style="fill:#000000;fill-opacity:1;fill-rule:nonzero;stroke:none"
         id="path1950" />
      <path
         d="m 1371.75,1137.5 c 0,8.7 -7.05,15.75 -15.75,15.75 -8.7,0 -15.75,-7.05 -15.75,-15.75 0,-8.7 7.05,-15.75 15.75,-15.75 8.7,0 15.75,7.05 15.75,15.75"
         style="fill:#000000;fill-opacity:1;fill-rule:nonzero;stroke:none"
         id="path1952" />
      <path
         d="m 1389.75,1146 c 0,8.7 -7.05,15.75 -15.75,15.75 -8.7,0 -15.75,-7.05 -15.75,-15.75 0,-8.7 7.05,-15.75 15.75,-15.75 8.7,0 15.75,7.05 15.75,15.75"
         style="fill:#000000;fill-opacity:1;fill-rule:nonzero;stroke:none"
         id="path1954" />
      <path
         d="m 1407.75,1156 c 0,8.7 -7.05,15.75 -15.75,15.75 -8.7,0 -15.75,-7.05 -15.75,-15.75 0,-8.7 7.05,-15.75 15.75,-15.75 8.7,0 15.75,7.05 15.75,15.75"
         style="fill:#000000;fill-opacity:1;fill-rule:nonzero;stroke:none"
         id="path1956" />
      <path
         d="m 1425.25,1165 c 0,8.7 -7.05,15.75 -15.75,15.75 -8.7,0 -15.75,-7.05 -15.75,-15.75 0,-8.7 7.05,-15.75 15.75,-15.75 8.7,0 15.75,7.05 15.75,15.75"
         style="fill:#000000;fill-opacity:1;fill-rule:nonzero;stroke:none"
         id="path1958" />
      <path
         d="m 1442.25,1175.5 c 0,8.7 -7.05,15.75 -15.75,15.75 -8.7,0 -15.75,-7.05 -15.75,-15.75 0,-8.7 7.05,-15.75 15.75,-15.75 8.7,0 15.75,7.05 15.75,15.75"
         style="fill:#000000;fill-opacity:1;fill-rule:nonzero;stroke:none"
         id="path1960" />
      <path
         d="m 1458.75,1185.5 c 0,8.7 -7.05,15.75 -15.75,15.75 -8.7,0 -15.75,-7.05 -15.75,-15.75 0,-8.7 7.05,-15.75 15.75,-15.75 8.7,0 15.75,7.05 15.75,15.75"
         style="fill:#000000;fill-opacity:1;fill-rule:nonzero;stroke:none"
         id="path1962" />
      <path
         d="m 1474.75,1195.5 c 0,8.7 -7.05,15.75 -15.75,15.75 -8.7,0 -15.75,-7.05 -15.75,-15.75 0,-8.7 7.05,-15.75 15.75,-15.75 8.7,0 15.75,7.05 15.75,15.75"
         style="fill:#000000;fill-opacity:1;fill-rule:nonzero;stroke:none"
         id="path1964" />
      <path
         d="m 1490.75,1206 c 0,8.7 -7.05,15.75 -15.75,15.75 -8.7,0 -15.75,-7.05 -15.75,-15.75 0,-8.7 7.05,-15.75 15.75,-15.75 8.7,0 15.75,7.05 15.75,15.75"
         style="fill:#000000;fill-opacity:1;fill-rule:nonzero;stroke:none"
         id="path1966" />
      <path
         d="m 1506.25,1216.5 c 0,8.7 -7.05,15.75 -15.75,15.75 -8.7,0 -15.75,-7.05 -15.75,-15.75 0,-8.7 7.05,-15.75 15.75,-15.75 8.7,0 15.75,7.05 15.75,15.75"
         style="fill:#000000;fill-opacity:1;fill-rule:nonzero;stroke:none"
         id="path1968" />
      <path
         d="m 1521.75,1227 c 0,8.7 -7.05,15.75 -15.75,15.75 -8.7,0 -15.75,-7.05 -15.75,-15.75 0,-8.7 7.05,-15.75 15.75,-15.75 8.7,0 15.75,7.05 15.75,15.75"
         style="fill:#000000;fill-opacity:1;fill-rule:nonzero;stroke:none"
         id="path1970" />
      <path
         d="m 1536.75,1236.5 c 0,8.7 -7.05,15.75 -15.75,15.75 -8.7,0 -15.75,-7.05 -15.75,-15.75 0,-8.7 7.05,-15.75 15.75,-15.75 8.7,0 15.75,7.05 15.75,15.75"
         style="fill:#000000;fill-opacity:1;fill-rule:nonzero;stroke:none"
         id="path1972" />
      <path
         d="m 1551.25,1245 c 0,8.7 -7.05,15.75 -15.75,15.75 -8.7,0 -15.75,-7.05 -15.75,-15.75 0,-8.7 7.05,-15.75 15.75,-15.75 8.7,0 15.75,7.05 15.75,15.75"
         style="fill:#000000;fill-opacity:1;fill-rule:nonzero;stroke:none"
         id="path1974" />
      <path
         d="m 1565.75,1254 c 0,8.7 -7.05,15.75 -15.75,15.75 -8.7,0 -15.75,-7.05 -15.75,-15.75 0,-8.7 7.05,-15.75 15.75,-15.75 8.7,0 15.75,7.05 15.75,15.75"
         style="fill:#000000;fill-opacity:1;fill-rule:nonzero;stroke:none"
         id="path1976" />
      <path
         d="m 1579.75,1263 c 0,8.7 -7.05,15.75 -15.75,15.75 -8.7,0 -15.75,-7.05 -15.75,-15.75 0,-8.7 7.05,-15.75 15.75,-15.75 8.7,0 15.75,7.05 15.75,15.75"
         style="fill:#000000;fill-opacity:1;fill-rule:nonzero;stroke:none"
         id="path1978" />
      <path
         d="m 1593.75,1271 c 0,8.7 -7.05,15.75 -15.75,15.75 -8.7,0 -15.75,-7.05 -15.75,-15.75 0,-8.7 7.05,-15.75 15.75,-15.75 8.7,0 15.75,7.05 15.75,15.75"
         style="fill:#000000;fill-opacity:1;fill-rule:nonzero;stroke:none"
         id="path1980" />
      <path
         d="m 1607.25,1279 c 0,8.7 -7.05,15.75 -15.75,15.75 -8.7,0 -15.75,-7.05 -15.75,-15.75 0,-8.7 7.05,-15.75 15.75,-15.75 8.7,0 15.75,7.05 15.75,15.75"
         style="fill:#000000;fill-opacity:1;fill-rule:nonzero;stroke:none"
         id="path1982" />
      <path
         d="m 1620.75,1287 c 0,8.7 -7.05,15.75 -15.75,15.75 -8.7,0 -15.75,-7.05 -15.75,-15.75 0,-8.7 7.05,-15.75 15.75,-15.75 8.7,0 15.75,7.05 15.75,15.75"
         style="fill:#000000;fill-opacity:1;fill-rule:nonzero;stroke:none"
         id="path1984" />
      <path
         d="m 1633.75,1295 c 0,8.7 -7.05,15.75 -15.75,15.75 -8.7,0 -15.75,-7.05 -15.75,-15.75 0,-8.7 7.05,-15.75 15.75,-15.75 8.7,0 15.75,7.05 15.75,15.75"
         style="fill:#000000;fill-opacity:1;fill-rule:nonzero;stroke:none"
         id="path1986" />
      <path
         d="m 1646.75,1302.5 c 0,8.7 -7.05,15.75 -15.75,15.75 -8.7,0 -15.75,-7.05 -15.75,-15.75 0,-8.7 7.05,-15.75 15.75,-15.75 8.7,0 15.75,7.05 15.75,15.75"
         style="fill:#000000;fill-opacity:1;fill-rule:nonzero;stroke:none"
         id="path1988" />
      <path
         d="m 1659.25,1310 c 0,8.7 -7.05,15.75 -15.75,15.75 -8.7,0 -15.75,-7.05 -15.75,-15.75 0,-8.7 7.05,-15.75 15.75,-15.75 8.7,0 15.75,7.05 15.75,15.75"
         style="fill:#000000;fill-opacity:1;fill-rule:nonzero;stroke:none"
         id="path1990" />
      <path
         d="m 1671.75,1318 c 0,8.7 -7.05,15.75 -15.75,15.75 -8.7,0 -15.75,-7.05 -15.75,-15.75 0,-8.7 7.05,-15.75 15.75,-15.75 8.7,0 15.75,7.05 15.75,15.75"
         style="fill:#000000;fill-opacity:1;fill-rule:nonzero;stroke:none"
         id="path1992" />
      <path
         d="m 1684.25,1325.5 c 0,8.7 -7.05,15.75 -15.75,15.75 -8.7,0 -15.75,-7.05 -15.75,-15.75 0,-8.7 7.05,-15.75 15.75,-15.75 8.7,0 15.75,7.05 15.75,15.75"
         style="fill:#000000;fill-opacity:1;fill-rule:nonzero;stroke:none"
         id="path1994" />
      <path
         d="m 1696.25,1332 c 0,8.7 -7.05,15.75 -15.75,15.75 -8.7,0 -15.75,-7.05 -15.75,-15.75 0,-8.7 7.05,-15.75 15.75,-15.75 8.7,0 15.75,7.05 15.75,15.75"
         style="fill:#000000;fill-opacity:1;fill-rule:nonzero;stroke:none"
         id="path1996" />
      <path
         d="m 1708.25,1340 c 0,8.7 -7.05,15.75 -15.75,15.75 -8.7,0 -15.75,-7.05 -15.75,-15.75 0,-8.7 7.05,-15.75 15.75,-15.75 8.7,0 15.75,7.05 15.75,15.75"
         style="fill:#000000;fill-opacity:1;fill-rule:nonzero;stroke:none"
         id="path1998" />
      <path
         d="m 2539.25,587 c 0,8.695 -7.05,15.75 -15.75,15.75 -8.7,0 -15.75,-7.055 -15.75,-15.75 0,-8.695 7.05,-15.75 15.75,-15.75 8.7,0 15.75,7.055 15.75,15.75"
         style="fill:#000000;fill-opacity:1;fill-rule:nonzero;stroke:none"
         id="path2000" />
      <g
         id="g2002"
         transform="scale(10)">
        <text
           xml:space="preserve"
           transform="matrix(1,0,0,-1,211.161,49.3648)"
           style="font-variant:normal;font-weight:normal;font-size:7px;font-family:Helvetica;-inkscape-font-specification:Helvetica;writing-mode:lr-tb;fill:#000000;fill-opacity:1;fill-rule:nonzero;stroke:none"
           id="text2006"><tspan
             x="0 3.892 7.98 11.872 15.764 17.709999 20.041 24.709999"
             y="0"
             sodipodi:role="line"
             id="tspan2004">6−20 (Å)</tspan></text>
      </g>
      <path
         d="m 1719.75,1346.5 c 0,8.7 -7.05,15.75 -15.75,15.75 -8.7,0 -15.75,-7.05 -15.75,-15.75 0,-8.7 7.05,-15.75 15.75,-15.75 8.7,0 15.75,7.05 15.75,15.75"
         style="fill:#ff804f;fill-opacity:1;fill-rule:nonzero;stroke:none"
         id="path2008" />
      <path
         d="m 1731.25,1353 c 0,8.7 -7.05,15.75 -15.75,15.75 -8.7,0 -15.75,-7.05 -15.75,-15.75 0,-8.7 7.05,-15.75 15.75,-15.75 8.7,0 15.75,7.05 15.75,15.75"
         style="fill:#ff804f;fill-opacity:1;fill-rule:nonzero;stroke:none"
         id="path2010" />
      <path
         d="m 1742.75,1360 c 0,8.7 -7.05,15.75 -15.75,15.75 -8.7,0 -15.75,-7.05 -15.75,-15.75 0,-8.7 7.05,-15.75 15.75,-15.75 8.7,0 15.75,7.05 15.75,15.75"
         style="fill:#ff804f;fill-opacity:1;fill-rule:nonzero;stroke:none"
         id="path2012" />
      <path
         d="m 1754.25,1366 c 0,8.7 -7.05,15.75 -15.75,15.75 -8.7,0 -15.75,-7.05 -15.75,-15.75 0,-8.7 7.05,-15.75 15.75,-15.75 8.7,0 15.75,7.05 15.75,15.75"
         style="fill:#ff804f;fill-opacity:1;fill-rule:nonzero;stroke:none"
         id="path2014" />
      <path
         d="m 1765.25,1372 c 0,8.7 -7.05,15.75 -15.75,15.75 -8.7,0 -15.75,-7.05 -15.75,-15.75 0,-8.7 7.05,-15.75 15.75,-15.75 8.7,0 15.75,7.05 15.75,15.75"
         style="fill:#ff804f;fill-opacity:1;fill-rule:nonzero;stroke:none"
         id="path2016" />
      <path
         d="m 1775.75,1378 c 0,8.7 -7.05,15.75 -15.75,15.75 -8.7,0 -15.75,-7.05 -15.75,-15.75 0,-8.7 7.05,-15.75 15.75,-15.75 8.7,0 15.75,7.05 15.75,15.75"
         style="fill:#ff804f;fill-opacity:1;fill-rule:nonzero;stroke:none"
         id="path2018" />
      <path
         d="m 1786.75,1384.5 c 0,8.7 -7.05,15.75 -15.75,15.75 -8.7,0 -15.75,-7.05 -15.75,-15.75 0,-8.7 7.05,-15.75 15.75,-15.75 8.7,0 15.75,7.05 15.75,15.75"
         style="fill:#ff804f;fill-opacity:1;fill-rule:nonzero;stroke:none"
         id="path2020" />
      <path
         d="m 1797.25,1391 c 0,8.7 -7.05,15.75 -15.75,15.75 -8.7,0 -15.75,-7.05 -15.75,-15.75 0,-8.7 7.05,-15.75 15.75,-15.75 8.7,0 15.75,7.05 15.75,15.75"
         style="fill:#ff804f;fill-opacity:1;fill-rule:nonzero;stroke:none"
         id="path2022" />
      <path
         d="m 1807.75,1397 c 0,8.7 -7.05,15.75 -15.75,15.75 -8.7,0 -15.75,-7.05 -15.75,-15.75 0,-8.7 7.05,-15.75 15.75,-15.75 8.7,0 15.75,7.05 15.75,15.75"
         style="fill:#ff804f;fill-opacity:1;fill-rule:nonzero;stroke:none"
         id="path2024" />
      <path
         d="m 1817.75,1403 c 0,8.7 -7.05,15.75 -15.75,15.75 -8.7,0 -15.75,-7.05 -15.75,-15.75 0,-8.7 7.05,-15.75 15.75,-15.75 8.7,0 15.75,7.05 15.75,15.75"
         style="fill:#ff804f;fill-opacity:1;fill-rule:nonzero;stroke:none"
         id="path2026" />
      <path
         d="m 1828.25,1408.5 c 0,8.7 -7.05,15.75 -15.75,15.75 -8.7,0 -15.75,-7.05 -15.75,-15.75 0,-8.7 7.05,-15.75 15.75,-15.75 8.7,0 15.75,7.05 15.75,15.75"
         style="fill:#ff804f;fill-opacity:1;fill-rule:nonzero;stroke:none"
         id="path2028" />
      <path
         d="m 1838.25,1414 c 0,8.7 -7.05,15.75 -15.75,15.75 -8.7,0 -15.75,-7.05 -15.75,-15.75 0,-8.7 7.05,-15.75 15.75,-15.75 8.7,0 15.75,7.05 15.75,15.75"
         style="fill:#ff804f;fill-opacity:1;fill-rule:nonzero;stroke:none"
         id="path2030" />
      <path
         d="m 1848.25,1419.5 c 0,8.7 -7.05,15.75 -15.75,15.75 -8.7,0 -15.75,-7.05 -15.75,-15.75 0,-8.7 7.05,-15.75 15.75,-15.75 8.7,0 15.75,7.05 15.75,15.75"
         style="fill:#ff804f;fill-opacity:1;fill-rule:nonzero;stroke:none"
         id="path2032" />
      <path
         d="m 1857.75,1425 c 0,8.7 -7.05,15.75 -15.75,15.75 -8.7,0 -15.75,-7.05 -15.75,-15.75 0,-8.7 7.05,-15.75 15.75,-15.75 8.7,0 15.75,7.05 15.75,15.75"
         style="fill:#ff804f;fill-opacity:1;fill-rule:nonzero;stroke:none"
         id="path2034" />
      <path
         d="m 1867.25,1430.5 c 0,8.7 -7.05,15.75 -15.75,15.75 -8.7,0 -15.75,-7.05 -15.75,-15.75 0,-8.7 7.05,-15.75 15.75,-15.75 8.7,0 15.75,7.05 15.75,15.75"
         style="fill:#ff804f;fill-opacity:1;fill-rule:nonzero;stroke:none"
         id="path2036" />
      <path
         d="m 1876.75,1436 c 0,8.7 -7.05,15.75 -15.75,15.75 -8.7,0 -15.75,-7.05 -15.75,-15.75 0,-8.7 7.05,-15.75 15.75,-15.75 8.7,0 15.75,7.05 15.75,15.75"
         style="fill:#ff804f;fill-opacity:1;fill-rule:nonzero;stroke:none"
         id="path2038" />
      <path
         d="m 1886.25,1441 c 0,8.7 -7.05,15.75 -15.75,15.75 -8.7,0 -15.75,-7.05 -15.75,-15.75 0,-8.7 7.05,-15.75 15.75,-15.75 8.7,0 15.75,7.05 15.75,15.75"
         style="fill:#ff804f;fill-opacity:1;fill-rule:nonzero;stroke:none"
         id="path2040" />
      <path
         d="m 1895.75,1447 c 0,8.7 -7.05,15.75 -15.75,15.75 -8.7,0 -15.75,-7.05 -15.75,-15.75 0,-8.7 7.05,-15.75 15.75,-15.75 8.7,0 15.75,7.05 15.75,15.75"
         style="fill:#ff804f;fill-opacity:1;fill-rule:nonzero;stroke:none"
         id="path2042" />
      <path
         d="m 1904.75,1452 c 0,8.7 -7.05,15.75 -15.75,15.75 -8.7,0 -15.75,-7.05 -15.75,-15.75 0,-8.7 7.05,-15.75 15.75,-15.75 8.7,0 15.75,7.05 15.75,15.75"
         style="fill:#ff804f;fill-opacity:1;fill-rule:nonzero;stroke:none"
         id="path2044" />
      <path
         d="m 1913.75,1457 c 0,8.7 -7.05,15.75 -15.75,15.75 -8.7,0 -15.75,-7.05 -15.75,-15.75 0,-8.7 7.05,-15.75 15.75,-15.75 8.7,0 15.75,7.05 15.75,15.75"
         style="fill:#ff804f;fill-opacity:1;fill-rule:nonzero;stroke:none"
         id="path2046" />
      <path
         d="m 1922.75,1462.5 c 0,8.7 -7.05,15.75 -15.75,15.75 -8.7,0 -15.75,-7.05 -15.75,-15.75 0,-8.7 7.05,-15.75 15.75,-15.75 8.7,0 15.75,7.05 15.75,15.75"
         style="fill:#ff804f;fill-opacity:1;fill-rule:nonzero;stroke:none"
         id="path2048" />
      <path
         d="m 1931.75,1467.5 c 0,8.7 -7.05,15.75 -15.75,15.75 -8.7,0 -15.75,-7.05 -15.75,-15.75 0,-8.7 7.05,-15.75 15.75,-15.75 8.7,0 15.75,7.05 15.75,15.75"
         style="fill:#ff804f;fill-opacity:1;fill-rule:nonzero;stroke:none"
         id="path2050" />
      <path
         d="m 1940.25,1472.5 c 0,8.7 -7.05,15.75 -15.75,15.75 -8.7,0 -15.75,-7.05 -15.75,-15.75 0,-8.7 7.05,-15.75 15.75,-15.75 8.7,0 15.75,7.05 15.75,15.75"
         style="fill:#ff804f;fill-opacity:1;fill-rule:nonzero;stroke:none"
         id="path2052" />
      <path
         d="m 1949.25,1477.5 c 0,8.7 -7.05,15.75 -15.75,15.75 -8.7,0 -15.75,-7.05 -15.75,-15.75 0,-8.7 7.05,-15.75 15.75,-15.75 8.7,0 15.75,7.05 15.75,15.75"
         style="fill:#ff804f;fill-opacity:1;fill-rule:nonzero;stroke:none"
         id="path2054" />
      <path
         d="m 1957.75,1482.5 c 0,8.7 -7.05,15.75 -15.75,15.75 -8.7,0 -15.75,-7.05 -15.75,-15.75 0,-8.7 7.05,-15.75 15.75,-15.75 8.7,0 15.75,7.05 15.75,15.75"
         style="fill:#ff804f;fill-opacity:1;fill-rule:nonzero;stroke:none"
         id="path2056" />
      <path
         d="m 1966.25,1487.5 c 0,8.7 -7.05,15.75 -15.75,15.75 -8.7,0 -15.75,-7.05 -15.75,-15.75 0,-8.7 7.05,-15.75 15.75,-15.75 8.7,0 15.75,7.05 15.75,15.75"
         style="fill:#ff804f;fill-opacity:1;fill-rule:nonzero;stroke:none"
         id="path2058" />
      <path
         d="m 1974.25,1492.5 c 0,8.7 -7.05,15.75 -15.75,15.75 -8.7,0 -15.75,-7.05 -15.75,-15.75 0,-8.7 7.05,-15.75 15.75,-15.75 8.7,0 15.75,7.05 15.75,15.75"
         style="fill:#ff804f;fill-opacity:1;fill-rule:nonzero;stroke:none"
         id="path2060" />
      <path
         d="m 1982.75,1497 c 0,8.7 -7.05,15.75 -15.75,15.75 -8.7,0 -15.75,-7.05 -15.75,-15.75 0,-8.7 7.05,-15.75 15.75,-15.75 8.7,0 15.75,7.05 15.75,15.75"
         style="fill:#ff804f;fill-opacity:1;fill-rule:nonzero;stroke:none"
         id="path2062" />
      <path
         d="m 1990.75,1502 c 0,8.7 -7.05,15.75 -15.75,15.75 -8.7,0 -15.75,-7.05 -15.75,-15.75 0,-8.7 7.05,-15.75 15.75,-15.75 8.7,0 15.75,7.05 15.75,15.75"
         style="fill:#ff804f;fill-opacity:1;fill-rule:nonzero;stroke:none"
         id="path2064" />
      <path
         d="m 1998.75,1506.5 c 0,8.7 -7.05,15.75 -15.75,15.75 -8.7,0 -15.75,-7.05 -15.75,-15.75 0,-8.7 7.05,-15.75 15.75,-15.75 8.7,0 15.75,7.05 15.75,15.75"
         style="fill:#ff804f;fill-opacity:1;fill-rule:nonzero;stroke:none"
         id="path2066" />
      <path
         d="m 2006.75,1511.5 c 0,8.7 -7.05,15.75 -15.75,15.75 -8.7,0 -15.75,-7.05 -15.75,-15.75 0,-8.7 7.05,-15.75 15.75,-15.75 8.7,0 15.75,7.05 15.75,15.75"
         style="fill:#ff804f;fill-opacity:1;fill-rule:nonzero;stroke:none"
         id="path2068" />
      <path
         d="m 2014.75,1516 c 0,8.7 -7.05,15.75 -15.75,15.75 -8.7,0 -15.75,-7.05 -15.75,-15.75 0,-8.7 7.05,-15.75 15.75,-15.75 8.7,0 15.75,7.05 15.75,15.75"
         style="fill:#ff804f;fill-opacity:1;fill-rule:nonzero;stroke:none"
         id="path2070" />
      <path
         d="m 2022.75,1520.5 c 0,8.7 -7.05,15.75 -15.75,15.75 -8.7,0 -15.75,-7.05 -15.75,-15.75 0,-8.7 7.05,-15.75 15.75,-15.75 8.7,0 15.75,7.05 15.75,15.75"
         style="fill:#ff804f;fill-opacity:1;fill-rule:nonzero;stroke:none"
         id="path2072" />
      <path
         d="m 2030.25,1525.5 c 0,8.7 -7.05,15.75 -15.75,15.75 -8.7,0 -15.75,-7.05 -15.75,-15.75 0,-8.7 7.05,-15.75 15.75,-15.75 8.7,0 15.75,7.05 15.75,15.75"
         style="fill:#ff804f;fill-opacity:1;fill-rule:nonzero;stroke:none"
         id="path2074" />
      <path
         d="m 2038.25,1529.5 c 0,8.7 -7.05,15.75 -15.75,15.75 -8.7,0 -15.75,-7.05 -15.75,-15.75 0,-8.7 7.05,-15.75 15.75,-15.75 8.7,0 15.75,7.05 15.75,15.75"
         style="fill:#ff804f;fill-opacity:1;fill-rule:nonzero;stroke:none"
         id="path2076" />
      <path
         d="m 2045.75,1534 c 0,8.7 -7.05,15.75 -15.75,15.75 -8.7,0 -15.75,-7.05 -15.75,-15.75 0,-8.7 7.05,-15.75 15.75,-15.75 8.7,0 15.75,7.05 15.75,15.75"
         style="fill:#ff804f;fill-opacity:1;fill-rule:nonzero;stroke:none"
         id="path2078" />
      <path
         d="m 2053.25,1538.5 c 0,8.7 -7.05,15.75 -15.75,15.75 -8.7,0 -15.75,-7.05 -15.75,-15.75 0,-8.7 7.05,-15.75 15.75,-15.75 8.7,0 15.75,7.05 15.75,15.75"
         style="fill:#ff804f;fill-opacity:1;fill-rule:nonzero;stroke:none"
         id="path2080" />
      <path
         d="m 2060.75,1543 c 0,8.7 -7.05,15.75 -15.75,15.75 -8.7,0 -15.75,-7.05 -15.75,-15.75 0,-8.7 7.05,-15.75 15.75,-15.75 8.7,0 15.75,7.05 15.75,15.75"
         style="fill:#ff804f;fill-opacity:1;fill-rule:nonzero;stroke:none"
         id="path2082" />
      <path
         d="m 2068.25,1547.5 c 0,8.7 -7.05,15.75 -15.75,15.75 -8.7,0 -15.75,-7.05 -15.75,-15.75 0,-8.7 7.05,-15.75 15.75,-15.75 8.7,0 15.75,7.05 15.75,15.75"
         style="fill:#ff804f;fill-opacity:1;fill-rule:nonzero;stroke:none"
         id="path2084" />
      <path
         d="m 2075.25,1552 c 0,8.7 -7.05,15.75 -15.75,15.75 -8.7,0 -15.75,-7.05 -15.75,-15.75 0,-8.7 7.05,-15.75 15.75,-15.75 8.7,0 15.75,7.05 15.75,15.75"
         style="fill:#ff804f;fill-opacity:1;fill-rule:nonzero;stroke:none"
         id="path2086" />
      <path
         d="m 2082.75,1556 c 0,8.7 -7.05,15.75 -15.75,15.75 -8.7,0 -15.75,-7.05 -15.75,-15.75 0,-8.7 7.05,-15.75 15.75,-15.75 8.7,0 15.75,7.05 15.75,15.75"
         style="fill:#ff804f;fill-opacity:1;fill-rule:nonzero;stroke:none"
         id="path2088" />
      <path
         d="m 2089.75,1560 c 0,8.7 -7.05,15.75 -15.75,15.75 -8.7,0 -15.75,-7.05 -15.75,-15.75 0,-8.7 7.05,-15.75 15.75,-15.75 8.7,0 15.75,7.05 15.75,15.75"
         style="fill:#ff804f;fill-opacity:1;fill-rule:nonzero;stroke:none"
         id="path2090" />
      <path
         d="m 2096.75,1564 c 0,8.7 -7.05,15.75 -15.75,15.75 -8.7,0 -15.75,-7.05 -15.75,-15.75 0,-8.7 7.05,-15.75 15.75,-15.75 8.7,0 15.75,7.05 15.75,15.75"
         style="fill:#ff804f;fill-opacity:1;fill-rule:nonzero;stroke:none"
         id="path2092" />
      <path
         d="m 2103.75,1568 c 0,8.7 -7.05,15.75 -15.75,15.75 -8.7,0 -15.75,-7.05 -15.75,-15.75 0,-8.7 7.05,-15.75 15.75,-15.75 8.7,0 15.75,7.05 15.75,15.75"
         style="fill:#ff804f;fill-opacity:1;fill-rule:nonzero;stroke:none"
         id="path2094" />
      <path
         d="m 2110.75,1572.5 c 0,8.7 -7.05,15.75 -15.75,15.75 -8.7,0 -15.75,-7.05 -15.75,-15.75 0,-8.7 7.05,-15.75 15.75,-15.75 8.7,0 15.75,7.05 15.75,15.75"
         style="fill:#ff804f;fill-opacity:1;fill-rule:nonzero;stroke:none"
         id="path2096" />
      <path
         d="m 2117.75,1576 c 0,8.7 -7.05,15.75 -15.75,15.75 -8.7,0 -15.75,-7.05 -15.75,-15.75 0,-8.7 7.05,-15.75 15.75,-15.75 8.7,0 15.75,7.05 15.75,15.75"
         style="fill:#ff804f;fill-opacity:1;fill-rule:nonzero;stroke:none"
         id="path2098" />
      <path
         d="m 2124.75,1580 c 0,8.7 -7.05,15.75 -15.75,15.75 -8.7,0 -15.75,-7.05 -15.75,-15.75 0,-8.7 7.05,-15.75 15.75,-15.75 8.7,0 15.75,7.05 15.75,15.75"
         style="fill:#ff804f;fill-opacity:1;fill-rule:nonzero;stroke:none"
         id="path2100" />
      <path
         d="m 2131.25,1584 c 0,8.7 -7.05,15.75 -15.75,15.75 -8.7,0 -15.75,-7.05 -15.75,-15.75 0,-8.7 7.05,-15.75 15.75,-15.75 8.7,0 15.75,7.05 15.75,15.75"
         style="fill:#ff804f;fill-opacity:1;fill-rule:nonzero;stroke:none"
         id="path2102" />
      <path
         d="m 2138.25,1588 c 0,8.7 -7.05,15.75 -15.75,15.75 -8.7,0 -15.75,-7.05 -15.75,-15.75 0,-8.7 7.05,-15.75 15.75,-15.75 8.7,0 15.75,7.05 15.75,15.75"
         style="fill:#ff804f;fill-opacity:1;fill-rule:nonzero;stroke:none"
         id="path2104" />
      <path
         d="m 2144.75,1592 c 0,8.7 -7.05,15.75 -15.75,15.75 -8.7,0 -15.75,-7.05 -15.75,-15.75 0,-8.7 7.05,-15.75 15.75,-15.75 8.7,0 15.75,7.05 15.75,15.75"
         style="fill:#ff804f;fill-opacity:1;fill-rule:nonzero;stroke:none"
         id="path2106" />
      <path
         d="m 2151.25,1596 c 0,8.7 -7.05,15.75 -15.75,15.75 -8.7,0 -15.75,-7.05 -15.75,-15.75 0,-8.7 7.05,-15.75 15.75,-15.75 8.7,0 15.75,7.05 15.75,15.75"
         style="fill:#ff804f;fill-opacity:1;fill-rule:nonzero;stroke:none"
         id="path2108" />
      <path
         d="m 2158.25,1599.5 c 0,8.7 -7.05,15.75 -15.75,15.75 -8.7,0 -15.75,-7.05 -15.75,-15.75 0,-8.7 7.05,-15.75 15.75,-15.75 8.7,0 15.75,7.05 15.75,15.75"
         style="fill:#ff804f;fill-opacity:1;fill-rule:nonzero;stroke:none"
         id="path2110" />
      <path
         d="m 2164.25,1603 c 0,8.7 -7.05,15.75 -15.75,15.75 -8.7,0 -15.75,-7.05 -15.75,-15.75 0,-8.7 7.05,-15.75 15.75,-15.75 8.7,0 15.75,7.05 15.75,15.75"
         style="fill:#ff804f;fill-opacity:1;fill-rule:nonzero;stroke:none"
         id="path2112" />
      <path
         d="m 2170.75,1607 c 0,8.7 -7.05,15.75 -15.75,15.75 -8.7,0 -15.75,-7.05 -15.75,-15.75 0,-8.7 7.05,-15.75 15.75,-15.75 8.7,0 15.75,7.05 15.75,15.75"
         style="fill:#ff804f;fill-opacity:1;fill-rule:nonzero;stroke:none"
         id="path2114" />
      <path
         d="m 2177.25,1610.5 c 0,8.7 -7.05,15.75 -15.75,15.75 -8.7,0 -15.75,-7.05 -15.75,-15.75 0,-8.7 7.05,-15.75 15.75,-15.75 8.7,0 15.75,7.05 15.75,15.75"
         style="fill:#ff804f;fill-opacity:1;fill-rule:nonzero;stroke:none"
         id="path2116" />
      <path
         d="m 2183.75,1614 c 0,8.7 -7.05,15.75 -15.75,15.75 -8.7,0 -15.75,-7.05 -15.75,-15.75 0,-8.7 7.05,-15.75 15.75,-15.75 8.7,0 15.75,7.05 15.75,15.75"
         style="fill:#ff804f;fill-opacity:1;fill-rule:nonzero;stroke:none"
         id="path2118" />
      <path
         d="m 2189.75,1617.5 c 0,8.7 -7.05,15.75 -15.75,15.75 -8.7,0 -15.75,-7.05 -15.75,-15.75 0,-8.7 7.05,-15.75 15.75,-15.75 8.7,0 15.75,7.05 15.75,15.75"
         style="fill:#ff804f;fill-opacity:1;fill-rule:nonzero;stroke:none"
         id="path2120" />
      <path
         d="m 2196.25,1621 c 0,8.7 -7.05,15.75 -15.75,15.75 -8.7,0 -15.75,-7.05 -15.75,-15.75 0,-8.7 7.05,-15.75 15.75,-15.75 8.7,0 15.75,7.05 15.75,15.75"
         style="fill:#ff804f;fill-opacity:1;fill-rule:nonzero;stroke:none"
         id="path2122" />
      <path
         d="m 2202.25,1624.5 c 0,8.7 -7.05,15.75 -15.75,15.75 -8.7,0 -15.75,-7.05 -15.75,-15.75 0,-8.7 7.05,-15.75 15.75,-15.75 8.7,0 15.75,7.05 15.75,15.75"
         style="fill:#ff804f;fill-opacity:1;fill-rule:nonzero;stroke:none"
         id="path2124" />
      <path
         d="m 2208.25,1628 c 0,8.7 -7.05,15.75 -15.75,15.75 -8.7,0 -15.75,-7.05 -15.75,-15.75 0,-8.7 7.05,-15.75 15.75,-15.75 8.7,0 15.75,7.05 15.75,15.75"
         style="fill:#ff804f;fill-opacity:1;fill-rule:nonzero;stroke:none"
         id="path2126" />
      <path
         d="m 2214.75,1631.5 c 0,8.7 -7.05,15.75 -15.75,15.75 -8.7,0 -15.75,-7.05 -15.75,-15.75 0,-8.7 7.05,-15.75 15.75,-15.75 8.7,0 15.75,7.05 15.75,15.75"
         style="fill:#ff804f;fill-opacity:1;fill-rule:nonzero;stroke:none"
         id="path2128" />
      <path
         d="m 2220.75,1634.5 c 0,8.7 -7.05,15.75 -15.75,15.75 -8.7,0 -15.75,-7.05 -15.75,-15.75 0,-8.7 7.05,-15.75 15.75,-15.75 8.7,0 15.75,7.05 15.75,15.75"
         style="fill:#ff804f;fill-opacity:1;fill-rule:nonzero;stroke:none"
         id="path2130" />
      <path
         d="m 2226.75,1638 c 0,8.7 -7.05,15.75 -15.75,15.75 -8.7,0 -15.75,-7.05 -15.75,-15.75 0,-8.7 7.05,-15.75 15.75,-15.75 8.7,0 15.75,7.05 15.75,15.75"
         style="fill:#ff804f;fill-opacity:1;fill-rule:nonzero;stroke:none"
         id="path2132" />
      <path
         d="m 2232.25,1641.5 c 0,8.7 -7.05,15.75 -15.75,15.75 -8.7,0 -15.75,-7.05 -15.75,-15.75 0,-8.7 7.05,-15.75 15.75,-15.75 8.7,0 15.75,7.05 15.75,15.75"
         style="fill:#ff804f;fill-opacity:1;fill-rule:nonzero;stroke:none"
         id="path2134" />
      <path
         d="m 2238.25,1645 c 0,8.7 -7.05,15.75 -15.75,15.75 -8.7,0 -15.75,-7.05 -15.75,-15.75 0,-8.7 7.05,-15.75 15.75,-15.75 8.7,0 15.75,7.05 15.75,15.75"
         style="fill:#ff804f;fill-opacity:1;fill-rule:nonzero;stroke:none"
         id="path2136" />
      <path
         d="m 2244.25,1648 c 0,8.7 -7.05,15.75 -15.75,15.75 -8.7,0 -15.75,-7.05 -15.75,-15.75 0,-8.7 7.05,-15.75 15.75,-15.75 8.7,0 15.75,7.05 15.75,15.75"
         style="fill:#ff804f;fill-opacity:1;fill-rule:nonzero;stroke:none"
         id="path2138" />
      <path
         d="m 2250.25,1651.5 c 0,8.7 -7.05,15.75 -15.75,15.75 -8.7,0 -15.75,-7.05 -15.75,-15.75 0,-8.7 7.05,-15.75 15.75,-15.75 8.7,0 15.75,7.05 15.75,15.75"
         style="fill:#ff804f;fill-opacity:1;fill-rule:nonzero;stroke:none"
         id="path2140" />
      <path
         d="m 2255.75,1654.5 c 0,8.7 -7.05,15.75 -15.75,15.75 -8.7,0 -15.75,-7.05 -15.75,-15.75 0,-8.7 7.05,-15.75 15.75,-15.75 8.7,0 15.75,7.05 15.75,15.75"
         style="fill:#ff804f;fill-opacity:1;fill-rule:nonzero;stroke:none"
         id="path2142" />
      <path
         d="m 2261.25,1657.5 c 0,8.7 -7.05,15.75 -15.75,15.75 -8.7,0 -15.75,-7.05 -15.75,-15.75 0,-8.7 7.05,-15.75 15.75,-15.75 8.7,0 15.75,7.05 15.75,15.75"
         style="fill:#ff804f;fill-opacity:1;fill-rule:nonzero;stroke:none"
         id="path2144" />
      <path
         d="m 2267.25,1660.5 c 0,8.7 -7.05,15.75 -15.75,15.75 -8.7,0 -15.75,-7.05 -15.75,-15.75 0,-8.7 7.05,-15.75 15.75,-15.75 8.7,0 15.75,7.05 15.75,15.75"
         style="fill:#ff804f;fill-opacity:1;fill-rule:nonzero;stroke:none"
         id="path2146" />
      <path
         d="m 2272.75,1663.5 c 0,8.7 -7.05,15.75 -15.75,15.75 -8.7,0 -15.75,-7.05 -15.75,-15.75 0,-8.7 7.05,-15.75 15.75,-15.75 8.7,0 15.75,7.05 15.75,15.75"
         style="fill:#ff804f;fill-opacity:1;fill-rule:nonzero;stroke:none"
         id="path2148" />
      <path
         d="m 2278.25,1667 c 0,8.7 -7.05,15.75 -15.75,15.75 -8.7,0 -15.75,-7.05 -15.75,-15.75 0,-8.7 7.05,-15.75 15.75,-15.75 8.7,0 15.75,7.05 15.75,15.75"
         style="fill:#ff804f;fill-opacity:1;fill-rule:nonzero;stroke:none"
         id="path2150" />
      <path
         d="m 2283.75,1670 c 0,8.7 -7.05,15.75 -15.75,15.75 -8.7,0 -15.75,-7.05 -15.75,-15.75 0,-8.7 7.05,-15.75 15.75,-15.75 8.7,0 15.75,7.05 15.75,15.75"
         style="fill:#ff804f;fill-opacity:1;fill-rule:nonzero;stroke:none"
         id="path2152" />
      <path
         d="m 2289.25,1673 c 0,8.7 -7.05,15.75 -15.75,15.75 -8.7,0 -15.75,-7.05 -15.75,-15.75 0,-8.7 7.05,-15.75 15.75,-15.75 8.7,0 15.75,7.05 15.75,15.75"
         style="fill:#ff804f;fill-opacity:1;fill-rule:nonzero;stroke:none"
         id="path2154" />
      <path
         d="m 2294.75,1676.5 c 0,8.7 -7.05,15.75 -15.75,15.75 -8.7,0 -15.75,-7.05 -15.75,-15.75 0,-8.7 7.05,-15.75 15.75,-15.75 8.7,0 15.75,7.05 15.75,15.75"
         style="fill:#ff804f;fill-opacity:1;fill-rule:nonzero;stroke:none"
         id="path2156" />
      <path
         d="m 2300.25,1679.5 c 0,8.7 -7.05,15.75 -15.75,15.75 -8.7,0 -15.75,-7.05 -15.75,-15.75 0,-8.7 7.05,-15.75 15.75,-15.75 8.7,0 15.75,7.05 15.75,15.75"
         style="fill:#ff804f;fill-opacity:1;fill-rule:nonzero;stroke:none"
         id="path2158" />
      <path
         d="m 2305.75,1682.5 c 0,8.7 -7.05,15.75 -15.75,15.75 -8.7,0 -15.75,-7.05 -15.75,-15.75 0,-8.7 7.05,-15.75 15.75,-15.75 8.7,0 15.75,7.05 15.75,15.75"
         style="fill:#ff804f;fill-opacity:1;fill-rule:nonzero;stroke:none"
         id="path2160" />
      <path
         d="m 2311.25,1685.5 c 0,8.7 -7.05,15.75 -15.75,15.75 -8.7,0 -15.75,-7.05 -15.75,-15.75 0,-8.7 7.05,-15.75 15.75,-15.75 8.7,0 15.75,7.05 15.75,15.75"
         style="fill:#ff804f;fill-opacity:1;fill-rule:nonzero;stroke:none"
         id="path2162" />
      <path
         d="m 2316.25,1688 c 0,8.7 -7.05,15.75 -15.75,15.75 -8.7,0 -15.75,-7.05 -15.75,-15.75 0,-8.7 7.05,-15.75 15.75,-15.75 8.7,0 15.75,7.05 15.75,15.75"
         style="fill:#ff804f;fill-opacity:1;fill-rule:nonzero;stroke:none"
         id="path2164" />
      <path
         d="m 2321.75,1691 c 0,8.7 -7.05,15.75 -15.75,15.75 -8.7,0 -15.75,-7.05 -15.75,-15.75 0,-8.7 7.05,-15.75 15.75,-15.75 8.7,0 15.75,7.05 15.75,15.75"
         style="fill:#ff804f;fill-opacity:1;fill-rule:nonzero;stroke:none"
         id="path2166" />
      <path
         d="m 2326.75,1694 c 0,8.7 -7.05,15.75 -15.75,15.75 -8.7,0 -15.75,-7.05 -15.75,-15.75 0,-8.7 7.05,-15.75 15.75,-15.75 8.7,0 15.75,7.05 15.75,15.75"
         style="fill:#ff804f;fill-opacity:1;fill-rule:nonzero;stroke:none"
         id="path2168" />
      <path
         d="m 2332.25,1697 c 0,8.7 -7.05,15.75 -15.75,15.75 -8.7,0 -15.75,-7.05 -15.75,-15.75 0,-8.7 7.05,-15.75 15.75,-15.75 8.7,0 15.75,7.05 15.75,15.75"
         style="fill:#ff804f;fill-opacity:1;fill-rule:nonzero;stroke:none"
         id="path2170" />
      <path
         d="m 2337.25,1699.5 c 0,8.7 -7.05,15.75 -15.75,15.75 -8.7,0 -15.75,-7.05 -15.75,-15.75 0,-8.7 7.05,-15.75 15.75,-15.75 8.7,0 15.75,7.05 15.75,15.75"
         style="fill:#ff804f;fill-opacity:1;fill-rule:nonzero;stroke:none"
         id="path2172" />
      <path
         d="m 2342.25,1702.5 c 0,8.7 -7.05,15.75 -15.75,15.75 -8.7,0 -15.75,-7.05 -15.75,-15.75 0,-8.7 7.05,-15.75 15.75,-15.75 8.7,0 15.75,7.05 15.75,15.75"
         style="fill:#ff804f;fill-opacity:1;fill-rule:nonzero;stroke:none"
         id="path2174" />
      <path
         d="m 2347.25,1705.5 c 0,8.7 -7.05,15.75 -15.75,15.75 -8.7,0 -15.75,-7.05 -15.75,-15.75 0,-8.7 7.05,-15.75 15.75,-15.75 8.7,0 15.75,7.05 15.75,15.75"
         style="fill:#ff804f;fill-opacity:1;fill-rule:nonzero;stroke:none"
         id="path2176" />
      <path
         d="m 2352.25,1708.5 c 0,8.7 -7.05,15.75 -15.75,15.75 -8.7,0 -15.75,-7.05 -15.75,-15.75 0,-8.7 7.05,-15.75 15.75,-15.75 8.7,0 15.75,7.05 15.75,15.75"
         style="fill:#ff804f;fill-opacity:1;fill-rule:nonzero;stroke:none"
         id="path2178" />
      <path
         d="m 2357.75,1711 c 0,8.7 -7.05,15.75 -15.75,15.75 -8.7,0 -15.75,-7.05 -15.75,-15.75 0,-8.7 7.05,-15.75 15.75,-15.75 8.7,0 15.75,7.05 15.75,15.75"
         style="fill:#ff804f;fill-opacity:1;fill-rule:nonzero;stroke:none"
         id="path2180" />
      <path
         d="m 2362.75,1714 c 0,8.7 -7.05,15.75 -15.75,15.75 -8.7,0 -15.75,-7.05 -15.75,-15.75 0,-8.7 7.05,-15.75 15.75,-15.75 8.7,0 15.75,7.05 15.75,15.75"
         style="fill:#ff804f;fill-opacity:1;fill-rule:nonzero;stroke:none"
         id="path2182" />
      <path
         d="m 2367.25,1716.5 c 0,8.7 -7.05,15.75 -15.75,15.75 -8.7,0 -15.75,-7.05 -15.75,-15.75 0,-8.7 7.05,-15.75 15.75,-15.75 8.7,0 15.75,7.05 15.75,15.75"
         style="fill:#ff804f;fill-opacity:1;fill-rule:nonzero;stroke:none"
         id="path2184" />
      <path
         d="m 2372.25,1719.5 c 0,8.7 -7.05,15.75 -15.75,15.75 -8.7,0 -15.75,-7.05 -15.75,-15.75 0,-8.7 7.05,-15.75 15.75,-15.75 8.7,0 15.75,7.05 15.75,15.75"
         style="fill:#ff804f;fill-opacity:1;fill-rule:nonzero;stroke:none"
         id="path2186" />
      <path
         d="m 2377.25,1722 c 0,8.7 -7.05,15.75 -15.75,15.75 -8.7,0 -15.75,-7.05 -15.75,-15.75 0,-8.7 7.05,-15.75 15.75,-15.75 8.7,0 15.75,7.05 15.75,15.75"
         style="fill:#ff804f;fill-opacity:1;fill-rule:nonzero;stroke:none"
         id="path2188" />
      <path
         d="m 2382.25,1724.5 c 0,8.7 -7.05,15.75 -15.75,15.75 -8.7,0 -15.75,-7.05 -15.75,-15.75 0,-8.7 7.05,-15.75 15.75,-15.75 8.7,0 15.75,7.05 15.75,15.75"
         style="fill:#ff804f;fill-opacity:1;fill-rule:nonzero;stroke:none"
         id="path2190" />
      <path
         d="m 2387.25,1727 c 0,8.7 -7.05,15.75 -15.75,15.75 -8.7,0 -15.75,-7.05 -15.75,-15.75 0,-8.7 7.05,-15.75 15.75,-15.75 8.7,0 15.75,7.05 15.75,15.75"
         style="fill:#ff804f;fill-opacity:1;fill-rule:nonzero;stroke:none"
         id="path2192" />
      <path
         d="m 2391.75,1730 c 0,8.7 -7.05,15.75 -15.75,15.75 -8.7,0 -15.75,-7.05 -15.75,-15.75 0,-8.7 7.05,-15.75 15.75,-15.75 8.7,0 15.75,7.05 15.75,15.75"
         style="fill:#ff804f;fill-opacity:1;fill-rule:nonzero;stroke:none"
         id="path2194" />
      <path
         d="m 2396.75,1732.5 c 0,8.7 -7.05,15.75 -15.75,15.75 -8.7,0 -15.75,-7.05 -15.75,-15.75 0,-8.7 7.05,-15.75 15.75,-15.75 8.7,0 15.75,7.05 15.75,15.75"
         style="fill:#ff804f;fill-opacity:1;fill-rule:nonzero;stroke:none"
         id="path2196" />
      <path
         d="m 2401.25,1735 c 0,8.7 -7.05,15.75 -15.75,15.75 -8.7,0 -15.75,-7.05 -15.75,-15.75 0,-8.7 7.05,-15.75 15.75,-15.75 8.7,0 15.75,7.05 15.75,15.75"
         style="fill:#ff804f;fill-opacity:1;fill-rule:nonzero;stroke:none"
         id="path2198" />
      <path
         d="m 2406.25,1737.5 c 0,8.7 -7.05,15.75 -15.75,15.75 -8.7,0 -15.75,-7.05 -15.75,-15.75 0,-8.7 7.05,-15.75 15.75,-15.75 8.7,0 15.75,7.05 15.75,15.75"
         style="fill:#ff804f;fill-opacity:1;fill-rule:nonzero;stroke:none"
         id="path2200" />
      <path
         d="m 2410.75,1740 c 0,8.7 -7.05,15.75 -15.75,15.75 -8.7,0 -15.75,-7.05 -15.75,-15.75 0,-8.7 7.05,-15.75 15.75,-15.75 8.7,0 15.75,7.05 15.75,15.75"
         style="fill:#ff804f;fill-opacity:1;fill-rule:nonzero;stroke:none"
         id="path2202" />
      <path
         d="m 2415.25,1742.5 c 0,8.7 -7.05,15.75 -15.75,15.75 -8.7,0 -15.75,-7.05 -15.75,-15.75 0,-8.7 7.05,-15.75 15.75,-15.75 8.7,0 15.75,7.05 15.75,15.75"
         style="fill:#ff804f;fill-opacity:1;fill-rule:nonzero;stroke:none"
         id="path2204" />
      <path
         d="m 2420.25,1745 c 0,8.7 -7.05,15.75 -15.75,15.75 -8.7,0 -15.75,-7.05 -15.75,-15.75 0,-8.7 7.05,-15.75 15.75,-15.75 8.7,0 15.75,7.05 15.75,15.75"
         style="fill:#ff804f;fill-opacity:1;fill-rule:nonzero;stroke:none"
         id="path2206" />
      <path
         d="m 2424.75,1747.5 c 0,8.7 -7.05,15.75 -15.75,15.75 -8.7,0 -15.75,-7.05 -15.75,-15.75 0,-8.7 7.05,-15.75 15.75,-15.75 8.7,0 15.75,7.05 15.75,15.75"
         style="fill:#ff804f;fill-opacity:1;fill-rule:nonzero;stroke:none"
         id="path2208" />
      <path
         d="m 2429.25,1750 c 0,8.7 -7.05,15.75 -15.75,15.75 -8.7,0 -15.75,-7.05 -15.75,-15.75 0,-8.7 7.05,-15.75 15.75,-15.75 8.7,0 15.75,7.05 15.75,15.75"
         style="fill:#ff804f;fill-opacity:1;fill-rule:nonzero;stroke:none"
         id="path2210" />
      <path
         d="m 2433.75,1752.5 c 0,8.7 -7.05,15.75 -15.75,15.75 -8.7,0 -15.75,-7.05 -15.75,-15.75 0,-8.7 7.05,-15.75 15.75,-15.75 8.7,0 15.75,7.05 15.75,15.75"
         style="fill:#ff804f;fill-opacity:1;fill-rule:nonzero;stroke:none"
         id="path2212" />
      <path
         d="m 2438.25,1755 c 0,8.7 -7.05,15.75 -15.75,15.75 -8.7,0 -15.75,-7.05 -15.75,-15.75 0,-8.7 7.05,-15.75 15.75,-15.75 8.7,0 15.75,7.05 15.75,15.75"
         style="fill:#ff804f;fill-opacity:1;fill-rule:nonzero;stroke:none"
         id="path2214" />
      <path
         d="m 2442.75,1757 c 0,8.7 -7.05,15.75 -15.75,15.75 -8.7,0 -15.75,-7.05 -15.75,-15.75 0,-8.7 7.05,-15.75 15.75,-15.75 8.7,0 15.75,7.05 15.75,15.75"
         style="fill:#ff804f;fill-opacity:1;fill-rule:nonzero;stroke:none"
         id="path2216" />
      <path
         d="m 2447.25,1759.5 c 0,8.7 -7.05,15.75 -15.75,15.75 -8.7,0 -15.75,-7.05 -15.75,-15.75 0,-8.7 7.05,-15.75 15.75,-15.75 8.7,0 15.75,7.05 15.75,15.75"
         style="fill:#ff804f;fill-opacity:1;fill-rule:nonzero;stroke:none"
         id="path2218" />
      <path
         d="m 2451.75,1761.5 c 0,8.7 -7.05,15.75 -15.75,15.75 -8.7,0 -15.75,-7.05 -15.75,-15.75 0,-8.7 7.05,-15.75 15.75,-15.75 8.7,0 15.75,7.05 15.75,15.75"
         style="fill:#ff804f;fill-opacity:1;fill-rule:nonzero;stroke:none"
         id="path2220" />
      <path
         d="m 2456.25,1764 c 0,8.7 -7.05,15.75 -15.75,15.75 -8.7,0 -15.75,-7.05 -15.75,-15.75 0,-8.7 7.05,-15.75 15.75,-15.75 8.7,0 15.75,7.05 15.75,15.75"
         style="fill:#ff804f;fill-opacity:1;fill-rule:nonzero;stroke:none"
         id="path2222" />
      <path
         d="m 2460.25,1766 c 0,8.7 -7.05,15.75 -15.75,15.75 -8.7,0 -15.75,-7.05 -15.75,-15.75 0,-8.7 7.05,-15.75 15.75,-15.75 8.7,0 15.75,7.05 15.75,15.75"
         style="fill:#ff804f;fill-opacity:1;fill-rule:nonzero;stroke:none"
         id="path2224" />
      <path
         d="m 2464.75,1768.5 c 0,8.7 -7.05,15.75 -15.75,15.75 -8.7,0 -15.75,-7.05 -15.75,-15.75 0,-8.7 7.05,-15.75 15.75,-15.75 8.7,0 15.75,7.05 15.75,15.75"
         style="fill:#ff804f;fill-opacity:1;fill-rule:nonzero;stroke:none"
         id="path2226" />
      <path
         d="m 2469.25,1770.5 c 0,8.7 -7.05,15.75 -15.75,15.75 -8.7,0 -15.75,-7.05 -15.75,-15.75 0,-8.7 7.05,-15.75 15.75,-15.75 8.7,0 15.75,7.05 15.75,15.75"
         style="fill:#ff804f;fill-opacity:1;fill-rule:nonzero;stroke:none"
         id="path2228" />
      <path
         d="m 2473.25,1773 c 0,8.7 -7.05,15.75 -15.75,15.75 -8.7,0 -15.75,-7.05 -15.75,-15.75 0,-8.7 7.05,-15.75 15.75,-15.75 8.7,0 15.75,7.05 15.75,15.75"
         style="fill:#ff804f;fill-opacity:1;fill-rule:nonzero;stroke:none"
         id="path2230" />
      <path
         d="m 2477.75,1775 c 0,8.7 -7.05,15.75 -15.75,15.75 -8.7,0 -15.75,-7.05 -15.75,-15.75 0,-8.7 7.05,-15.75 15.75,-15.75 8.7,0 15.75,7.05 15.75,15.75"
         style="fill:#ff804f;fill-opacity:1;fill-rule:nonzero;stroke:none"
         id="path2232" />
      <path
         d="m 2482.25,1777.5 c 0,8.7 -7.05,15.75 -15.75,15.75 -8.7,0 -15.75,-7.05 -15.75,-15.75 0,-8.7 7.05,-15.75 15.75,-15.75 8.7,0 15.75,7.05 15.75,15.75"
         style="fill:#ff804f;fill-opacity:1;fill-rule:nonzero;stroke:none"
         id="path2234" />
      <path
         d="m 2486.25,1779.5 c 0,8.7 -7.05,15.75 -15.75,15.75 -8.7,0 -15.75,-7.05 -15.75,-15.75 0,-8.7 7.05,-15.75 15.75,-15.75 8.7,0 15.75,7.05 15.75,15.75"
         style="fill:#ff804f;fill-opacity:1;fill-rule:nonzero;stroke:none"
         id="path2236" />
      <path
         d="m 2490.25,1781.5 c 0,8.7 -7.05,15.75 -15.75,15.75 -8.7,0 -15.75,-7.05 -15.75,-15.75 0,-8.7 7.05,-15.75 15.75,-15.75 8.7,0 15.75,7.05 15.75,15.75"
         style="fill:#ff804f;fill-opacity:1;fill-rule:nonzero;stroke:none"
         id="path2238" />
      <path
         d="m 2494.75,1783.5 c 0,8.7 -7.05,15.75 -15.75,15.75 -8.7,0 -15.75,-7.05 -15.75,-15.75 0,-8.7 7.05,-15.75 15.75,-15.75 8.7,0 15.75,7.05 15.75,15.75"
         style="fill:#ff804f;fill-opacity:1;fill-rule:nonzero;stroke:none"
         id="path2240" />
      <path
         d="m 2498.75,1786 c 0,8.7 -7.05,15.75 -15.75,15.75 -8.7,0 -15.75,-7.05 -15.75,-15.75 0,-8.7 7.05,-15.75 15.75,-15.75 8.7,0 15.75,7.05 15.75,15.75"
         style="fill:#ff804f;fill-opacity:1;fill-rule:nonzero;stroke:none"
         id="path2242" />
      <path
         d="m 2502.75,1788 c 0,8.7 -7.05,15.75 -15.75,15.75 -8.7,0 -15.75,-7.05 -15.75,-15.75 0,-8.7 7.05,-15.75 15.75,-15.75 8.7,0 15.75,7.05 15.75,15.75"
         style="fill:#ff804f;fill-opacity:1;fill-rule:nonzero;stroke:none"
         id="path2244" />
      <path
         d="m 2507.25,1790 c 0,8.7 -7.05,15.75 -15.75,15.75 -8.7,0 -15.75,-7.05 -15.75,-15.75 0,-8.7 7.05,-15.75 15.75,-15.75 8.7,0 15.75,7.05 15.75,15.75"
         style="fill:#ff804f;fill-opacity:1;fill-rule:nonzero;stroke:none"
         id="path2246" />
      <path
         d="m 2511.25,1792 c 0,8.7 -7.05,15.75 -15.75,15.75 -8.7,0 -15.75,-7.05 -15.75,-15.75 0,-8.7 7.05,-15.75 15.75,-15.75 8.7,0 15.75,7.05 15.75,15.75"
         style="fill:#ff804f;fill-opacity:1;fill-rule:nonzero;stroke:none"
         id="path2248" />
      <path
         d="m 2515.25,1794 c 0,8.7 -7.05,15.75 -15.75,15.75 -8.7,0 -15.75,-7.05 -15.75,-15.75 0,-8.7 7.05,-15.75 15.75,-15.75 8.7,0 15.75,7.05 15.75,15.75"
         style="fill:#ff804f;fill-opacity:1;fill-rule:nonzero;stroke:none"
         id="path2250" />
      <path
         d="m 2519.25,1796.5 c 0,8.7 -7.05,15.75 -15.75,15.75 -8.7,0 -15.75,-7.05 -15.75,-15.75 0,-8.7 7.05,-15.75 15.75,-15.75 8.7,0 15.75,7.05 15.75,15.75"
         style="fill:#ff804f;fill-opacity:1;fill-rule:nonzero;stroke:none"
         id="path2252" />
      <path
         d="m 2523.25,1798.5 c 0,8.7 -7.05,15.75 -15.75,15.75 -8.7,0 -15.75,-7.05 -15.75,-15.75 0,-8.7 7.05,-15.75 15.75,-15.75 8.7,0 15.75,7.05 15.75,15.75"
         style="fill:#ff804f;fill-opacity:1;fill-rule:nonzero;stroke:none"
         id="path2254" />
      <path
         d="m 2527.25,1800 c 0,8.7 -7.05,15.75 -15.75,15.75 -8.7,0 -15.75,-7.05 -15.75,-15.75 0,-8.7 7.05,-15.75 15.75,-15.75 8.7,0 15.75,7.05 15.75,15.75"
         style="fill:#ff804f;fill-opacity:1;fill-rule:nonzero;stroke:none"
         id="path2256" />
      <path
         d="m 2531.25,1802 c 0,8.7 -7.05,15.75 -15.75,15.75 -8.7,0 -15.75,-7.05 -15.75,-15.75 0,-8.7 7.05,-15.75 15.75,-15.75 8.7,0 15.75,7.05 15.75,15.75"
         style="fill:#ff804f;fill-opacity:1;fill-rule:nonzero;stroke:none"
         id="path2258" />
      <path
         d="m 2535.25,1804.5 c 0,8.7 -7.05,15.75 -15.75,15.75 -8.7,0 -15.75,-7.05 -15.75,-15.75 0,-8.7 7.05,-15.75 15.75,-15.75 8.7,0 15.75,7.05 15.75,15.75"
         style="fill:#ff804f;fill-opacity:1;fill-rule:nonzero;stroke:none"
         id="path2260" />
      <path
         d="m 2539.25,1806 c 0,8.7 -7.05,15.75 -15.75,15.75 -8.7,0 -15.75,-7.05 -15.75,-15.75 0,-8.7 7.05,-15.75 15.75,-15.75 8.7,0 15.75,7.05 15.75,15.75"
         style="fill:#ff804f;fill-opacity:1;fill-rule:nonzero;stroke:none"
         id="path2262" />
      <path
         d="m 2543.25,1808 c 0,8.7 -7.05,15.75 -15.75,15.75 -8.7,0 -15.75,-7.05 -15.75,-15.75 0,-8.7 7.05,-15.75 15.75,-15.75 8.7,0 15.75,7.05 15.75,15.75"
         style="fill:#ff804f;fill-opacity:1;fill-rule:nonzero;stroke:none"
         id="path2264" />
      <path
         d="m 2547.25,1810 c 0,8.7 -7.05,15.75 -15.75,15.75 -8.7,0 -15.75,-7.05 -15.75,-15.75 0,-8.7 7.05,-15.75 15.75,-15.75 8.7,0 15.75,7.05 15.75,15.75"
         style="fill:#ff804f;fill-opacity:1;fill-rule:nonzero;stroke:none"
         id="path2266" />
      <path
         d="m 2551.25,1812 c 0,8.7 -7.05,15.75 -15.75,15.75 -8.7,0 -15.75,-7.05 -15.75,-15.75 0,-8.7 7.05,-15.75 15.75,-15.75 8.7,0 15.75,7.05 15.75,15.75"
         style="fill:#ff804f;fill-opacity:1;fill-rule:nonzero;stroke:none"
         id="path2268" />
      <path
         d="m 2554.75,1814 c 0,8.7 -7.05,15.75 -15.75,15.75 -8.7,0 -15.75,-7.05 -15.75,-15.75 0,-8.7 7.05,-15.75 15.75,-15.75 8.7,0 15.75,7.05 15.75,15.75"
         style="fill:#ff804f;fill-opacity:1;fill-rule:nonzero;stroke:none"
         id="path2270" />
      <path
         d="m 2558.75,1816 c 0,8.7 -7.05,15.75 -15.75,15.75 -8.7,0 -15.75,-7.05 -15.75,-15.75 0,-8.7 7.05,-15.75 15.75,-15.75 8.7,0 15.75,7.05 15.75,15.75"
         style="fill:#ff804f;fill-opacity:1;fill-rule:nonzero;stroke:none"
         id="path2272" />
      <path
         d="m 2562.75,1818 c 0,8.7 -7.05,15.75 -15.75,15.75 -8.7,0 -15.75,-7.05 -15.75,-15.75 0,-8.7 7.05,-15.75 15.75,-15.75 8.7,0 15.75,7.05 15.75,15.75"
         style="fill:#ff804f;fill-opacity:1;fill-rule:nonzero;stroke:none"
         id="path2274" />
      <path
         d="m 2566.25,1820 c 0,8.7 -7.05,15.75 -15.75,15.75 -8.7,0 -15.75,-7.05 -15.75,-15.75 0,-8.7 7.05,-15.75 15.75,-15.75 8.7,0 15.75,7.05 15.75,15.75"
         style="fill:#ff804f;fill-opacity:1;fill-rule:nonzero;stroke:none"
         id="path2276" />
      <path
         d="m 2570.25,1821.5 c 0,8.7 -7.05,15.75 -15.75,15.75 -8.7,0 -15.75,-7.05 -15.75,-15.75 0,-8.7 7.05,-15.75 15.75,-15.75 8.7,0 15.75,7.05 15.75,15.75"
         style="fill:#ff804f;fill-opacity:1;fill-rule:nonzero;stroke:none"
         id="path2278" />
      <path
         d="m 2573.75,1823.5 c 0,8.7 -7.05,15.75 -15.75,15.75 -8.7,0 -15.75,-7.05 -15.75,-15.75 0,-8.7 7.05,-15.75 15.75,-15.75 8.7,0 15.75,7.05 15.75,15.75"
         style="fill:#ff804f;fill-opacity:1;fill-rule:nonzero;stroke:none"
         id="path2280" />
      <path
         d="m 2577.75,1825.5 c 0,8.7 -7.05,15.75 -15.75,15.75 -8.7,0 -15.75,-7.05 -15.75,-15.75 0,-8.7 7.05,-15.75 15.75,-15.75 8.7,0 15.75,7.05 15.75,15.75"
         style="fill:#ff804f;fill-opacity:1;fill-rule:nonzero;stroke:none"
         id="path2282" />
      <path
         d="m 2581.25,1827 c 0,8.7 -7.05,15.75 -15.75,15.75 -8.7,0 -15.75,-7.05 -15.75,-15.75 0,-8.7 7.05,-15.75 15.75,-15.75 8.7,0 15.75,7.05 15.75,15.75"
         style="fill:#ff804f;fill-opacity:1;fill-rule:nonzero;stroke:none"
         id="path2284" />
      <path
         d="m 2585.25,1829 c 0,8.7 -7.05,15.75 -15.75,15.75 -8.7,0 -15.75,-7.05 -15.75,-15.75 0,-8.7 7.05,-15.75 15.75,-15.75 8.7,0 15.75,7.05 15.75,15.75"
         style="fill:#ff804f;fill-opacity:1;fill-rule:nonzero;stroke:none"
         id="path2286" />
      <path
         d="m 2539.25,517 c 0,8.695 -7.05,15.75 -15.75,15.75 -8.7,0 -15.75,-7.055 -15.75,-15.75 0,-8.695 7.05,-15.75 15.75,-15.75 8.7,0 15.75,7.055 15.75,15.75"
         style="fill:#ff804f;fill-opacity:1;fill-rule:nonzero;stroke:none"
         id="path2288" />
      <path
         d="M 301,1913.5 V 294 h 2406.5 v 1619.5 z"
         style="fill:none;stroke:#000000;stroke-width:10;stroke-linecap:butt;stroke-linejoin:miter;stroke-miterlimit:3.8;stroke-dasharray:none;stroke-opacity:1"
         id="path2290" />
      <g
         id="g2292"
         transform="scale(10)">
        <text
           xml:space="preserve"
           transform="matrix(0,1,1,0,8.28516,97.3219)"
           style="font-variant:normal;font-weight:normal;font-size:7px;font-family:Helvetica;-inkscape-font-specification:Helvetica;writing-mode:lr-tb;fill:#000000;fill-opacity:1;fill-rule:nonzero;stroke:none"
           id="text2296"><tspan
             x="0 1.554 5.4460001"
             y="0"
             sodipodi:role="line"
             id="tspan2294">log</tspan></text>
        <text
           xml:space="preserve"
           transform="matrix(0,1,1,0,10.38516,106.65979)"
           style="font-variant:normal;font-weight:normal;font-size:5.6px;font-family:Helvetica;-inkscape-font-specification:Helvetica;writing-mode:lr-tb;fill:#000000;fill-opacity:1;fill-rule:nonzero;stroke:none"
           id="text2300"><tspan
             x="0 3.1136"
             y="0"
             sodipodi:role="line"
             id="tspan2298">10</tspan></text>
        <text
           xml:space="preserve"
           transform="matrix(0,1,1,0,8.28516,112.88713)"
           style="font-variant:normal;font-weight:normal;font-size:7px;font-family:Helvetica;-inkscape-font-specification:Helvetica;writing-mode:lr-tb;fill:#000000;fill-opacity:1;fill-rule:nonzero;stroke:none"
           id="text2304"><tspan
             x="0 2.3310001 8.1619997"
             y="0"
             sodipodi:role="line"
             id="tspan2302">(M)</tspan></text>
        <text
           xml:space="preserve"
           transform="matrix(1,0,0,-1,139.122,10.2648)"
           style="font-variant:normal;font-weight:normal;font-size:7px;font-family:Helvetica;-inkscape-font-specification:Helvetica;writing-mode:lr-tb;fill:#000000;fill-opacity:1;fill-rule:nonzero;stroke:none"
           id="text2308"><tspan
             x="0 1.554 5.4460001"
             y="0"
             sodipodi:role="line"
             id="tspan2306">log</tspan></text>
        <text
           xml:space="preserve"
           transform="matrix(1,0,0,-1,148.45989,8.1648)"
           style="font-variant:normal;font-weight:normal;font-size:5.6px;font-family:Helvetica;-inkscape-font-specification:Helvetica;writing-mode:lr-tb;fill:#000000;fill-opacity:1;fill-rule:nonzero;stroke:none"
           id="text2312"><tspan
             x="0 3.1136"
             y="0"
             sodipodi:role="line"
             id="tspan2310">10</tspan></text>
        <text
           xml:space="preserve"
           transform="matrix(1,0,0,-1,154.68723,10.2648)"
           style="font-variant:normal;font-weight:normal;font-size:7px;font-family:Helvetica;-inkscape-font-specification:Helvetica;writing-mode:lr-tb;fill:#000000;fill-opacity:1;fill-rule:nonzero;stroke:none"
           id="text2316"><tspan
             x="0 2.3310001 4.6620002"
             y="0"
             sodipodi:role="line"
             id="tspan2314">(r)</tspan></text>
      </g>
    </g>
    <path
       d="m 80.849833,130.21918 c 0.06189,0.38571 0.343203,0.73448 1.111752,1.39182 0.836065,0.71275 1.037486,0.98004 1.041987,1.39617 0,0.84096 -1.327801,0.93006 -1.529222,0.10211 -0.05288,-0.20753 -0.05739,-0.21187 -0.207047,-0.21187 -0.290316,0 -0.346579,0.0337 -0.320698,0.18253 0.07089,0.36941 0.316197,0.71276 0.615514,0.86596 0.228428,0.11408 0.650398,0.17384 0.945215,0.12277 0.671777,-0.10648 1.032984,-0.52261 0.996976,-1.14627 -0.02588,-0.53891 -0.245306,-0.83118 -1.229904,-1.66345 -0.483859,-0.40745 -0.716788,-0.6454 -0.716788,-0.7258 0,-0.0131 0.447852,-0.026 0.998102,-0.026 h 0.996976 v -0.45743 h -2.728744 z m -10.562766,3.93427 v 2.68259 h 0.75167 l 1.420072,-2.10132 1.420072,-2.09696 0.01238,2.09696 0.009,2.10132 h 0.681904 v -5.3652 h -0.373584 l -0.369084,0.004 -1.406568,2.07525 -1.403194,2.07958 -0.0079,-2.07958 -0.01351,-2.07959 h -0.721289 z m 5.570009,0 v 2.68259 h 0.724665 v -2.21975 h 2.804135 v 2.21975 h 0.72579 v -5.3652 h -0.72579 v 2.5131 h -2.804135 v -2.5131 h -0.724665 z m -4.589911,3.53116 c 0,0.0717 0.207046,2.12196 0.462479,4.55358 0.325198,3.15849 0.443351,4.43514 0.408468,4.46992 -0.02251,0.025 -1.727267,1.00068 -3.784234,2.16867 -2.061467,1.17127 -3.758351,2.13826 -3.776355,2.15999 -0.04389,0.038 0.193544,0.44547 0.250932,0.43244 0.02138,-0.003 1.748646,-0.98004 3.84162,-2.16433 3.419651,-1.93944 3.814616,-2.15565 3.890007,-2.10459 0.04839,0.025 2.223504,1.26471 4.83972,2.74997 l 4.750827,2.69456 v 9.0789 h 0.55475 l 0.0079,-4.37974 0.01351,-4.37647 0.3252,0.19122 0.329699,0.19124 0.3297,-0.19124 0.3342,-0.19122 0.009,4.37647 0.01238,4.37974 h 0.550249 v -9.08217 l 3.454534,-1.96116 c 1.902806,-1.07781 3.463534,-1.9655 3.472536,-1.97419 0.009,-0.003 -0.04389,-0.11408 -0.118151,-0.24555 l -0.137281,-0.2336 -0.136156,0.0804 c -0.611013,0.36507 -7.736128,4.40581 -7.771012,4.40581 -0.03038,0 -10.544762,-5.95083 -10.619029,-6.0095 -0.0045,-0.004 0.19692,-2.05894 0.447851,-4.56227 0.255434,-2.50876 0.452353,-4.56336 0.439976,-4.57531 -0.009,-0.0131 -0.550251,-0.0174 -1.200648,-0.0174 h -1.186019 z m 22.430831,6.16705 c -0.945215,0.20753 -1.613616,0.85726 -1.898305,1.85468 -0.128279,0.43678 -0.128279,1.256 0,1.73516 0.236303,0.88334 0.807933,1.50265 1.642872,1.77862 0.294817,0.0978 0.409593,0.11083 0.848442,0.11518 0.444476,0 0.554751,-0.0174 0.843941,-0.11518 0.589634,-0.19557 0.980098,-0.48784 1.283917,-0.94635 0.355579,-0.53456 0.523243,-1.21364 0.474857,-1.92313 -0.05288,-0.79315 -0.290315,-1.3614 -0.769674,-1.83294 -0.615514,-0.60736 -1.538224,-0.85727 -2.42605,-0.66604 z m 1.41107,0.73013 c 0.680779,0.31401 1.032984,0.9757 1.041987,1.95138 0.0045,0.75622 -0.163162,1.25275 -0.550251,1.6602 -0.373585,0.39875 -0.821435,0.56389 -1.409945,0.53022 -0.42197,-0.025 -0.672902,-0.10974 -1.007103,-0.34769 -0.496237,-0.35203 -0.698783,-0.82357 -0.729164,-1.69387 -0.02251,-0.63236 0.03038,-0.93766 0.232927,-1.33206 0.140657,-0.28033 0.535621,-0.65409 0.83944,-0.7899 0.456854,-0.20753 1.107251,-0.19558 1.582109,0.0217 z m 2.778253,1.97311 v 2.68261 h 0.720164 v -2.18172 h 2.808637 v 2.18172 h 0.72129 v -5.3652 h -0.72129 v 2.55547 h -2.804136 l -0.01351,-1.2647 -0.0079,-1.26904 -0.703285,-0.0261 z m -41.546664,2.09263 c -0.497362,0.10211 -0.892327,0.48785 -0.967719,0.94636 -0.02588,0.15319 0,0.16949 0.321823,0.19557 0.136156,0.0119 0.148534,0.003 0.19692,-0.1619 0.149658,-0.49218 0.615514,-0.72578 1.072368,-0.53456 0.607637,0.24555 0.707785,1.08216 0.176665,1.42985 -0.158661,0.10211 -0.216049,0.11517 -0.497363,0.11083 h -0.311696 l 0.0225,0.12277 c 0.01688,0.0685 0.02588,0.16189 0.02588,0.20427 0,0.063 0.03488,0.0804 0.18004,0.0804 0.223925,0 0.500739,0.11843 0.620016,0.26729 0.198044,0.24989 0.158661,0.63669 -0.09677,0.85725 -0.378086,0.32704 -1.007104,0.13147 -1.138758,-0.35638 -0.05288,-0.19991 -0.07427,-0.20752 -0.382588,-0.15754 -0.196919,0.0348 -0.196919,0.0771 -0.03488,0.41613 0.207047,0.42918 0.567128,0.64539 1.085871,0.64539 0.325198,0 0.518743,-0.0511 0.742668,-0.19992 0.594135,-0.3944 0.611014,-1.21363 0.0315,-1.56131 l -0.123779,-0.0761 0.163162,-0.0685 c 0.61889,-0.25423 0.786553,-1.09955 0.334202,-1.68083 -0.299319,-0.38571 -0.892328,-0.58563 -1.420073,-0.47916 z m 4.144315,1.38313 c -0.992475,0.14016 -1.625993,0.73449 -1.94219,1.82535 -0.08327,0.28031 -0.09677,0.43243 -0.09677,0.96373 0,0.73014 0.05739,0.98873 0.325198,1.4983 0.580632,1.09847 2.109854,1.56567 3.296997,1.00938 0.329701,-0.15646 0.720164,-0.5476 0.892328,-0.89529 0.205921,-0.42483 0.205921,-0.42049 -0.136155,-0.50958 -0.163162,-0.0424 -0.317323,-0.0761 -0.343204,-0.0761 -0.027,0 -0.09227,0.10647 -0.145158,0.23795 -0.145157,0.34768 -0.496237,0.68341 -0.822561,0.78446 -0.373585,0.11516 -0.984599,0.0815 -1.331176,-0.0761 -0.672903,-0.30096 -1.011605,-0.97135 -1.007104,-2.01548 0,-1.06153 0.369084,-1.76559 1.068992,-2.03722 0.342077,-0.13581 1.040862,-0.14016 1.331177,-0.008 0.400591,0.18253 0.716788,0.55521 0.866446,1.00936 0.03939,0.12387 0.09227,0.22166 0.113652,0.22166 0.07539,0 0.611012,-0.14016 0.64252,-0.16624 0.04389,-0.038 -0.132781,-0.51718 -0.281314,-0.76817 -0.250931,-0.42048 -0.695408,-0.76816 -1.173641,-0.91267 -0.317322,-0.0967 -0.887827,-0.13581 -1.258035,-0.0804 z m -10.056405,2.74671 v 2.70325 h 0.721289 v -2.2241 h 2.804136 l 0.01238,1.1039 0.01351,1.09846 0.347703,0.0131 0.35108,0.008 v -5.41193 l -0.35108,0.0131 -0.347703,0.0131 -0.01351,1.26905 -0.0079,1.26471 h -2.808636 v -2.55548 h -0.721289 z m 32.575007,9.6591 c -1.459456,0.17819 -2.382165,1.47332 -2.215628,3.09439 0.110275,1.04849 0.57163,1.76559 1.402068,2.17738 0.743793,0.36507 1.666503,0.34333 2.47106,-0.0597 0.302694,-0.14885 0.795556,-0.64104 0.966594,-0.96373 0.246431,-0.46178 0.329701,-0.84423 0.3252,-1.50591 0,-0.67147 -0.05738,-0.93875 -0.307195,-1.44724 -0.448978,-0.90833 -1.521345,-1.43094 -2.642099,-1.29513 z m 0.866446,0.64539 c 0.632393,0.16516 1.10275,0.66603 1.287291,1.37553 0.09227,0.35638 0.09227,1.09847 0,1.45484 -0.26781,1.00611 -1.08587,1.57545 -2.056965,1.42225 -1.050989,-0.16081 -1.582109,-0.89964 -1.586611,-2.17738 0,-0.74643 0.166539,-1.21797 0.57163,-1.61673 0.465856,-0.45851 1.120754,-0.628 1.784655,-0.45851 z"
       style="fill:#000000;fill-opacity:1;fill-rule:nonzero;stroke:none;stroke-width:1.10572"
       id="path3053" />
    <text
       xml:space="preserve"
       transform="scale(0.88229995,-1.1334014)"
       style="font-variant:normal;font-weight:bold;font-size:9.24262px;font-family:'Noto Sans';-inkscape-font-specification:NotoSans-Bold;writing-mode:lr-tb;fill:#000000;fill-opacity:1;fill-rule:nonzero;stroke:none;stroke-width:0.8823"
       id="text3057"
       x="66.254898"
       y="-102.91351"><tspan
         x="66.254898 72.632301 75.451302 81.033836 87.106232 89.925224 95.997627"
         y="-102.91351"
         sodipodi:role="line"
         id="tspan3055"
         style="stroke-width:0.8823">Alanina</tspan></text>
  </g>
</svg>
