<?xml version="1.0" encoding="UTF-8" standalone="no"?>
<!-- Created with Inkscape (http://www.inkscape.org/) -->

<svg
   version="1.1"
   id="svg2"
   width="377.33334"
   height="264"
   viewBox="0 0 377.33334 264"
   sodipodi:docname="TubMut-Mvsr.svg"
   inkscape:version="1.2.2 (b0a8486541, 2022-12-01)"
   xmlns:inkscape="http://www.inkscape.org/namespaces/inkscape"
   xmlns:sodipodi="http://sodipodi.sourceforge.net/DTD/sodipodi-0.dtd"
   xmlns="http://www.w3.org/2000/svg"
   xmlns:svg="http://www.w3.org/2000/svg">
  <defs
     id="defs6" />
  <sodipodi:namedview
     id="namedview4"
     pagecolor="#ffffff"
     bordercolor="#cccccc"
     borderopacity="1"
     inkscape:showpageshadow="0"
     inkscape:pageopacity="1"
     inkscape:pagecheckerboard="0"
     inkscape:deskcolor="#d1d1d1"
     showgrid="false"
     showguides="true"
     inkscape:zoom="2.0650732"
     inkscape:cx="209.43567"
     inkscape:cy="75.057872"
     inkscape:window-width="1920"
     inkscape:window-height="940"
     inkscape:window-x="0"
     inkscape:window-y="32"
     inkscape:window-maximized="1"
     inkscape:current-layer="g10">
    <inkscape:page
       x="0"
       y="0"
       id="page8"
       width="377.33334"
       height="264" />
    <sodipodi:guide
       position="57.661135,255.06688"
       orientation="1,0"
       id="guide5125"
       inkscape:locked="false" />
  </sodipodi:namedview>
  <g
     id="g10"
     inkscape:groupmode="layer"
     inkscape:label="Page 1"
     transform="matrix(1.3333333,0,0,-1.3333333,0,264)">
    <g
       id="g12"
       transform="scale(0.1)">
      <path
         d="m 301,294 h 63"
         style="fill:none;stroke:#000000;stroke-width:5;stroke-linecap:butt;stroke-linejoin:miter;stroke-miterlimit:3.8;stroke-dasharray:none;stroke-opacity:1"
         id="path14" />
      <g
         id="g16"
         transform="scale(10)">
        <text
           xml:space="preserve"
           transform="matrix(1,0,0,-1,15.0031,26.3648)"
           style="font-variant:normal;font-weight:normal;font-size:7px;font-family:Helvetica;-inkscape-font-specification:Helvetica;writing-mode:lr-tb;fill:#000000;fill-opacity:1;fill-rule:nonzero;stroke:none"
           id="text20"><tspan
             x="0 3.892"
             y="0"
             sodipodi:role="line"
             id="tspan18">10</tspan></text>
        <text
           xml:space="preserve"
           transform="matrix(1,0,0,-1,22.78708,29.8648)"
           style="font-variant:normal;font-weight:normal;font-size:5.6px;font-family:Helvetica;-inkscape-font-specification:Helvetica;writing-mode:lr-tb;fill:#000000;fill-opacity:1;fill-rule:nonzero;stroke:none"
           id="text24"><tspan
             x="0"
             y="0"
             id="tspan22">0</tspan></text>
      </g>
      <path
         d="m 301,406.5 h 31.5 M 301,472 h 31.5 M 301,518.5 h 31.5 m -31.5,36 h 31.5 M 301,584 h 31.5 M 301,609 h 31.5 M 301,631 h 31.5 M 301,650 h 31.5 M 301,667 h 63"
         style="fill:none;stroke:#000000;stroke-width:5;stroke-linecap:butt;stroke-linejoin:miter;stroke-miterlimit:3.8;stroke-dasharray:none;stroke-opacity:1"
         id="path26" />
      <g
         id="g28"
         transform="scale(10)">
        <text
           xml:space="preserve"
           transform="matrix(1,0,0,-1,15.0031,63.6648)"
           style="font-variant:normal;font-weight:normal;font-size:7px;font-family:Helvetica;-inkscape-font-specification:Helvetica;writing-mode:lr-tb;fill:#000000;fill-opacity:1;fill-rule:nonzero;stroke:none"
           id="text32"><tspan
             x="0 3.892"
             y="0"
             sodipodi:role="line"
             id="tspan30">10</tspan></text>
        <text
           xml:space="preserve"
           transform="matrix(1,0,0,-1,22.78708,67.1648)"
           style="font-variant:normal;font-weight:normal;font-size:5.6px;font-family:Helvetica;-inkscape-font-specification:Helvetica;writing-mode:lr-tb;fill:#000000;fill-opacity:1;fill-rule:nonzero;stroke:none"
           id="text36"><tspan
             x="0"
             y="0"
             id="tspan34">1</tspan></text>
      </g>
      <path
         d="m 301,779 h 31.5 M 301,845 h 31.5 M 301,891.5 h 31.5 m -31.5,36 h 31.5 M 301,957 h 31.5 M 301,982 h 31.5 m -31.5,22 h 31.5 m -31.5,19 h 31.5 m -31.5,17 h 63"
         style="fill:none;stroke:#000000;stroke-width:5;stroke-linecap:butt;stroke-linejoin:miter;stroke-miterlimit:3.8;stroke-dasharray:none;stroke-opacity:1"
         id="path38" />
      <g
         id="g40"
         transform="scale(10)">
        <text
           xml:space="preserve"
           transform="matrix(1,0,0,-1,15.0031,100.965)"
           style="font-variant:normal;font-weight:normal;font-size:7px;font-family:Helvetica;-inkscape-font-specification:Helvetica;writing-mode:lr-tb;fill:#000000;fill-opacity:1;fill-rule:nonzero;stroke:none"
           id="text44"><tspan
             x="0 3.892"
             y="0"
             sodipodi:role="line"
             id="tspan42">10</tspan></text>
        <text
           xml:space="preserve"
           transform="matrix(1,0,0,-1,22.78708,104.465)"
           style="font-variant:normal;font-weight:normal;font-size:5.6px;font-family:Helvetica;-inkscape-font-specification:Helvetica;writing-mode:lr-tb;fill:#000000;fill-opacity:1;fill-rule:nonzero;stroke:none"
           id="text48"><tspan
             x="0"
             y="0"
             id="tspan46">2</tspan></text>
      </g>
      <path
         d="m 301,1152 h 31.5 m -31.5,66 h 31.5 m -31.5,46.5 h 31.5 m -31.5,36 h 31.5 M 301,1330 h 31.5 m -31.5,25 h 31.5 m -31.5,21.5 h 31.5 M 301,1396 h 31.5 m -31.5,17 h 63"
         style="fill:none;stroke:#000000;stroke-width:5;stroke-linecap:butt;stroke-linejoin:miter;stroke-miterlimit:3.8;stroke-dasharray:none;stroke-opacity:1"
         id="path50" />
      <g
         id="g52"
         transform="scale(10)">
        <text
           xml:space="preserve"
           transform="matrix(1,0,0,-1,15.0031,138.265)"
           style="font-variant:normal;font-weight:normal;font-size:7px;font-family:Helvetica;-inkscape-font-specification:Helvetica;writing-mode:lr-tb;fill:#000000;fill-opacity:1;fill-rule:nonzero;stroke:none"
           id="text56"><tspan
             x="0 3.892"
             y="0"
             sodipodi:role="line"
             id="tspan54">10</tspan></text>
        <text
           xml:space="preserve"
           transform="matrix(1,0,0,-1,22.78708,141.765)"
           style="font-variant:normal;font-weight:normal;font-size:5.6px;font-family:Helvetica;-inkscape-font-specification:Helvetica;writing-mode:lr-tb;fill:#000000;fill-opacity:1;fill-rule:nonzero;stroke:none"
           id="text60"><tspan
             x="0"
             y="0"
             id="tspan58">3</tspan></text>
      </g>
      <path
         d="m 301,1525 h 31.5 m -31.5,66 h 31.5 m -31.5,46.5 h 31.5 m -31.5,36 h 31.5 M 301,1703 h 31.5 m -31.5,25 h 31.5 m -31.5,21.5 h 31.5 m -31.5,19 h 31.5 M 301,1786 h 63"
         style="fill:none;stroke:#000000;stroke-width:5;stroke-linecap:butt;stroke-linejoin:miter;stroke-miterlimit:3.8;stroke-dasharray:none;stroke-opacity:1"
         id="path62" />
      <g
         id="g64"
         transform="scale(10)">
        <text
           xml:space="preserve"
           transform="matrix(1,0,0,-1,15.0031,175.565)"
           style="font-variant:normal;font-weight:normal;font-size:7px;font-family:Helvetica;-inkscape-font-specification:Helvetica;writing-mode:lr-tb;fill:#000000;fill-opacity:1;fill-rule:nonzero;stroke:none"
           id="text68"><tspan
             x="0 3.892"
             y="0"
             sodipodi:role="line"
             id="tspan66">10</tspan></text>
        <text
           xml:space="preserve"
           transform="matrix(1,0,0,-1,22.78708,179.065)"
           style="font-variant:normal;font-weight:normal;font-size:5.6px;font-family:Helvetica;-inkscape-font-specification:Helvetica;writing-mode:lr-tb;fill:#000000;fill-opacity:1;fill-rule:nonzero;stroke:none"
           id="text72"><tspan
             x="0"
             y="0"
             id="tspan70">4</tspan></text>
      </g>
      <path
         d="m 301,1898 h 31.5 M 301,294 v 63"
         style="fill:none;stroke:#000000;stroke-width:5;stroke-linecap:butt;stroke-linejoin:miter;stroke-miterlimit:3.8;stroke-dasharray:none;stroke-opacity:1"
         id="path74" />
      <g
         id="g76"
         transform="scale(10)">
        <text
           xml:space="preserve"
           transform="matrix(1,0,0,-1,24.6516,19.3648)"
           style="font-variant:normal;font-weight:normal;font-size:7px;font-family:Helvetica;-inkscape-font-specification:Helvetica;writing-mode:lr-tb;fill:#000000;fill-opacity:1;fill-rule:nonzero;stroke:none"
           id="text80"><tspan
             x="0 3.892"
             y="0"
             sodipodi:role="line"
             id="tspan78">10</tspan></text>
        <text
           xml:space="preserve"
           transform="matrix(1,0,0,-1,32.43558,22.8648)"
           style="font-variant:normal;font-weight:normal;font-size:5.6px;font-family:Helvetica;-inkscape-font-specification:Helvetica;writing-mode:lr-tb;fill:#000000;fill-opacity:1;fill-rule:nonzero;stroke:none"
           id="text84"><tspan
             x="0"
             y="0"
             id="tspan82">0</tspan></text>
      </g>
      <path
         d="m 826,294 v 31.5 M 1133,294 v 31.5 M 1350.5,294 v 31.5 m 169,-31.5 v 31.5 M 1658,294 v 31.5 M 1774.5,294 v 31.5 m 101,-31.5 v 31.5 M 1965,294 v 31.5 m 79.5,-31.5 v 63"
         style="fill:none;stroke:#000000;stroke-width:5;stroke-linecap:butt;stroke-linejoin:miter;stroke-miterlimit:3.8;stroke-dasharray:none;stroke-opacity:1"
         id="path86" />
      <g
         id="g88"
         transform="scale(10)">
        <text
           xml:space="preserve"
           transform="matrix(1,0,0,-1,199.002,19.3648)"
           style="font-variant:normal;font-weight:normal;font-size:7px;font-family:Helvetica;-inkscape-font-specification:Helvetica;writing-mode:lr-tb;fill:#000000;fill-opacity:1;fill-rule:nonzero;stroke:none"
           id="text92"><tspan
             x="0 3.892"
             y="0"
             sodipodi:role="line"
             id="tspan90">10</tspan></text>
        <text
           xml:space="preserve"
           transform="matrix(1,0,0,-1,206.78598,22.8648)"
           style="font-variant:normal;font-weight:normal;font-size:5.6px;font-family:Helvetica;-inkscape-font-specification:Helvetica;writing-mode:lr-tb;fill:#000000;fill-opacity:1;fill-rule:nonzero;stroke:none"
           id="text96"><tspan
             x="0"
             y="0"
             id="tspan94">1</tspan></text>
      </g>
      <path
         d="m 2569.5,294 v 31.5"
         style="fill:none;stroke:#000000;stroke-width:5;stroke-linecap:butt;stroke-linejoin:miter;stroke-miterlimit:3.8;stroke-dasharray:none;stroke-opacity:1"
         id="path98" />
      <path
         d="M 301,1913.5 V 294 h 2406.5 v 1619.5 z"
         style="fill:none;stroke:#000000;stroke-width:10;stroke-linecap:butt;stroke-linejoin:miter;stroke-miterlimit:3.8;stroke-dasharray:none;stroke-opacity:1"
         id="path100" />
      <g
         id="g102"
         transform="scale(10)">
        <text
           xml:space="preserve"
           transform="matrix(1,0,0,-1,42.5,175.5)"
           style="font-variant:normal;font-weight:normal;font-size:9px;font-family:Helvetica;-inkscape-font-specification:Helvetica;writing-mode:lr-tb;fill:#000000;fill-opacity:1;fill-rule:nonzero;stroke:none"
           id="text106"><tspan
             x="0 7.4970002 12.501 15.003 20.007 25.011 30.014999 32.516998 35.514 41.516998 43.514999 48.519001 53.522999 58.527 63.530998 69.029999 74.033997 77.030998 80.028 82.529999 87.786003 90.288002 96.786003 98.783997 103.788 108.792 116.289 118.287 122.787 127.791 130.293 135.297 140.30099 142.80299 147.80701 152.811 157.815"
             y="0"
             sodipodi:role="line"
             id="tspan104">Mutada (Ala302Thr) − Dinámica de 10ns</tspan></text>
        <text
           xml:space="preserve"
           transform="matrix(1,0,0,-1,197.919,85.0648)"
           style="font-variant:normal;font-weight:normal;font-size:7px;font-family:Helvetica;-inkscape-font-specification:Helvetica;writing-mode:lr-tb;fill:#000000;fill-opacity:1;fill-rule:nonzero;stroke:none"
           id="text110"><tspan
             x="0"
             y="0"
             id="tspan108">b</tspan></text>
        <text
           xml:space="preserve"
           transform="matrix(1,0,0,-1,201.81119,82.9648)"
           style="font-variant:normal;font-weight:normal;font-size:5.6px;font-family:Helvetica;-inkscape-font-specification:Helvetica;writing-mode:lr-tb;fill:#000000;fill-opacity:1;fill-rule:nonzero;stroke:none"
           id="text114"><tspan
             x="0"
             y="0"
             id="tspan112">1</tspan></text>
        <text
           xml:space="preserve"
           transform="matrix(1,0,0,-1,206.87086,85.0648)"
           style="font-variant:normal;font-weight:normal;font-size:7px;font-family:Helvetica;-inkscape-font-specification:Helvetica;writing-mode:lr-tb;fill:#000000;fill-opacity:1;fill-rule:nonzero;stroke:none"
           id="text118"><tspan
             x="0 4.0879998 6.0339999 9.9259996 11.872 15.764 19.656 23.548 27.440001"
             y="0"
             sodipodi:role="line"
             id="tspan116">= 1.53332</tspan></text>
      </g>
      <path
         d="m 2424,867 h 199.5 M 301,681 l 24.5,8 24,8 24.5,8 24,8 24.5,7.5 24.5,8 24,8 24.5,8 24.5,8 24,8 24.5,8 24,8 24.5,8 24.5,8 24,8 24.5,8 24,8 24.5,8 24.5,8 24,8 24.5,8 24.5,8 24,7.5 24.5,8 24,8 24.5,8 24.5,8 24,8 24.5,8 24,8 24.5,8 24.5,8 24,8 24.5,8 24.5,8 24,8 24.5,8 24,8 24.5,8 24.5,8 24,8 24.5,7.5 24,8 24.5,8 24.5,8 24,8 24.5,8 24.5,8 24,8 24.5,8 24,8 24.5,8 24.5,8 24,8 24.5,8 24.5,8 24,8 24.5,8 24,8 24.5,7.5 24.5,8 24,8 24.5,8 24,8 24.5,8 24.5,8 24,8 24.5,8 24.5,8 24,8 24.5,8 24,8 24.5,8 24.5,8 24,8 24.5,8 24,8 24.5,7.5 24.5,8 24,8 24.5,8 24.5,8 24,8 24.5,8 24,8 24.5,8 24.5,8 24,8 24.5,8 24,8 24.5,8 24.5,8 24,8 24.5,8 24.5,8 24,7.5 24.5,8 24,8 24.5,8"
         style="fill:none;stroke:#4069e1;stroke-width:8.5;stroke-linecap:butt;stroke-linejoin:miter;stroke-miterlimit:3.8;stroke-dasharray:none;stroke-opacity:1"
         id="path120" />
      <g
         id="g122"
         transform="scale(10)">
        <text
           xml:space="preserve"
           transform="matrix(1,0,0,-1,197.919,78.0648)"
           style="font-variant:normal;font-weight:normal;font-size:7px;font-family:Helvetica;-inkscape-font-specification:Helvetica;writing-mode:lr-tb;fill:#000000;fill-opacity:1;fill-rule:nonzero;stroke:none"
           id="text126"><tspan
             x="0"
             y="0"
             id="tspan124">b</tspan></text>
        <text
           xml:space="preserve"
           transform="matrix(1,0,0,-1,201.81119,75.9648)"
           style="font-variant:normal;font-weight:normal;font-size:5.6px;font-family:Helvetica;-inkscape-font-specification:Helvetica;writing-mode:lr-tb;fill:#000000;fill-opacity:1;fill-rule:nonzero;stroke:none"
           id="text130"><tspan
             x="0"
             y="0"
             id="tspan128">2</tspan></text>
        <text
           xml:space="preserve"
           transform="matrix(1,0,0,-1,206.87086,78.0648)"
           style="font-variant:normal;font-weight:normal;font-size:7px;font-family:Helvetica;-inkscape-font-specification:Helvetica;writing-mode:lr-tb;fill:#000000;fill-opacity:1;fill-rule:nonzero;stroke:none"
           id="text134"><tspan
             x="0 4.0879998 6.0339999 9.9259996 11.872 15.764 19.656 23.548 27.440001"
             y="0"
             sodipodi:role="line"
             id="tspan132">= 2.74158</tspan></text>
      </g>
      <path
         d="m 2424,797 h 199.5 M 301,527.5 l 24.5,14.5 24,14 24.5,14.5 24,14 24.5,14.5 24.5,14 24,14.5 24.5,14 24.5,14.5 24,14.5 24.5,14 24,14.5 24.5,14 24.5,14.5 24,14 24.5,14.5 24,14 24.5,14.5 24.5,14 24,14.5 24.5,14 24.5,14.5 24,14 24.5,14.5 24,14 24.5,14.5 24.5,14 24,14.5 24.5,14 24,14.5 24.5,14 24.5,14.5 24,14 24.5,14.5 24.5,14 24,14.5 24.5,14 24,14.5 24.5,14 24.5,14.5 24,14 24.5,14.5 24,14 24.5,14.5 24.5,14 24,14.5 24.5,14 24.5,14.5 24,14 24.5,14.5 24,14 24.5,14.5 24.5,14 24,14.5 24.5,14 24.5,14.5 24,14 24.5,14.5 24,14 24.5,14.5 24.5,14.5 24,14 24.5,14.5 24,14 24.5,14.5 24.5,14 24,14.5 24.5,14 24.5,14.5 24,14 24.5,14.5 24,14 24.5,14.5 24.5,14 24,14.5 24.5,14 24,14.5 24.5,14 24.5,14.5 24,14 24.5,14.5 24.5,14 24,14.5 24.5,14 24,14.5 24.5,14 24.5,14.5 24,14 24.5,14.5 24,14 24.5,14.5 24.5,14 24,14.5 24.5,14 24.5,14.5 24,14 24.5,14.5 5,3"
         style="fill:none;stroke:#000000;stroke-width:8.5;stroke-linecap:butt;stroke-linejoin:miter;stroke-miterlimit:3.8;stroke-dasharray:none;stroke-opacity:1"
         id="path136" />
      <g
         id="g138"
         transform="scale(10)">
        <text
           xml:space="preserve"
           transform="matrix(1,0,0,-1,197.919,71.0648)"
           style="font-variant:normal;font-weight:normal;font-size:7px;font-family:Helvetica;-inkscape-font-specification:Helvetica;writing-mode:lr-tb;fill:#000000;fill-opacity:1;fill-rule:nonzero;stroke:none"
           id="text142"><tspan
             x="0"
             y="0"
             id="tspan140">b</tspan></text>
        <text
           xml:space="preserve"
           transform="matrix(1,0,0,-1,201.81119,68.9648)"
           style="font-variant:normal;font-weight:normal;font-size:5.6px;font-family:Helvetica;-inkscape-font-specification:Helvetica;writing-mode:lr-tb;fill:#000000;fill-opacity:1;fill-rule:nonzero;stroke:none"
           id="text146"><tspan
             x="0"
             y="0"
             id="tspan144">3</tspan></text>
        <text
           xml:space="preserve"
           transform="matrix(1,0,0,-1,206.87086,71.0648)"
           style="font-variant:normal;font-weight:normal;font-size:7px;font-family:Helvetica;-inkscape-font-specification:Helvetica;writing-mode:lr-tb;fill:#000000;fill-opacity:1;fill-rule:nonzero;stroke:none"
           id="text150"><tspan
             x="0 4.0879998 6.0339999 9.9259996 11.872 15.764 19.656 23.548 27.440001"
             y="0"
             sodipodi:role="line"
             id="tspan148">= 2.84393</tspan></text>
      </g>
      <path
         d="m 2424,727 h 199.5 M 301,510 l 24.5,14.5 24,15 24.5,14.5 24,15 24.5,14.5 24.5,15 24,15 24.5,14.5 24.5,15 24,14.5 24.5,15 24,14.5 24.5,15 24.5,15 24,14.5 24.5,15 24,14.5 24.5,15 24.5,14.5 24,15 24.5,15 24.5,14.5 24,15 24.5,14.5 24,15 24.5,15 24.5,14.5 24,15 24.5,14.5 24,15 24.5,14.5 24.5,15 24,15 24.5,14.5 24.5,15 24,14.5 24.5,15 24,14.5 24.5,15 24.5,15 24,14.5 24.5,15 24,14.5 24.5,15 24.5,14.5 24,15 24.5,15 24.5,14.5 24,15 24.5,14.5 24,15 24.5,14.5 24.5,15 24,15 24.5,14.5 24.5,15 24,14.5 24.5,15 24,14.5 24.5,15 24.5,15 24,14.5 24.5,15 24,14.5 24.5,15 24.5,14.5 24,15 24.5,15 24.5,14.5 24,15 24.5,14.5 24,15 24.5,14.5 24.5,15 24,15 24.5,14.5 24,15 24.5,14.5 24.5,15 24,15 24.5,14.5 24.5,15 24,14.5 24.5,15 24,14.5 24.5,15 24.5,15 24,14.5 24.5,15 24,14.5 24.5,15 24.5,14.5 24,15 24.5,15 22.5,13.5"
         style="fill:none;stroke:#ff804f;stroke-width:8.5;stroke-linecap:butt;stroke-linejoin:miter;stroke-miterlimit:3.8;stroke-dasharray:none;stroke-opacity:1"
         id="path152" />
      <g
         id="g154"
         transform="scale(10)">
        <text
           xml:space="preserve"
           transform="matrix(1,0,0,-1,215.052,63.3648)"
           style="font-variant:normal;font-weight:normal;font-size:7px;font-family:Helvetica;-inkscape-font-specification:Helvetica;writing-mode:lr-tb;fill:#000000;fill-opacity:1;fill-rule:nonzero;stroke:none"
           id="text158"><tspan
             x="0 3.892 7.98 11.872 13.818 16.149 20.818001"
             y="0"
             sodipodi:role="line"
             id="tspan156">1−2 (Å)</tspan></text>
      </g>
      <path
         d="m 505.75,746.5 c 0,8.695 -7.055,15.75 -15.75,15.75 -8.695,0 -15.75,-7.055 -15.75,-15.75 0,-8.695 7.055,-15.75 15.75,-15.75 8.695,0 15.75,7.055 15.75,15.75"
         style="fill:#4069e1;fill-opacity:1;fill-rule:nonzero;stroke:none"
         id="path160" />
      <path
         d="m 561.75,763.5 c 0,8.695 -7.055,15.75 -15.75,15.75 -8.695,0 -15.75,-7.055 -15.75,-15.75 0,-8.695 7.055,-15.75 15.75,-15.75 8.695,0 15.75,7.055 15.75,15.75"
         style="fill:#4069e1;fill-opacity:1;fill-rule:nonzero;stroke:none"
         id="path162" />
      <path
         d="m 613.75,787 c 0,8.695 -7.055,15.75 -15.75,15.75 -8.695,0 -15.75,-7.055 -15.75,-15.75 0,-8.695 7.055,-15.75 15.75,-15.75 8.695,0 15.75,7.055 15.75,15.75"
         style="fill:#4069e1;fill-opacity:1;fill-rule:nonzero;stroke:none"
         id="path164" />
      <path
         d="m 662.25,820.5 c 0,8.695 -7.055,15.75 -15.75,15.75 -8.695,0 -15.75,-7.055 -15.75,-15.75 0,-8.695 7.055,-15.75 15.75,-15.75 8.695,0 15.75,7.055 15.75,15.75"
         style="fill:#4069e1;fill-opacity:1;fill-rule:nonzero;stroke:none"
         id="path166" />
      <path
         d="m 707.75,823 c 0,8.695 -7.055,15.75 -15.75,15.75 -8.695,0 -15.75,-7.055 -15.75,-15.75 0,-8.695 7.055,-15.75 15.75,-15.75 8.695,0 15.75,7.055 15.75,15.75"
         style="fill:#4069e1;fill-opacity:1;fill-rule:nonzero;stroke:none"
         id="path168" />
      <path
         d="m 750.75,824.5 c 0,8.695 -7.055,15.75 -15.75,15.75 -8.695,0 -15.75,-7.055 -15.75,-15.75 0,-8.695 7.055,-15.75 15.75,-15.75 8.695,0 15.75,7.055 15.75,15.75"
         style="fill:#4069e1;fill-opacity:1;fill-rule:nonzero;stroke:none"
         id="path170" />
      <path
         d="m 791.25,832 c 0,8.695 -7.055,15.75 -15.75,15.75 -8.695,0 -15.75,-7.055 -15.75,-15.75 0,-8.695 7.055,-15.75 15.75,-15.75 8.695,0 15.75,7.055 15.75,15.75"
         style="fill:#4069e1;fill-opacity:1;fill-rule:nonzero;stroke:none"
         id="path172" />
      <path
         d="m 830.25,835.5 c 0,8.695 -7.055,15.75 -15.75,15.75 -8.695,0 -15.75,-7.055 -15.75,-15.75 0,-8.695 7.055,-15.75 15.75,-15.75 8.695,0 15.75,7.055 15.75,15.75"
         style="fill:#4069e1;fill-opacity:1;fill-rule:nonzero;stroke:none"
         id="path174" />
      <path
         d="m 866.75,846 c 0,8.695 -7.055,15.75 -15.75,15.75 -8.695,0 -15.75,-7.055 -15.75,-15.75 0,-8.695 7.055,-15.75 15.75,-15.75 8.695,0 15.75,7.055 15.75,15.75"
         style="fill:#4069e1;fill-opacity:1;fill-rule:nonzero;stroke:none"
         id="path176" />
      <path
         d="m 901.75,873 c 0,8.695 -7.055,15.75 -15.75,15.75 -8.695,0 -15.75,-7.055 -15.75,-15.75 0,-8.695 7.055,-15.75 15.75,-15.75 8.695,0 15.75,7.055 15.75,15.75"
         style="fill:#4069e1;fill-opacity:1;fill-rule:nonzero;stroke:none"
         id="path178" />
      <path
         d="m 935.25,894 c 0,8.695 -7.055,15.75 -15.75,15.75 -8.695,0 -15.75,-7.055 -15.75,-15.75 0,-8.695 7.055,-15.75 15.75,-15.75 8.695,0 15.75,7.055 15.75,15.75"
         style="fill:#4069e1;fill-opacity:1;fill-rule:nonzero;stroke:none"
         id="path180" />
      <path
         d="m 2539.25,657 c 0,8.695 -7.05,15.75 -15.75,15.75 -8.7,0 -15.75,-7.055 -15.75,-15.75 0,-8.695 7.05,-15.75 15.75,-15.75 8.7,0 15.75,7.055 15.75,15.75"
         style="fill:#4069e1;fill-opacity:1;fill-rule:nonzero;stroke:none"
         id="path182" />
      <g
         id="g184"
         transform="scale(10)">
        <text
           xml:space="preserve"
           transform="matrix(1,0,0,-1,215.052,56.3648)"
           style="font-variant:normal;font-weight:normal;font-size:7px;font-family:Helvetica;-inkscape-font-specification:Helvetica;writing-mode:lr-tb;fill:#000000;fill-opacity:1;fill-rule:nonzero;stroke:none"
           id="text188"><tspan
             x="0 3.892 7.98 11.872 13.818 16.149 20.818001"
             y="0"
             sodipodi:role="line"
             id="tspan186">2−6 (Å)</tspan></text>
      </g>
      <path
         d="m 967.75,911 c 0,8.695 -7.055,15.75 -15.75,15.75 -8.695,0 -15.75,-7.055 -15.75,-15.75 0,-8.695 7.055,-15.75 15.75,-15.75 8.695,0 15.75,7.055 15.75,15.75"
         style="fill:#000000;fill-opacity:1;fill-rule:nonzero;stroke:none"
         id="path190" />
      <path
         d="m 998.25,935 c 0,8.695 -7.055,15.75 -15.75,15.75 -8.695,0 -15.75,-7.055 -15.75,-15.75 0,-8.695 7.055,-15.75 15.75,-15.75 8.695,0 15.75,7.055 15.75,15.75"
         style="fill:#000000;fill-opacity:1;fill-rule:nonzero;stroke:none"
         id="path192" />
      <path
         d="m 1027.75,957 c 0,8.695 -7.05,15.75 -15.75,15.75 -8.7,0 -15.75,-7.055 -15.75,-15.75 0,-8.695 7.05,-15.75 15.75,-15.75 8.7,0 15.75,7.055 15.75,15.75"
         style="fill:#000000;fill-opacity:1;fill-rule:nonzero;stroke:none"
         id="path194" />
      <path
         d="m 1056.25,973 c 0,8.695 -7.05,15.75 -15.75,15.75 -8.7,0 -15.75,-7.055 -15.75,-15.75 0,-8.695 7.05,-15.75 15.75,-15.75 8.7,0 15.75,7.055 15.75,15.75"
         style="fill:#000000;fill-opacity:1;fill-rule:nonzero;stroke:none"
         id="path196" />
      <path
         d="m 1083.75,986.5 c 0,8.695 -7.05,15.75 -15.75,15.75 -8.7,0 -15.75,-7.055 -15.75,-15.75 0,-8.695 7.05,-15.75 15.75,-15.75 8.7,0 15.75,7.055 15.75,15.75"
         style="fill:#000000;fill-opacity:1;fill-rule:nonzero;stroke:none"
         id="path198" />
      <path
         d="m 1110.25,996.5 c 0,8.7 -7.05,15.75 -15.75,15.75 -8.7,0 -15.75,-7.05 -15.75,-15.75 0,-8.695 7.05,-15.75 15.75,-15.75 8.7,0 15.75,7.055 15.75,15.75"
         style="fill:#000000;fill-opacity:1;fill-rule:nonzero;stroke:none"
         id="path200" />
      <path
         d="m 1135.75,1009.5 c 0,8.7 -7.05,15.75 -15.75,15.75 -8.7,0 -15.75,-7.05 -15.75,-15.75 0,-8.7 7.05,-15.75 15.75,-15.75 8.7,0 15.75,7.05 15.75,15.75"
         style="fill:#000000;fill-opacity:1;fill-rule:nonzero;stroke:none"
         id="path202" />
      <path
         d="m 1160.75,1022.5 c 0,8.7 -7.05,15.75 -15.75,15.75 -8.7,0 -15.75,-7.05 -15.75,-15.75 0,-8.7 7.05,-15.75 15.75,-15.75 8.7,0 15.75,7.05 15.75,15.75"
         style="fill:#000000;fill-opacity:1;fill-rule:nonzero;stroke:none"
         id="path204" />
      <path
         d="m 1184.75,1034.5 c 0,8.7 -7.05,15.75 -15.75,15.75 -8.7,0 -15.75,-7.05 -15.75,-15.75 0,-8.7 7.05,-15.75 15.75,-15.75 8.7,0 15.75,7.05 15.75,15.75"
         style="fill:#000000;fill-opacity:1;fill-rule:nonzero;stroke:none"
         id="path206" />
      <path
         d="m 1207.75,1047 c 0,8.7 -7.05,15.75 -15.75,15.75 -8.7,0 -15.75,-7.05 -15.75,-15.75 0,-8.7 7.05,-15.75 15.75,-15.75 8.7,0 15.75,7.05 15.75,15.75"
         style="fill:#000000;fill-opacity:1;fill-rule:nonzero;stroke:none"
         id="path208" />
      <path
         d="m 1230.25,1058.5 c 0,8.7 -7.05,15.75 -15.75,15.75 -8.7,0 -15.75,-7.05 -15.75,-15.75 0,-8.7 7.05,-15.75 15.75,-15.75 8.7,0 15.75,7.05 15.75,15.75"
         style="fill:#000000;fill-opacity:1;fill-rule:nonzero;stroke:none"
         id="path210" />
      <path
         d="m 1252.25,1070.5 c 0,8.7 -7.05,15.75 -15.75,15.75 -8.7,0 -15.75,-7.05 -15.75,-15.75 0,-8.7 7.05,-15.75 15.75,-15.75 8.7,0 15.75,7.05 15.75,15.75"
         style="fill:#000000;fill-opacity:1;fill-rule:nonzero;stroke:none"
         id="path212" />
      <path
         d="m 1273.25,1081.5 c 0,8.7 -7.05,15.75 -15.75,15.75 -8.7,0 -15.75,-7.05 -15.75,-15.75 0,-8.7 7.05,-15.75 15.75,-15.75 8.7,0 15.75,7.05 15.75,15.75"
         style="fill:#000000;fill-opacity:1;fill-rule:nonzero;stroke:none"
         id="path214" />
      <path
         d="m 1294.25,1094.5 c 0,8.7 -7.05,15.75 -15.75,15.75 -8.7,0 -15.75,-7.05 -15.75,-15.75 0,-8.7 7.05,-15.75 15.75,-15.75 8.7,0 15.75,7.05 15.75,15.75"
         style="fill:#000000;fill-opacity:1;fill-rule:nonzero;stroke:none"
         id="path216" />
      <path
         d="m 1314.25,1105.5 c 0,8.7 -7.05,15.75 -15.75,15.75 -8.7,0 -15.75,-7.05 -15.75,-15.75 0,-8.7 7.05,-15.75 15.75,-15.75 8.7,0 15.75,7.05 15.75,15.75"
         style="fill:#000000;fill-opacity:1;fill-rule:nonzero;stroke:none"
         id="path218" />
      <path
         d="m 1333.75,1116.5 c 0,8.7 -7.05,15.75 -15.75,15.75 -8.7,0 -15.75,-7.05 -15.75,-15.75 0,-8.7 7.05,-15.75 15.75,-15.75 8.7,0 15.75,7.05 15.75,15.75"
         style="fill:#000000;fill-opacity:1;fill-rule:nonzero;stroke:none"
         id="path220" />
      <path
         d="m 1353.25,1128.5 c 0,8.7 -7.05,15.75 -15.75,15.75 -8.7,0 -15.75,-7.05 -15.75,-15.75 0,-8.7 7.05,-15.75 15.75,-15.75 8.7,0 15.75,7.05 15.75,15.75"
         style="fill:#000000;fill-opacity:1;fill-rule:nonzero;stroke:none"
         id="path222" />
      <path
         d="m 1371.75,1140.5 c 0,8.7 -7.05,15.75 -15.75,15.75 -8.7,0 -15.75,-7.05 -15.75,-15.75 0,-8.7 7.05,-15.75 15.75,-15.75 8.7,0 15.75,7.05 15.75,15.75"
         style="fill:#000000;fill-opacity:1;fill-rule:nonzero;stroke:none"
         id="path224" />
      <path
         d="m 1389.75,1150 c 0,8.7 -7.05,15.75 -15.75,15.75 -8.7,0 -15.75,-7.05 -15.75,-15.75 0,-8.7 7.05,-15.75 15.75,-15.75 8.7,0 15.75,7.05 15.75,15.75"
         style="fill:#000000;fill-opacity:1;fill-rule:nonzero;stroke:none"
         id="path226" />
      <path
         d="m 1407.75,1161 c 0,8.7 -7.05,15.75 -15.75,15.75 -8.7,0 -15.75,-7.05 -15.75,-15.75 0,-8.7 7.05,-15.75 15.75,-15.75 8.7,0 15.75,7.05 15.75,15.75"
         style="fill:#000000;fill-opacity:1;fill-rule:nonzero;stroke:none"
         id="path228" />
      <path
         d="m 1425.25,1171.5 c 0,8.7 -7.05,15.75 -15.75,15.75 -8.7,0 -15.75,-7.05 -15.75,-15.75 0,-8.7 7.05,-15.75 15.75,-15.75 8.7,0 15.75,7.05 15.75,15.75"
         style="fill:#000000;fill-opacity:1;fill-rule:nonzero;stroke:none"
         id="path230" />
      <path
         d="m 1442.25,1181.5 c 0,8.7 -7.05,15.75 -15.75,15.75 -8.7,0 -15.75,-7.05 -15.75,-15.75 0,-8.7 7.05,-15.75 15.75,-15.75 8.7,0 15.75,7.05 15.75,15.75"
         style="fill:#000000;fill-opacity:1;fill-rule:nonzero;stroke:none"
         id="path232" />
      <path
         d="m 1458.75,1191 c 0,8.7 -7.05,15.75 -15.75,15.75 -8.7,0 -15.75,-7.05 -15.75,-15.75 0,-8.7 7.05,-15.75 15.75,-15.75 8.7,0 15.75,7.05 15.75,15.75"
         style="fill:#000000;fill-opacity:1;fill-rule:nonzero;stroke:none"
         id="path234" />
      <path
         d="m 1474.75,1201.5 c 0,8.7 -7.05,15.75 -15.75,15.75 -8.7,0 -15.75,-7.05 -15.75,-15.75 0,-8.7 7.05,-15.75 15.75,-15.75 8.7,0 15.75,7.05 15.75,15.75"
         style="fill:#000000;fill-opacity:1;fill-rule:nonzero;stroke:none"
         id="path236" />
      <path
         d="m 1490.75,1212.5 c 0,8.7 -7.05,15.75 -15.75,15.75 -8.7,0 -15.75,-7.05 -15.75,-15.75 0,-8.7 7.05,-15.75 15.75,-15.75 8.7,0 15.75,7.05 15.75,15.75"
         style="fill:#000000;fill-opacity:1;fill-rule:nonzero;stroke:none"
         id="path238" />
      <path
         d="m 1506.25,1223 c 0,8.7 -7.05,15.75 -15.75,15.75 -8.7,0 -15.75,-7.05 -15.75,-15.75 0,-8.7 7.05,-15.75 15.75,-15.75 8.7,0 15.75,7.05 15.75,15.75"
         style="fill:#000000;fill-opacity:1;fill-rule:nonzero;stroke:none"
         id="path240" />
      <path
         d="m 1521.75,1233.5 c 0,8.7 -7.05,15.75 -15.75,15.75 -8.7,0 -15.75,-7.05 -15.75,-15.75 0,-8.7 7.05,-15.75 15.75,-15.75 8.7,0 15.75,7.05 15.75,15.75"
         style="fill:#000000;fill-opacity:1;fill-rule:nonzero;stroke:none"
         id="path242" />
      <path
         d="m 1536.75,1244 c 0,8.7 -7.05,15.75 -15.75,15.75 -8.7,0 -15.75,-7.05 -15.75,-15.75 0,-8.7 7.05,-15.75 15.75,-15.75 8.7,0 15.75,7.05 15.75,15.75"
         style="fill:#000000;fill-opacity:1;fill-rule:nonzero;stroke:none"
         id="path244" />
      <path
         d="m 1551.25,1253 c 0,8.7 -7.05,15.75 -15.75,15.75 -8.7,0 -15.75,-7.05 -15.75,-15.75 0,-8.7 7.05,-15.75 15.75,-15.75 8.7,0 15.75,7.05 15.75,15.75"
         style="fill:#000000;fill-opacity:1;fill-rule:nonzero;stroke:none"
         id="path246" />
      <path
         d="m 1565.75,1262 c 0,8.7 -7.05,15.75 -15.75,15.75 -8.7,0 -15.75,-7.05 -15.75,-15.75 0,-8.7 7.05,-15.75 15.75,-15.75 8.7,0 15.75,7.05 15.75,15.75"
         style="fill:#000000;fill-opacity:1;fill-rule:nonzero;stroke:none"
         id="path248" />
      <path
         d="m 1579.75,1270.5 c 0,8.7 -7.05,15.75 -15.75,15.75 -8.7,0 -15.75,-7.05 -15.75,-15.75 0,-8.7 7.05,-15.75 15.75,-15.75 8.7,0 15.75,7.05 15.75,15.75"
         style="fill:#000000;fill-opacity:1;fill-rule:nonzero;stroke:none"
         id="path250" />
      <path
         d="m 1593.75,1279 c 0,8.7 -7.05,15.75 -15.75,15.75 -8.7,0 -15.75,-7.05 -15.75,-15.75 0,-8.7 7.05,-15.75 15.75,-15.75 8.7,0 15.75,7.05 15.75,15.75"
         style="fill:#000000;fill-opacity:1;fill-rule:nonzero;stroke:none"
         id="path252" />
      <path
         d="m 1607.25,1288 c 0,8.7 -7.05,15.75 -15.75,15.75 -8.7,0 -15.75,-7.05 -15.75,-15.75 0,-8.7 7.05,-15.75 15.75,-15.75 8.7,0 15.75,7.05 15.75,15.75"
         style="fill:#000000;fill-opacity:1;fill-rule:nonzero;stroke:none"
         id="path254" />
      <path
         d="m 1620.75,1296.5 c 0,8.7 -7.05,15.75 -15.75,15.75 -8.7,0 -15.75,-7.05 -15.75,-15.75 0,-8.7 7.05,-15.75 15.75,-15.75 8.7,0 15.75,7.05 15.75,15.75"
         style="fill:#000000;fill-opacity:1;fill-rule:nonzero;stroke:none"
         id="path256" />
      <path
         d="m 1633.75,1305 c 0,8.7 -7.05,15.75 -15.75,15.75 -8.7,0 -15.75,-7.05 -15.75,-15.75 0,-8.7 7.05,-15.75 15.75,-15.75 8.7,0 15.75,7.05 15.75,15.75"
         style="fill:#000000;fill-opacity:1;fill-rule:nonzero;stroke:none"
         id="path258" />
      <path
         d="m 1646.75,1313.5 c 0,8.7 -7.05,15.75 -15.75,15.75 -8.7,0 -15.75,-7.05 -15.75,-15.75 0,-8.7 7.05,-15.75 15.75,-15.75 8.7,0 15.75,7.05 15.75,15.75"
         style="fill:#000000;fill-opacity:1;fill-rule:nonzero;stroke:none"
         id="path260" />
      <path
         d="m 1659.25,1322.5 c 0,8.7 -7.05,15.75 -15.75,15.75 -8.7,0 -15.75,-7.05 -15.75,-15.75 0,-8.7 7.05,-15.75 15.75,-15.75 8.7,0 15.75,7.05 15.75,15.75"
         style="fill:#000000;fill-opacity:1;fill-rule:nonzero;stroke:none"
         id="path262" />
      <path
         d="m 1671.75,1331.5 c 0,8.7 -7.05,15.75 -15.75,15.75 -8.7,0 -15.75,-7.05 -15.75,-15.75 0,-8.7 7.05,-15.75 15.75,-15.75 8.7,0 15.75,7.05 15.75,15.75"
         style="fill:#000000;fill-opacity:1;fill-rule:nonzero;stroke:none"
         id="path264" />
      <path
         d="m 1684.25,1338.5 c 0,8.7 -7.05,15.75 -15.75,15.75 -8.7,0 -15.75,-7.05 -15.75,-15.75 0,-8.7 7.05,-15.75 15.75,-15.75 8.7,0 15.75,7.05 15.75,15.75"
         style="fill:#000000;fill-opacity:1;fill-rule:nonzero;stroke:none"
         id="path266" />
      <path
         d="m 1696.25,1346 c 0,8.7 -7.05,15.75 -15.75,15.75 -8.7,0 -15.75,-7.05 -15.75,-15.75 0,-8.7 7.05,-15.75 15.75,-15.75 8.7,0 15.75,7.05 15.75,15.75"
         style="fill:#000000;fill-opacity:1;fill-rule:nonzero;stroke:none"
         id="path268" />
      <path
         d="m 1708.25,1353.5 c 0,8.7 -7.05,15.75 -15.75,15.75 -8.7,0 -15.75,-7.05 -15.75,-15.75 0,-8.7 7.05,-15.75 15.75,-15.75 8.7,0 15.75,7.05 15.75,15.75"
         style="fill:#000000;fill-opacity:1;fill-rule:nonzero;stroke:none"
         id="path270" />
      <path
         d="m 2539.25,587 c 0,8.695 -7.05,15.75 -15.75,15.75 -8.7,0 -15.75,-7.055 -15.75,-15.75 0,-8.695 7.05,-15.75 15.75,-15.75 8.7,0 15.75,7.055 15.75,15.75"
         style="fill:#000000;fill-opacity:1;fill-rule:nonzero;stroke:none"
         id="path272" />
      <g
         id="g274"
         transform="scale(10)">
        <text
           xml:space="preserve"
           transform="matrix(1,0,0,-1,211.161,49.3648)"
           style="font-variant:normal;font-weight:normal;font-size:7px;font-family:Helvetica;-inkscape-font-specification:Helvetica;writing-mode:lr-tb;fill:#000000;fill-opacity:1;fill-rule:nonzero;stroke:none"
           id="text278"><tspan
             x="0 3.892 7.98 11.872 15.764 17.709999 20.041 24.709999"
             y="0"
             sodipodi:role="line"
             id="tspan276">6−20 (Å)</tspan></text>
      </g>
      <path
         d="m 1719.75,1361 c 0,8.7 -7.05,15.75 -15.75,15.75 -8.7,0 -15.75,-7.05 -15.75,-15.75 0,-8.7 7.05,-15.75 15.75,-15.75 8.7,0 15.75,7.05 15.75,15.75"
         style="fill:#ff804f;fill-opacity:1;fill-rule:nonzero;stroke:none"
         id="path280" />
      <path
         d="m 1731.25,1368 c 0,8.7 -7.05,15.75 -15.75,15.75 -8.7,0 -15.75,-7.05 -15.75,-15.75 0,-8.7 7.05,-15.75 15.75,-15.75 8.7,0 15.75,7.05 15.75,15.75"
         style="fill:#ff804f;fill-opacity:1;fill-rule:nonzero;stroke:none"
         id="path282" />
      <path
         d="m 1742.75,1375 c 0,8.7 -7.05,15.75 -15.75,15.75 -8.7,0 -15.75,-7.05 -15.75,-15.75 0,-8.7 7.05,-15.75 15.75,-15.75 8.7,0 15.75,7.05 15.75,15.75"
         style="fill:#ff804f;fill-opacity:1;fill-rule:nonzero;stroke:none"
         id="path284" />
      <path
         d="m 1754.25,1382 c 0,8.7 -7.05,15.75 -15.75,15.75 -8.7,0 -15.75,-7.05 -15.75,-15.75 0,-8.7 7.05,-15.75 15.75,-15.75 8.7,0 15.75,7.05 15.75,15.75"
         style="fill:#ff804f;fill-opacity:1;fill-rule:nonzero;stroke:none"
         id="path286" />
      <path
         d="m 1765.25,1388.5 c 0,8.7 -7.05,15.75 -15.75,15.75 -8.7,0 -15.75,-7.05 -15.75,-15.75 0,-8.7 7.05,-15.75 15.75,-15.75 8.7,0 15.75,7.05 15.75,15.75"
         style="fill:#ff804f;fill-opacity:1;fill-rule:nonzero;stroke:none"
         id="path288" />
      <path
         d="m 1775.75,1395.5 c 0,8.7 -7.05,15.75 -15.75,15.75 -8.7,0 -15.75,-7.05 -15.75,-15.75 0,-8.7 7.05,-15.75 15.75,-15.75 8.7,0 15.75,7.05 15.75,15.75"
         style="fill:#ff804f;fill-opacity:1;fill-rule:nonzero;stroke:none"
         id="path290" />
      <path
         d="m 1786.75,1401.5 c 0,8.7 -7.05,15.75 -15.75,15.75 -8.7,0 -15.75,-7.05 -15.75,-15.75 0,-8.7 7.05,-15.75 15.75,-15.75 8.7,0 15.75,7.05 15.75,15.75"
         style="fill:#ff804f;fill-opacity:1;fill-rule:nonzero;stroke:none"
         id="path292" />
      <path
         d="m 1797.25,1408 c 0,8.7 -7.05,15.75 -15.75,15.75 -8.7,0 -15.75,-7.05 -15.75,-15.75 0,-8.7 7.05,-15.75 15.75,-15.75 8.7,0 15.75,7.05 15.75,15.75"
         style="fill:#ff804f;fill-opacity:1;fill-rule:nonzero;stroke:none"
         id="path294" />
      <path
         d="m 1807.75,1414.5 c 0,8.7 -7.05,15.75 -15.75,15.75 -8.7,0 -15.75,-7.05 -15.75,-15.75 0,-8.7 7.05,-15.75 15.75,-15.75 8.7,0 15.75,7.05 15.75,15.75"
         style="fill:#ff804f;fill-opacity:1;fill-rule:nonzero;stroke:none"
         id="path296" />
      <path
         d="m 1817.75,1420.5 c 0,8.7 -7.05,15.75 -15.75,15.75 -8.7,0 -15.75,-7.05 -15.75,-15.75 0,-8.7 7.05,-15.75 15.75,-15.75 8.7,0 15.75,7.05 15.75,15.75"
         style="fill:#ff804f;fill-opacity:1;fill-rule:nonzero;stroke:none"
         id="path298" />
      <path
         d="m 1828.25,1426.5 c 0,8.7 -7.05,15.75 -15.75,15.75 -8.7,0 -15.75,-7.05 -15.75,-15.75 0,-8.7 7.05,-15.75 15.75,-15.75 8.7,0 15.75,7.05 15.75,15.75"
         style="fill:#ff804f;fill-opacity:1;fill-rule:nonzero;stroke:none"
         id="path300" />
      <path
         d="m 1838.25,1433.5 c 0,8.7 -7.05,15.75 -15.75,15.75 -8.7,0 -15.75,-7.05 -15.75,-15.75 0,-8.7 7.05,-15.75 15.75,-15.75 8.7,0 15.75,7.05 15.75,15.75"
         style="fill:#ff804f;fill-opacity:1;fill-rule:nonzero;stroke:none"
         id="path302" />
      <path
         d="m 1848.25,1439.5 c 0,8.7 -7.05,15.75 -15.75,15.75 -8.7,0 -15.75,-7.05 -15.75,-15.75 0,-8.7 7.05,-15.75 15.75,-15.75 8.7,0 15.75,7.05 15.75,15.75"
         style="fill:#ff804f;fill-opacity:1;fill-rule:nonzero;stroke:none"
         id="path304" />
      <path
         d="m 1857.75,1445.5 c 0,8.7 -7.05,15.75 -15.75,15.75 -8.7,0 -15.75,-7.05 -15.75,-15.75 0,-8.7 7.05,-15.75 15.75,-15.75 8.7,0 15.75,7.05 15.75,15.75"
         style="fill:#ff804f;fill-opacity:1;fill-rule:nonzero;stroke:none"
         id="path306" />
      <path
         d="m 1867.25,1451 c 0,8.7 -7.05,15.75 -15.75,15.75 -8.7,0 -15.75,-7.05 -15.75,-15.75 0,-8.7 7.05,-15.75 15.75,-15.75 8.7,0 15.75,7.05 15.75,15.75"
         style="fill:#ff804f;fill-opacity:1;fill-rule:nonzero;stroke:none"
         id="path308" />
      <path
         d="m 1876.75,1456.5 c 0,8.7 -7.05,15.75 -15.75,15.75 -8.7,0 -15.75,-7.05 -15.75,-15.75 0,-8.7 7.05,-15.75 15.75,-15.75 8.7,0 15.75,7.05 15.75,15.75"
         style="fill:#ff804f;fill-opacity:1;fill-rule:nonzero;stroke:none"
         id="path310" />
      <path
         d="m 1886.25,1462.5 c 0,8.7 -7.05,15.75 -15.75,15.75 -8.7,0 -15.75,-7.05 -15.75,-15.75 0,-8.7 7.05,-15.75 15.75,-15.75 8.7,0 15.75,7.05 15.75,15.75"
         style="fill:#ff804f;fill-opacity:1;fill-rule:nonzero;stroke:none"
         id="path312" />
      <path
         d="m 1895.75,1468.5 c 0,8.7 -7.05,15.75 -15.75,15.75 -8.7,0 -15.75,-7.05 -15.75,-15.75 0,-8.7 7.05,-15.75 15.75,-15.75 8.7,0 15.75,7.05 15.75,15.75"
         style="fill:#ff804f;fill-opacity:1;fill-rule:nonzero;stroke:none"
         id="path314" />
      <path
         d="m 1904.75,1474 c 0,8.7 -7.05,15.75 -15.75,15.75 -8.7,0 -15.75,-7.05 -15.75,-15.75 0,-8.7 7.05,-15.75 15.75,-15.75 8.7,0 15.75,7.05 15.75,15.75"
         style="fill:#ff804f;fill-opacity:1;fill-rule:nonzero;stroke:none"
         id="path316" />
      <path
         d="m 1913.75,1479.5 c 0,8.7 -7.05,15.75 -15.75,15.75 -8.7,0 -15.75,-7.05 -15.75,-15.75 0,-8.7 7.05,-15.75 15.75,-15.75 8.7,0 15.75,7.05 15.75,15.75"
         style="fill:#ff804f;fill-opacity:1;fill-rule:nonzero;stroke:none"
         id="path318" />
      <path
         d="m 1922.75,1484.5 c 0,8.7 -7.05,15.75 -15.75,15.75 -8.7,0 -15.75,-7.05 -15.75,-15.75 0,-8.7 7.05,-15.75 15.75,-15.75 8.7,0 15.75,7.05 15.75,15.75"
         style="fill:#ff804f;fill-opacity:1;fill-rule:nonzero;stroke:none"
         id="path320" />
      <path
         d="m 1931.75,1490 c 0,8.7 -7.05,15.75 -15.75,15.75 -8.7,0 -15.75,-7.05 -15.75,-15.75 0,-8.7 7.05,-15.75 15.75,-15.75 8.7,0 15.75,7.05 15.75,15.75"
         style="fill:#ff804f;fill-opacity:1;fill-rule:nonzero;stroke:none"
         id="path322" />
      <path
         d="m 1940.25,1495.5 c 0,8.7 -7.05,15.75 -15.75,15.75 -8.7,0 -15.75,-7.05 -15.75,-15.75 0,-8.7 7.05,-15.75 15.75,-15.75 8.7,0 15.75,7.05 15.75,15.75"
         style="fill:#ff804f;fill-opacity:1;fill-rule:nonzero;stroke:none"
         id="path324" />
      <path
         d="m 1949.25,1501 c 0,8.7 -7.05,15.75 -15.75,15.75 -8.7,0 -15.75,-7.05 -15.75,-15.75 0,-8.7 7.05,-15.75 15.75,-15.75 8.7,0 15.75,7.05 15.75,15.75"
         style="fill:#ff804f;fill-opacity:1;fill-rule:nonzero;stroke:none"
         id="path326" />
      <path
         d="m 1957.75,1506 c 0,8.7 -7.05,15.75 -15.75,15.75 -8.7,0 -15.75,-7.05 -15.75,-15.75 0,-8.7 7.05,-15.75 15.75,-15.75 8.7,0 15.75,7.05 15.75,15.75"
         style="fill:#ff804f;fill-opacity:1;fill-rule:nonzero;stroke:none"
         id="path328" />
      <path
         d="m 1966.25,1511.5 c 0,8.7 -7.05,15.75 -15.75,15.75 -8.7,0 -15.75,-7.05 -15.75,-15.75 0,-8.7 7.05,-15.75 15.75,-15.75 8.7,0 15.75,7.05 15.75,15.75"
         style="fill:#ff804f;fill-opacity:1;fill-rule:nonzero;stroke:none"
         id="path330" />
      <path
         d="m 1974.25,1516.5 c 0,8.7 -7.05,15.75 -15.75,15.75 -8.7,0 -15.75,-7.05 -15.75,-15.75 0,-8.7 7.05,-15.75 15.75,-15.75 8.7,0 15.75,7.05 15.75,15.75"
         style="fill:#ff804f;fill-opacity:1;fill-rule:nonzero;stroke:none"
         id="path332" />
      <path
         d="m 1982.75,1522 c 0,8.7 -7.05,15.75 -15.75,15.75 -8.7,0 -15.75,-7.05 -15.75,-15.75 0,-8.7 7.05,-15.75 15.75,-15.75 8.7,0 15.75,7.05 15.75,15.75"
         style="fill:#ff804f;fill-opacity:1;fill-rule:nonzero;stroke:none"
         id="path334" />
      <path
         d="m 1990.75,1526.5 c 0,8.7 -7.05,15.75 -15.75,15.75 -8.7,0 -15.75,-7.05 -15.75,-15.75 0,-8.7 7.05,-15.75 15.75,-15.75 8.7,0 15.75,7.05 15.75,15.75"
         style="fill:#ff804f;fill-opacity:1;fill-rule:nonzero;stroke:none"
         id="path336" />
      <path
         d="m 1998.75,1531.5 c 0,8.7 -7.05,15.75 -15.75,15.75 -8.7,0 -15.75,-7.05 -15.75,-15.75 0,-8.7 7.05,-15.75 15.75,-15.75 8.7,0 15.75,7.05 15.75,15.75"
         style="fill:#ff804f;fill-opacity:1;fill-rule:nonzero;stroke:none"
         id="path338" />
      <path
         d="m 2006.75,1537 c 0,8.7 -7.05,15.75 -15.75,15.75 -8.7,0 -15.75,-7.05 -15.75,-15.75 0,-8.7 7.05,-15.75 15.75,-15.75 8.7,0 15.75,7.05 15.75,15.75"
         style="fill:#ff804f;fill-opacity:1;fill-rule:nonzero;stroke:none"
         id="path340" />
      <path
         d="m 2014.75,1542 c 0,8.7 -7.05,15.75 -15.75,15.75 -8.7,0 -15.75,-7.05 -15.75,-15.75 0,-8.7 7.05,-15.75 15.75,-15.75 8.7,0 15.75,7.05 15.75,15.75"
         style="fill:#ff804f;fill-opacity:1;fill-rule:nonzero;stroke:none"
         id="path342" />
      <path
         d="m 2022.75,1547 c 0,8.7 -7.05,15.75 -15.75,15.75 -8.7,0 -15.75,-7.05 -15.75,-15.75 0,-8.7 7.05,-15.75 15.75,-15.75 8.7,0 15.75,7.05 15.75,15.75"
         style="fill:#ff804f;fill-opacity:1;fill-rule:nonzero;stroke:none"
         id="path344" />
      <path
         d="m 2030.25,1551.5 c 0,8.7 -7.05,15.75 -15.75,15.75 -8.7,0 -15.75,-7.05 -15.75,-15.75 0,-8.7 7.05,-15.75 15.75,-15.75 8.7,0 15.75,7.05 15.75,15.75"
         style="fill:#ff804f;fill-opacity:1;fill-rule:nonzero;stroke:none"
         id="path346" />
      <path
         d="m 2038.25,1556.5 c 0,8.7 -7.05,15.75 -15.75,15.75 -8.7,0 -15.75,-7.05 -15.75,-15.75 0,-8.7 7.05,-15.75 15.75,-15.75 8.7,0 15.75,7.05 15.75,15.75"
         style="fill:#ff804f;fill-opacity:1;fill-rule:nonzero;stroke:none"
         id="path348" />
      <path
         d="m 2045.75,1561.5 c 0,8.7 -7.05,15.75 -15.75,15.75 -8.7,0 -15.75,-7.05 -15.75,-15.75 0,-8.7 7.05,-15.75 15.75,-15.75 8.7,0 15.75,7.05 15.75,15.75"
         style="fill:#ff804f;fill-opacity:1;fill-rule:nonzero;stroke:none"
         id="path350" />
      <path
         d="m 2053.25,1566.5 c 0,8.7 -7.05,15.75 -15.75,15.75 -8.7,0 -15.75,-7.05 -15.75,-15.75 0,-8.7 7.05,-15.75 15.75,-15.75 8.7,0 15.75,7.05 15.75,15.75"
         style="fill:#ff804f;fill-opacity:1;fill-rule:nonzero;stroke:none"
         id="path352" />
      <path
         d="m 2060.75,1571 c 0,8.7 -7.05,15.75 -15.75,15.75 -8.7,0 -15.75,-7.05 -15.75,-15.75 0,-8.7 7.05,-15.75 15.75,-15.75 8.7,0 15.75,7.05 15.75,15.75"
         style="fill:#ff804f;fill-opacity:1;fill-rule:nonzero;stroke:none"
         id="path354" />
      <path
         d="m 2068.25,1575.5 c 0,8.7 -7.05,15.75 -15.75,15.75 -8.7,0 -15.75,-7.05 -15.75,-15.75 0,-8.7 7.05,-15.75 15.75,-15.75 8.7,0 15.75,7.05 15.75,15.75"
         style="fill:#ff804f;fill-opacity:1;fill-rule:nonzero;stroke:none"
         id="path356" />
      <path
         d="m 2075.25,1580.5 c 0,8.7 -7.05,15.75 -15.75,15.75 -8.7,0 -15.75,-7.05 -15.75,-15.75 0,-8.7 7.05,-15.75 15.75,-15.75 8.7,0 15.75,7.05 15.75,15.75"
         style="fill:#ff804f;fill-opacity:1;fill-rule:nonzero;stroke:none"
         id="path358" />
      <path
         d="m 2082.75,1585 c 0,8.7 -7.05,15.75 -15.75,15.75 -8.7,0 -15.75,-7.05 -15.75,-15.75 0,-8.7 7.05,-15.75 15.75,-15.75 8.7,0 15.75,7.05 15.75,15.75"
         style="fill:#ff804f;fill-opacity:1;fill-rule:nonzero;stroke:none"
         id="path360" />
      <path
         d="m 2089.75,1589.5 c 0,8.7 -7.05,15.75 -15.75,15.75 -8.7,0 -15.75,-7.05 -15.75,-15.75 0,-8.7 7.05,-15.75 15.75,-15.75 8.7,0 15.75,7.05 15.75,15.75"
         style="fill:#ff804f;fill-opacity:1;fill-rule:nonzero;stroke:none"
         id="path362" />
      <path
         d="m 2096.75,1594 c 0,8.7 -7.05,15.75 -15.75,15.75 -8.7,0 -15.75,-7.05 -15.75,-15.75 0,-8.7 7.05,-15.75 15.75,-15.75 8.7,0 15.75,7.05 15.75,15.75"
         style="fill:#ff804f;fill-opacity:1;fill-rule:nonzero;stroke:none"
         id="path364" />
      <path
         d="m 2103.75,1598.5 c 0,8.7 -7.05,15.75 -15.75,15.75 -8.7,0 -15.75,-7.05 -15.75,-15.75 0,-8.7 7.05,-15.75 15.75,-15.75 8.7,0 15.75,7.05 15.75,15.75"
         style="fill:#ff804f;fill-opacity:1;fill-rule:nonzero;stroke:none"
         id="path366" />
      <path
         d="m 2110.75,1603 c 0,8.7 -7.05,15.75 -15.75,15.75 -8.7,0 -15.75,-7.05 -15.75,-15.75 0,-8.7 7.05,-15.75 15.75,-15.75 8.7,0 15.75,7.05 15.75,15.75"
         style="fill:#ff804f;fill-opacity:1;fill-rule:nonzero;stroke:none"
         id="path368" />
      <path
         d="m 2117.75,1607.5 c 0,8.7 -7.05,15.75 -15.75,15.75 -8.7,0 -15.75,-7.05 -15.75,-15.75 0,-8.7 7.05,-15.75 15.75,-15.75 8.7,0 15.75,7.05 15.75,15.75"
         style="fill:#ff804f;fill-opacity:1;fill-rule:nonzero;stroke:none"
         id="path370" />
      <path
         d="m 2124.75,1612 c 0,8.7 -7.05,15.75 -15.75,15.75 -8.7,0 -15.75,-7.05 -15.75,-15.75 0,-8.7 7.05,-15.75 15.75,-15.75 8.7,0 15.75,7.05 15.75,15.75"
         style="fill:#ff804f;fill-opacity:1;fill-rule:nonzero;stroke:none"
         id="path372" />
      <path
         d="m 2131.25,1616 c 0,8.7 -7.05,15.75 -15.75,15.75 -8.7,0 -15.75,-7.05 -15.75,-15.75 0,-8.7 7.05,-15.75 15.75,-15.75 8.7,0 15.75,7.05 15.75,15.75"
         style="fill:#ff804f;fill-opacity:1;fill-rule:nonzero;stroke:none"
         id="path374" />
      <path
         d="m 2138.25,1620.5 c 0,8.7 -7.05,15.75 -15.75,15.75 -8.7,0 -15.75,-7.05 -15.75,-15.75 0,-8.7 7.05,-15.75 15.75,-15.75 8.7,0 15.75,7.05 15.75,15.75"
         style="fill:#ff804f;fill-opacity:1;fill-rule:nonzero;stroke:none"
         id="path376" />
      <path
         d="m 2144.75,1624.5 c 0,8.7 -7.05,15.75 -15.75,15.75 -8.7,0 -15.75,-7.05 -15.75,-15.75 0,-8.7 7.05,-15.75 15.75,-15.75 8.7,0 15.75,7.05 15.75,15.75"
         style="fill:#ff804f;fill-opacity:1;fill-rule:nonzero;stroke:none"
         id="path378" />
      <path
         d="m 2151.25,1628.5 c 0,8.7 -7.05,15.75 -15.75,15.75 -8.7,0 -15.75,-7.05 -15.75,-15.75 0,-8.7 7.05,-15.75 15.75,-15.75 8.7,0 15.75,7.05 15.75,15.75"
         style="fill:#ff804f;fill-opacity:1;fill-rule:nonzero;stroke:none"
         id="path380" />
      <path
         d="m 2158.25,1632.5 c 0,8.7 -7.05,15.75 -15.75,15.75 -8.7,0 -15.75,-7.05 -15.75,-15.75 0,-8.7 7.05,-15.75 15.75,-15.75 8.7,0 15.75,7.05 15.75,15.75"
         style="fill:#ff804f;fill-opacity:1;fill-rule:nonzero;stroke:none"
         id="path382" />
      <path
         d="m 2164.25,1637 c 0,8.7 -7.05,15.75 -15.75,15.75 -8.7,0 -15.75,-7.05 -15.75,-15.75 0,-8.7 7.05,-15.75 15.75,-15.75 8.7,0 15.75,7.05 15.75,15.75"
         style="fill:#ff804f;fill-opacity:1;fill-rule:nonzero;stroke:none"
         id="path384" />
      <path
         d="m 2170.75,1641 c 0,8.7 -7.05,15.75 -15.75,15.75 -8.7,0 -15.75,-7.05 -15.75,-15.75 0,-8.7 7.05,-15.75 15.75,-15.75 8.7,0 15.75,7.05 15.75,15.75"
         style="fill:#ff804f;fill-opacity:1;fill-rule:nonzero;stroke:none"
         id="path386" />
      <path
         d="m 2177.25,1644.5 c 0,8.7 -7.05,15.75 -15.75,15.75 -8.7,0 -15.75,-7.05 -15.75,-15.75 0,-8.7 7.05,-15.75 15.75,-15.75 8.7,0 15.75,7.05 15.75,15.75"
         style="fill:#ff804f;fill-opacity:1;fill-rule:nonzero;stroke:none"
         id="path388" />
      <path
         d="m 2183.75,1648.5 c 0,8.7 -7.05,15.75 -15.75,15.75 -8.7,0 -15.75,-7.05 -15.75,-15.75 0,-8.7 7.05,-15.75 15.75,-15.75 8.7,0 15.75,7.05 15.75,15.75"
         style="fill:#ff804f;fill-opacity:1;fill-rule:nonzero;stroke:none"
         id="path390" />
      <path
         d="m 2189.75,1652.5 c 0,8.7 -7.05,15.75 -15.75,15.75 -8.7,0 -15.75,-7.05 -15.75,-15.75 0,-8.7 7.05,-15.75 15.75,-15.75 8.7,0 15.75,7.05 15.75,15.75"
         style="fill:#ff804f;fill-opacity:1;fill-rule:nonzero;stroke:none"
         id="path392" />
      <path
         d="m 2196.25,1656.5 c 0,8.7 -7.05,15.75 -15.75,15.75 -8.7,0 -15.75,-7.05 -15.75,-15.75 0,-8.7 7.05,-15.75 15.75,-15.75 8.7,0 15.75,7.05 15.75,15.75"
         style="fill:#ff804f;fill-opacity:1;fill-rule:nonzero;stroke:none"
         id="path394" />
      <path
         d="m 2202.25,1660.5 c 0,8.7 -7.05,15.75 -15.75,15.75 -8.7,0 -15.75,-7.05 -15.75,-15.75 0,-8.7 7.05,-15.75 15.75,-15.75 8.7,0 15.75,7.05 15.75,15.75"
         style="fill:#ff804f;fill-opacity:1;fill-rule:nonzero;stroke:none"
         id="path396" />
      <path
         d="m 2208.25,1664 c 0,8.7 -7.05,15.75 -15.75,15.75 -8.7,0 -15.75,-7.05 -15.75,-15.75 0,-8.7 7.05,-15.75 15.75,-15.75 8.7,0 15.75,7.05 15.75,15.75"
         style="fill:#ff804f;fill-opacity:1;fill-rule:nonzero;stroke:none"
         id="path398" />
      <path
         d="m 2214.75,1668 c 0,8.7 -7.05,15.75 -15.75,15.75 -8.7,0 -15.75,-7.05 -15.75,-15.75 0,-8.7 7.05,-15.75 15.75,-15.75 8.7,0 15.75,7.05 15.75,15.75"
         style="fill:#ff804f;fill-opacity:1;fill-rule:nonzero;stroke:none"
         id="path400" />
      <path
         d="m 2220.75,1671.5 c 0,8.7 -7.05,15.75 -15.75,15.75 -8.7,0 -15.75,-7.05 -15.75,-15.75 0,-8.7 7.05,-15.75 15.75,-15.75 8.7,0 15.75,7.05 15.75,15.75"
         style="fill:#ff804f;fill-opacity:1;fill-rule:nonzero;stroke:none"
         id="path402" />
      <path
         d="m 2226.75,1675.5 c 0,8.7 -7.05,15.75 -15.75,15.75 -8.7,0 -15.75,-7.05 -15.75,-15.75 0,-8.7 7.05,-15.75 15.75,-15.75 8.7,0 15.75,7.05 15.75,15.75"
         style="fill:#ff804f;fill-opacity:1;fill-rule:nonzero;stroke:none"
         id="path404" />
      <path
         d="m 2232.25,1679 c 0,8.7 -7.05,15.75 -15.75,15.75 -8.7,0 -15.75,-7.05 -15.75,-15.75 0,-8.7 7.05,-15.75 15.75,-15.75 8.7,0 15.75,7.05 15.75,15.75"
         style="fill:#ff804f;fill-opacity:1;fill-rule:nonzero;stroke:none"
         id="path406" />
      <path
         d="m 2238.25,1682.5 c 0,8.7 -7.05,15.75 -15.75,15.75 -8.7,0 -15.75,-7.05 -15.75,-15.75 0,-8.7 7.05,-15.75 15.75,-15.75 8.7,0 15.75,7.05 15.75,15.75"
         style="fill:#ff804f;fill-opacity:1;fill-rule:nonzero;stroke:none"
         id="path408" />
      <path
         d="m 2244.25,1686 c 0,8.7 -7.05,15.75 -15.75,15.75 -8.7,0 -15.75,-7.05 -15.75,-15.75 0,-8.7 7.05,-15.75 15.75,-15.75 8.7,0 15.75,7.05 15.75,15.75"
         style="fill:#ff804f;fill-opacity:1;fill-rule:nonzero;stroke:none"
         id="path410" />
      <path
         d="m 2250.25,1689.5 c 0,8.7 -7.05,15.75 -15.75,15.75 -8.7,0 -15.75,-7.05 -15.75,-15.75 0,-8.7 7.05,-15.75 15.75,-15.75 8.7,0 15.75,7.05 15.75,15.75"
         style="fill:#ff804f;fill-opacity:1;fill-rule:nonzero;stroke:none"
         id="path412" />
      <path
         d="m 2255.75,1693 c 0,8.7 -7.05,15.75 -15.75,15.75 -8.7,0 -15.75,-7.05 -15.75,-15.75 0,-8.7 7.05,-15.75 15.75,-15.75 8.7,0 15.75,7.05 15.75,15.75"
         style="fill:#ff804f;fill-opacity:1;fill-rule:nonzero;stroke:none"
         id="path414" />
      <path
         d="m 2261.25,1696.5 c 0,8.7 -7.05,15.75 -15.75,15.75 -8.7,0 -15.75,-7.05 -15.75,-15.75 0,-8.7 7.05,-15.75 15.75,-15.75 8.7,0 15.75,7.05 15.75,15.75"
         style="fill:#ff804f;fill-opacity:1;fill-rule:nonzero;stroke:none"
         id="path416" />
      <path
         d="m 2267.25,1700 c 0,8.7 -7.05,15.75 -15.75,15.75 -8.7,0 -15.75,-7.05 -15.75,-15.75 0,-8.7 7.05,-15.75 15.75,-15.75 8.7,0 15.75,7.05 15.75,15.75"
         style="fill:#ff804f;fill-opacity:1;fill-rule:nonzero;stroke:none"
         id="path418" />
      <path
         d="m 2272.75,1703.5 c 0,8.7 -7.05,15.75 -15.75,15.75 -8.7,0 -15.75,-7.05 -15.75,-15.75 0,-8.7 7.05,-15.75 15.75,-15.75 8.7,0 15.75,7.05 15.75,15.75"
         style="fill:#ff804f;fill-opacity:1;fill-rule:nonzero;stroke:none"
         id="path420" />
      <path
         d="m 2278.25,1706.5 c 0,8.7 -7.05,15.75 -15.75,15.75 -8.7,0 -15.75,-7.05 -15.75,-15.75 0,-8.7 7.05,-15.75 15.75,-15.75 8.7,0 15.75,7.05 15.75,15.75"
         style="fill:#ff804f;fill-opacity:1;fill-rule:nonzero;stroke:none"
         id="path422" />
      <path
         d="m 2283.75,1710 c 0,8.7 -7.05,15.75 -15.75,15.75 -8.7,0 -15.75,-7.05 -15.75,-15.75 0,-8.7 7.05,-15.75 15.75,-15.75 8.7,0 15.75,7.05 15.75,15.75"
         style="fill:#ff804f;fill-opacity:1;fill-rule:nonzero;stroke:none"
         id="path424" />
      <path
         d="m 2289.25,1713.5 c 0,8.7 -7.05,15.75 -15.75,15.75 -8.7,0 -15.75,-7.05 -15.75,-15.75 0,-8.7 7.05,-15.75 15.75,-15.75 8.7,0 15.75,7.05 15.75,15.75"
         style="fill:#ff804f;fill-opacity:1;fill-rule:nonzero;stroke:none"
         id="path426" />
      <path
         d="m 2294.75,1716.5 c 0,8.7 -7.05,15.75 -15.75,15.75 -8.7,0 -15.75,-7.05 -15.75,-15.75 0,-8.7 7.05,-15.75 15.75,-15.75 8.7,0 15.75,7.05 15.75,15.75"
         style="fill:#ff804f;fill-opacity:1;fill-rule:nonzero;stroke:none"
         id="path428" />
      <path
         d="m 2300.25,1720 c 0,8.7 -7.05,15.75 -15.75,15.75 -8.7,0 -15.75,-7.05 -15.75,-15.75 0,-8.7 7.05,-15.75 15.75,-15.75 8.7,0 15.75,7.05 15.75,15.75"
         style="fill:#ff804f;fill-opacity:1;fill-rule:nonzero;stroke:none"
         id="path430" />
      <path
         d="m 2305.75,1723 c 0,8.7 -7.05,15.75 -15.75,15.75 -8.7,0 -15.75,-7.05 -15.75,-15.75 0,-8.7 7.05,-15.75 15.75,-15.75 8.7,0 15.75,7.05 15.75,15.75"
         style="fill:#ff804f;fill-opacity:1;fill-rule:nonzero;stroke:none"
         id="path432" />
      <path
         d="m 2311.25,1726.5 c 0,8.7 -7.05,15.75 -15.75,15.75 -8.7,0 -15.75,-7.05 -15.75,-15.75 0,-8.7 7.05,-15.75 15.75,-15.75 8.7,0 15.75,7.05 15.75,15.75"
         style="fill:#ff804f;fill-opacity:1;fill-rule:nonzero;stroke:none"
         id="path434" />
      <path
         d="m 2316.25,1729.5 c 0,8.7 -7.05,15.75 -15.75,15.75 -8.7,0 -15.75,-7.05 -15.75,-15.75 0,-8.7 7.05,-15.75 15.75,-15.75 8.7,0 15.75,7.05 15.75,15.75"
         style="fill:#ff804f;fill-opacity:1;fill-rule:nonzero;stroke:none"
         id="path436" />
      <path
         d="m 2321.75,1733 c 0,8.7 -7.05,15.75 -15.75,15.75 -8.7,0 -15.75,-7.05 -15.75,-15.75 0,-8.7 7.05,-15.75 15.75,-15.75 8.7,0 15.75,7.05 15.75,15.75"
         style="fill:#ff804f;fill-opacity:1;fill-rule:nonzero;stroke:none"
         id="path438" />
      <path
         d="m 2326.75,1736 c 0,8.7 -7.05,15.75 -15.75,15.75 -8.7,0 -15.75,-7.05 -15.75,-15.75 0,-8.7 7.05,-15.75 15.75,-15.75 8.7,0 15.75,7.05 15.75,15.75"
         style="fill:#ff804f;fill-opacity:1;fill-rule:nonzero;stroke:none"
         id="path440" />
      <path
         d="m 2332.25,1739 c 0,8.7 -7.05,15.75 -15.75,15.75 -8.7,0 -15.75,-7.05 -15.75,-15.75 0,-8.7 7.05,-15.75 15.75,-15.75 8.7,0 15.75,7.05 15.75,15.75"
         style="fill:#ff804f;fill-opacity:1;fill-rule:nonzero;stroke:none"
         id="path442" />
      <path
         d="m 2337.25,1742 c 0,8.7 -7.05,15.75 -15.75,15.75 -8.7,0 -15.75,-7.05 -15.75,-15.75 0,-8.7 7.05,-15.75 15.75,-15.75 8.7,0 15.75,7.05 15.75,15.75"
         style="fill:#ff804f;fill-opacity:1;fill-rule:nonzero;stroke:none"
         id="path444" />
      <path
         d="m 2342.25,1745 c 0,8.7 -7.05,15.75 -15.75,15.75 -8.7,0 -15.75,-7.05 -15.75,-15.75 0,-8.7 7.05,-15.75 15.75,-15.75 8.7,0 15.75,7.05 15.75,15.75"
         style="fill:#ff804f;fill-opacity:1;fill-rule:nonzero;stroke:none"
         id="path446" />
      <path
         d="m 2347.25,1748 c 0,8.7 -7.05,15.75 -15.75,15.75 -8.7,0 -15.75,-7.05 -15.75,-15.75 0,-8.7 7.05,-15.75 15.75,-15.75 8.7,0 15.75,7.05 15.75,15.75"
         style="fill:#ff804f;fill-opacity:1;fill-rule:nonzero;stroke:none"
         id="path448" />
      <path
         d="m 2352.25,1751 c 0,8.7 -7.05,15.75 -15.75,15.75 -8.7,0 -15.75,-7.05 -15.75,-15.75 0,-8.7 7.05,-15.75 15.75,-15.75 8.7,0 15.75,7.05 15.75,15.75"
         style="fill:#ff804f;fill-opacity:1;fill-rule:nonzero;stroke:none"
         id="path450" />
      <path
         d="m 2357.75,1754 c 0,8.7 -7.05,15.75 -15.75,15.75 -8.7,0 -15.75,-7.05 -15.75,-15.75 0,-8.7 7.05,-15.75 15.75,-15.75 8.7,0 15.75,7.05 15.75,15.75"
         style="fill:#ff804f;fill-opacity:1;fill-rule:nonzero;stroke:none"
         id="path452" />
      <path
         d="m 2362.75,1757 c 0,8.7 -7.05,15.75 -15.75,15.75 -8.7,0 -15.75,-7.05 -15.75,-15.75 0,-8.7 7.05,-15.75 15.75,-15.75 8.7,0 15.75,7.05 15.75,15.75"
         style="fill:#ff804f;fill-opacity:1;fill-rule:nonzero;stroke:none"
         id="path454" />
      <path
         d="m 2367.25,1760 c 0,8.7 -7.05,15.75 -15.75,15.75 -8.7,0 -15.75,-7.05 -15.75,-15.75 0,-8.7 7.05,-15.75 15.75,-15.75 8.7,0 15.75,7.05 15.75,15.75"
         style="fill:#ff804f;fill-opacity:1;fill-rule:nonzero;stroke:none"
         id="path456" />
      <path
         d="m 2372.25,1763 c 0,8.7 -7.05,15.75 -15.75,15.75 -8.7,0 -15.75,-7.05 -15.75,-15.75 0,-8.7 7.05,-15.75 15.75,-15.75 8.7,0 15.75,7.05 15.75,15.75"
         style="fill:#ff804f;fill-opacity:1;fill-rule:nonzero;stroke:none"
         id="path458" />
      <path
         d="m 2377.25,1765.5 c 0,8.7 -7.05,15.75 -15.75,15.75 -8.7,0 -15.75,-7.05 -15.75,-15.75 0,-8.7 7.05,-15.75 15.75,-15.75 8.7,0 15.75,7.05 15.75,15.75"
         style="fill:#ff804f;fill-opacity:1;fill-rule:nonzero;stroke:none"
         id="path460" />
      <path
         d="m 2382.25,1768.5 c 0,8.7 -7.05,15.75 -15.75,15.75 -8.7,0 -15.75,-7.05 -15.75,-15.75 0,-8.7 7.05,-15.75 15.75,-15.75 8.7,0 15.75,7.05 15.75,15.75"
         style="fill:#ff804f;fill-opacity:1;fill-rule:nonzero;stroke:none"
         id="path462" />
      <path
         d="m 2387.25,1771.5 c 0,8.7 -7.05,15.75 -15.75,15.75 -8.7,0 -15.75,-7.05 -15.75,-15.75 0,-8.7 7.05,-15.75 15.75,-15.75 8.7,0 15.75,7.05 15.75,15.75"
         style="fill:#ff804f;fill-opacity:1;fill-rule:nonzero;stroke:none"
         id="path464" />
      <path
         d="m 2391.75,1774.5 c 0,8.7 -7.05,15.75 -15.75,15.75 -8.7,0 -15.75,-7.05 -15.75,-15.75 0,-8.7 7.05,-15.75 15.75,-15.75 8.7,0 15.75,7.05 15.75,15.75"
         style="fill:#ff804f;fill-opacity:1;fill-rule:nonzero;stroke:none"
         id="path466" />
      <path
         d="m 2396.75,1777 c 0,8.7 -7.05,15.75 -15.75,15.75 -8.7,0 -15.75,-7.05 -15.75,-15.75 0,-8.7 7.05,-15.75 15.75,-15.75 8.7,0 15.75,7.05 15.75,15.75"
         style="fill:#ff804f;fill-opacity:1;fill-rule:nonzero;stroke:none"
         id="path468" />
      <path
         d="m 2401.25,1780 c 0,8.7 -7.05,15.75 -15.75,15.75 -8.7,0 -15.75,-7.05 -15.75,-15.75 0,-8.7 7.05,-15.75 15.75,-15.75 8.7,0 15.75,7.05 15.75,15.75"
         style="fill:#ff804f;fill-opacity:1;fill-rule:nonzero;stroke:none"
         id="path470" />
      <path
         d="m 2406.25,1783 c 0,8.7 -7.05,15.75 -15.75,15.75 -8.7,0 -15.75,-7.05 -15.75,-15.75 0,-8.7 7.05,-15.75 15.75,-15.75 8.7,0 15.75,7.05 15.75,15.75"
         style="fill:#ff804f;fill-opacity:1;fill-rule:nonzero;stroke:none"
         id="path472" />
      <path
         d="m 2410.75,1785.5 c 0,8.7 -7.05,15.75 -15.75,15.75 -8.7,0 -15.75,-7.05 -15.75,-15.75 0,-8.7 7.05,-15.75 15.75,-15.75 8.7,0 15.75,7.05 15.75,15.75"
         style="fill:#ff804f;fill-opacity:1;fill-rule:nonzero;stroke:none"
         id="path474" />
      <path
         d="m 2415.25,1788 c 0,8.7 -7.05,15.75 -15.75,15.75 -8.7,0 -15.75,-7.05 -15.75,-15.75 0,-8.7 7.05,-15.75 15.75,-15.75 8.7,0 15.75,7.05 15.75,15.75"
         style="fill:#ff804f;fill-opacity:1;fill-rule:nonzero;stroke:none"
         id="path476" />
      <path
         d="m 2420.25,1791 c 0,8.7 -7.05,15.75 -15.75,15.75 -8.7,0 -15.75,-7.05 -15.75,-15.75 0,-8.7 7.05,-15.75 15.75,-15.75 8.7,0 15.75,7.05 15.75,15.75"
         style="fill:#ff804f;fill-opacity:1;fill-rule:nonzero;stroke:none"
         id="path478" />
      <path
         d="m 2424.75,1793.5 c 0,8.7 -7.05,15.75 -15.75,15.75 -8.7,0 -15.75,-7.05 -15.75,-15.75 0,-8.7 7.05,-15.75 15.75,-15.75 8.7,0 15.75,7.05 15.75,15.75"
         style="fill:#ff804f;fill-opacity:1;fill-rule:nonzero;stroke:none"
         id="path480" />
      <path
         d="m 2429.25,1796 c 0,8.7 -7.05,15.75 -15.75,15.75 -8.7,0 -15.75,-7.05 -15.75,-15.75 0,-8.7 7.05,-15.75 15.75,-15.75 8.7,0 15.75,7.05 15.75,15.75"
         style="fill:#ff804f;fill-opacity:1;fill-rule:nonzero;stroke:none"
         id="path482" />
      <path
         d="m 2433.75,1799 c 0,8.7 -7.05,15.75 -15.75,15.75 -8.7,0 -15.75,-7.05 -15.75,-15.75 0,-8.7 7.05,-15.75 15.75,-15.75 8.7,0 15.75,7.05 15.75,15.75"
         style="fill:#ff804f;fill-opacity:1;fill-rule:nonzero;stroke:none"
         id="path484" />
      <path
         d="m 2438.25,1801.5 c 0,8.7 -7.05,15.75 -15.75,15.75 -8.7,0 -15.75,-7.05 -15.75,-15.75 0,-8.7 7.05,-15.75 15.75,-15.75 8.7,0 15.75,7.05 15.75,15.75"
         style="fill:#ff804f;fill-opacity:1;fill-rule:nonzero;stroke:none"
         id="path486" />
      <path
         d="m 2442.75,1804 c 0,8.7 -7.05,15.75 -15.75,15.75 -8.7,0 -15.75,-7.05 -15.75,-15.75 0,-8.7 7.05,-15.75 15.75,-15.75 8.7,0 15.75,7.05 15.75,15.75"
         style="fill:#ff804f;fill-opacity:1;fill-rule:nonzero;stroke:none"
         id="path488" />
      <path
         d="m 2447.25,1806.5 c 0,8.7 -7.05,15.75 -15.75,15.75 -8.7,0 -15.75,-7.05 -15.75,-15.75 0,-8.7 7.05,-15.75 15.75,-15.75 8.7,0 15.75,7.05 15.75,15.75"
         style="fill:#ff804f;fill-opacity:1;fill-rule:nonzero;stroke:none"
         id="path490" />
      <path
         d="m 2451.75,1809 c 0,8.7 -7.05,15.75 -15.75,15.75 -8.7,0 -15.75,-7.05 -15.75,-15.75 0,-8.7 7.05,-15.75 15.75,-15.75 8.7,0 15.75,7.05 15.75,15.75"
         style="fill:#ff804f;fill-opacity:1;fill-rule:nonzero;stroke:none"
         id="path492" />
      <path
         d="m 2456.25,1811.5 c 0,8.7 -7.05,15.75 -15.75,15.75 -8.7,0 -15.75,-7.05 -15.75,-15.75 0,-8.7 7.05,-15.75 15.75,-15.75 8.7,0 15.75,7.05 15.75,15.75"
         style="fill:#ff804f;fill-opacity:1;fill-rule:nonzero;stroke:none"
         id="path494" />
      <path
         d="m 2460.25,1814 c 0,8.7 -7.05,15.75 -15.75,15.75 -8.7,0 -15.75,-7.05 -15.75,-15.75 0,-8.7 7.05,-15.75 15.75,-15.75 8.7,0 15.75,7.05 15.75,15.75"
         style="fill:#ff804f;fill-opacity:1;fill-rule:nonzero;stroke:none"
         id="path496" />
      <path
         d="m 2464.75,1816.5 c 0,8.7 -7.05,15.75 -15.75,15.75 -8.7,0 -15.75,-7.05 -15.75,-15.75 0,-8.7 7.05,-15.75 15.75,-15.75 8.7,0 15.75,7.05 15.75,15.75"
         style="fill:#ff804f;fill-opacity:1;fill-rule:nonzero;stroke:none"
         id="path498" />
      <path
         d="m 2469.25,1819 c 0,8.7 -7.05,15.75 -15.75,15.75 -8.7,0 -15.75,-7.05 -15.75,-15.75 0,-8.7 7.05,-15.75 15.75,-15.75 8.7,0 15.75,7.05 15.75,15.75"
         style="fill:#ff804f;fill-opacity:1;fill-rule:nonzero;stroke:none"
         id="path500" />
      <path
         d="m 2473.25,1821.5 c 0,8.7 -7.05,15.75 -15.75,15.75 -8.7,0 -15.75,-7.05 -15.75,-15.75 0,-8.7 7.05,-15.75 15.75,-15.75 8.7,0 15.75,7.05 15.75,15.75"
         style="fill:#ff804f;fill-opacity:1;fill-rule:nonzero;stroke:none"
         id="path502" />
      <path
         d="m 2477.75,1824 c 0,8.7 -7.05,15.75 -15.75,15.75 -8.7,0 -15.75,-7.05 -15.75,-15.75 0,-8.7 7.05,-15.75 15.75,-15.75 8.7,0 15.75,7.05 15.75,15.75"
         style="fill:#ff804f;fill-opacity:1;fill-rule:nonzero;stroke:none"
         id="path504" />
      <path
         d="m 2482.25,1826 c 0,8.7 -7.05,15.75 -15.75,15.75 -8.7,0 -15.75,-7.05 -15.75,-15.75 0,-8.7 7.05,-15.75 15.75,-15.75 8.7,0 15.75,7.05 15.75,15.75"
         style="fill:#ff804f;fill-opacity:1;fill-rule:nonzero;stroke:none"
         id="path506" />
      <path
         d="m 2486.25,1828.5 c 0,8.7 -7.05,15.75 -15.75,15.75 -8.7,0 -15.75,-7.05 -15.75,-15.75 0,-8.7 7.05,-15.75 15.75,-15.75 8.7,0 15.75,7.05 15.75,15.75"
         style="fill:#ff804f;fill-opacity:1;fill-rule:nonzero;stroke:none"
         id="path508" />
      <path
         d="m 2490.25,1831 c 0,8.7 -7.05,15.75 -15.75,15.75 -8.7,0 -15.75,-7.05 -15.75,-15.75 0,-8.7 7.05,-15.75 15.75,-15.75 8.7,0 15.75,7.05 15.75,15.75"
         style="fill:#ff804f;fill-opacity:1;fill-rule:nonzero;stroke:none"
         id="path510" />
      <path
         d="m 2494.75,1833.5 c 0,8.7 -7.05,15.75 -15.75,15.75 -8.7,0 -15.75,-7.05 -15.75,-15.75 0,-8.7 7.05,-15.75 15.75,-15.75 8.7,0 15.75,7.05 15.75,15.75"
         style="fill:#ff804f;fill-opacity:1;fill-rule:nonzero;stroke:none"
         id="path512" />
      <path
         d="m 2498.75,1835.5 c 0,8.7 -7.05,15.75 -15.75,15.75 -8.7,0 -15.75,-7.05 -15.75,-15.75 0,-8.7 7.05,-15.75 15.75,-15.75 8.7,0 15.75,7.05 15.75,15.75"
         style="fill:#ff804f;fill-opacity:1;fill-rule:nonzero;stroke:none"
         id="path514" />
      <path
         d="m 2502.75,1838 c 0,8.7 -7.05,15.75 -15.75,15.75 -8.7,0 -15.75,-7.05 -15.75,-15.75 0,-8.7 7.05,-15.75 15.75,-15.75 8.7,0 15.75,7.05 15.75,15.75"
         style="fill:#ff804f;fill-opacity:1;fill-rule:nonzero;stroke:none"
         id="path516" />
      <path
         d="m 2507.25,1840 c 0,8.7 -7.05,15.75 -15.75,15.75 -8.7,0 -15.75,-7.05 -15.75,-15.75 0,-8.7 7.05,-15.75 15.75,-15.75 8.7,0 15.75,7.05 15.75,15.75"
         style="fill:#ff804f;fill-opacity:1;fill-rule:nonzero;stroke:none"
         id="path518" />
      <path
         d="m 2511.25,1842.5 c 0,8.7 -7.05,15.75 -15.75,15.75 -8.7,0 -15.75,-7.05 -15.75,-15.75 0,-8.7 7.05,-15.75 15.75,-15.75 8.7,0 15.75,7.05 15.75,15.75"
         style="fill:#ff804f;fill-opacity:1;fill-rule:nonzero;stroke:none"
         id="path520" />
      <path
         d="m 2515.25,1844.5 c 0,8.7 -7.05,15.75 -15.75,15.75 -8.7,0 -15.75,-7.05 -15.75,-15.75 0,-8.7 7.05,-15.75 15.75,-15.75 8.7,0 15.75,7.05 15.75,15.75"
         style="fill:#ff804f;fill-opacity:1;fill-rule:nonzero;stroke:none"
         id="path522" />
      <path
         d="m 2519.25,1847 c 0,8.7 -7.05,15.75 -15.75,15.75 -8.7,0 -15.75,-7.05 -15.75,-15.75 0,-8.7 7.05,-15.75 15.75,-15.75 8.7,0 15.75,7.05 15.75,15.75"
         style="fill:#ff804f;fill-opacity:1;fill-rule:nonzero;stroke:none"
         id="path524" />
      <path
         d="m 2523.25,1849 c 0,8.7 -7.05,15.75 -15.75,15.75 -8.7,0 -15.75,-7.05 -15.75,-15.75 0,-8.7 7.05,-15.75 15.75,-15.75 8.7,0 15.75,7.05 15.75,15.75"
         style="fill:#ff804f;fill-opacity:1;fill-rule:nonzero;stroke:none"
         id="path526" />
      <path
         d="m 2527.25,1851 c 0,8.7 -7.05,15.75 -15.75,15.75 -8.7,0 -15.75,-7.05 -15.75,-15.75 0,-8.7 7.05,-15.75 15.75,-15.75 8.7,0 15.75,7.05 15.75,15.75"
         style="fill:#ff804f;fill-opacity:1;fill-rule:nonzero;stroke:none"
         id="path528" />
      <path
         d="m 2531.25,1853.5 c 0,8.7 -7.05,15.75 -15.75,15.75 -8.7,0 -15.75,-7.05 -15.75,-15.75 0,-8.7 7.05,-15.75 15.75,-15.75 8.7,0 15.75,7.05 15.75,15.75"
         style="fill:#ff804f;fill-opacity:1;fill-rule:nonzero;stroke:none"
         id="path530" />
      <path
         d="m 2535.25,1855.5 c 0,8.7 -7.05,15.75 -15.75,15.75 -8.7,0 -15.75,-7.05 -15.75,-15.75 0,-8.7 7.05,-15.75 15.75,-15.75 8.7,0 15.75,7.05 15.75,15.75"
         style="fill:#ff804f;fill-opacity:1;fill-rule:nonzero;stroke:none"
         id="path532" />
      <path
         d="m 2539.25,1857.5 c 0,8.7 -7.05,15.75 -15.75,15.75 -8.7,0 -15.75,-7.05 -15.75,-15.75 0,-8.7 7.05,-15.75 15.75,-15.75 8.7,0 15.75,7.05 15.75,15.75"
         style="fill:#ff804f;fill-opacity:1;fill-rule:nonzero;stroke:none"
         id="path534" />
      <path
         d="m 2543.25,1859.5 c 0,8.7 -7.05,15.75 -15.75,15.75 -8.7,0 -15.75,-7.05 -15.75,-15.75 0,-8.7 7.05,-15.75 15.75,-15.75 8.7,0 15.75,7.05 15.75,15.75"
         style="fill:#ff804f;fill-opacity:1;fill-rule:nonzero;stroke:none"
         id="path536" />
      <path
         d="m 2547.25,1861.5 c 0,8.7 -7.05,15.75 -15.75,15.75 -8.7,0 -15.75,-7.05 -15.75,-15.75 0,-8.7 7.05,-15.75 15.75,-15.75 8.7,0 15.75,7.05 15.75,15.75"
         style="fill:#ff804f;fill-opacity:1;fill-rule:nonzero;stroke:none"
         id="path538" />
      <path
         d="m 2551.25,1864 c 0,8.7 -7.05,15.75 -15.75,15.75 -8.7,0 -15.75,-7.05 -15.75,-15.75 0,-8.7 7.05,-15.75 15.75,-15.75 8.7,0 15.75,7.05 15.75,15.75"
         style="fill:#ff804f;fill-opacity:1;fill-rule:nonzero;stroke:none"
         id="path540" />
      <path
         d="m 2554.75,1866 c 0,8.7 -7.05,15.75 -15.75,15.75 -8.7,0 -15.75,-7.05 -15.75,-15.75 0,-8.7 7.05,-15.75 15.75,-15.75 8.7,0 15.75,7.05 15.75,15.75"
         style="fill:#ff804f;fill-opacity:1;fill-rule:nonzero;stroke:none"
         id="path542" />
      <path
         d="m 2558.75,1868 c 0,8.7 -7.05,15.75 -15.75,15.75 -8.7,0 -15.75,-7.05 -15.75,-15.75 0,-8.7 7.05,-15.75 15.75,-15.75 8.7,0 15.75,7.05 15.75,15.75"
         style="fill:#ff804f;fill-opacity:1;fill-rule:nonzero;stroke:none"
         id="path544" />
      <path
         d="m 2562.75,1870 c 0,8.7 -7.05,15.75 -15.75,15.75 -8.7,0 -15.75,-7.05 -15.75,-15.75 0,-8.7 7.05,-15.75 15.75,-15.75 8.7,0 15.75,7.05 15.75,15.75"
         style="fill:#ff804f;fill-opacity:1;fill-rule:nonzero;stroke:none"
         id="path546" />
      <path
         d="m 2566.25,1872 c 0,8.7 -7.05,15.75 -15.75,15.75 -8.7,0 -15.75,-7.05 -15.75,-15.75 0,-8.7 7.05,-15.75 15.75,-15.75 8.7,0 15.75,7.05 15.75,15.75"
         style="fill:#ff804f;fill-opacity:1;fill-rule:nonzero;stroke:none"
         id="path548" />
      <path
         d="m 2570.25,1874 c 0,8.7 -7.05,15.75 -15.75,15.75 -8.7,0 -15.75,-7.05 -15.75,-15.75 0,-8.7 7.05,-15.75 15.75,-15.75 8.7,0 15.75,7.05 15.75,15.75"
         style="fill:#ff804f;fill-opacity:1;fill-rule:nonzero;stroke:none"
         id="path550" />
      <path
         d="m 2573.75,1876 c 0,8.7 -7.05,15.75 -15.75,15.75 -8.7,0 -15.75,-7.05 -15.75,-15.75 0,-8.7 7.05,-15.75 15.75,-15.75 8.7,0 15.75,7.05 15.75,15.75"
         style="fill:#ff804f;fill-opacity:1;fill-rule:nonzero;stroke:none"
         id="path552" />
      <path
         d="m 2577.75,1878 c 0,8.7 -7.05,15.75 -15.75,15.75 -8.7,0 -15.75,-7.05 -15.75,-15.75 0,-8.7 7.05,-15.75 15.75,-15.75 8.7,0 15.75,7.05 15.75,15.75"
         style="fill:#ff804f;fill-opacity:1;fill-rule:nonzero;stroke:none"
         id="path554" />
      <path
         d="m 2581.25,1880 c 0,8.7 -7.05,15.75 -15.75,15.75 -8.7,0 -15.75,-7.05 -15.75,-15.75 0,-8.7 7.05,-15.75 15.75,-15.75 8.7,0 15.75,7.05 15.75,15.75"
         style="fill:#ff804f;fill-opacity:1;fill-rule:nonzero;stroke:none"
         id="path556" />
      <path
         d="m 2585.25,1882 c 0,8.7 -7.05,15.75 -15.75,15.75 -8.7,0 -15.75,-7.05 -15.75,-15.75 0,-8.7 7.05,-15.75 15.75,-15.75 8.7,0 15.75,7.05 15.75,15.75"
         style="fill:#ff804f;fill-opacity:1;fill-rule:nonzero;stroke:none"
         id="path558" />
      <path
         d="m 2539.25,517 c 0,8.695 -7.05,15.75 -15.75,15.75 -8.7,0 -15.75,-7.055 -15.75,-15.75 0,-8.695 7.05,-15.75 15.75,-15.75 8.7,0 15.75,7.055 15.75,15.75"
         style="fill:#ff804f;fill-opacity:1;fill-rule:nonzero;stroke:none"
         id="path560" />
      <path
         d="M 301,1913.5 V 294 h 2406.5 v 1619.5 z"
         style="fill:none;stroke:#000000;stroke-width:10;stroke-linecap:butt;stroke-linejoin:miter;stroke-miterlimit:3.8;stroke-dasharray:none;stroke-opacity:1"
         id="path562" />
      <g
         id="g564"
         transform="scale(10)">
        <text
           xml:space="preserve"
           transform="matrix(0,1,1,0,8.28516,97.3219)"
           style="font-variant:normal;font-weight:normal;font-size:7px;font-family:Helvetica;-inkscape-font-specification:Helvetica;writing-mode:lr-tb;fill:#000000;fill-opacity:1;fill-rule:nonzero;stroke:none"
           id="text568"><tspan
             x="0 1.554 5.4460001"
             y="0"
             sodipodi:role="line"
             id="tspan566">log</tspan></text>
        <text
           xml:space="preserve"
           transform="matrix(0,1,1,0,10.38516,106.65979)"
           style="font-variant:normal;font-weight:normal;font-size:5.6px;font-family:Helvetica;-inkscape-font-specification:Helvetica;writing-mode:lr-tb;fill:#000000;fill-opacity:1;fill-rule:nonzero;stroke:none"
           id="text572"><tspan
             x="0 3.1136"
             y="0"
             sodipodi:role="line"
             id="tspan570">10</tspan></text>
        <text
           xml:space="preserve"
           transform="matrix(0,1,1,0,8.28516,112.88713)"
           style="font-variant:normal;font-weight:normal;font-size:7px;font-family:Helvetica;-inkscape-font-specification:Helvetica;writing-mode:lr-tb;fill:#000000;fill-opacity:1;fill-rule:nonzero;stroke:none"
           id="text576"><tspan
             x="0 2.3310001 8.1619997"
             y="0"
             sodipodi:role="line"
             id="tspan574">(M)</tspan></text>
        <text
           xml:space="preserve"
           transform="matrix(1,0,0,-1,139.122,10.2648)"
           style="font-variant:normal;font-weight:normal;font-size:7px;font-family:Helvetica;-inkscape-font-specification:Helvetica;writing-mode:lr-tb;fill:#000000;fill-opacity:1;fill-rule:nonzero;stroke:none"
           id="text580"><tspan
             x="0 1.554 5.4460001"
             y="0"
             sodipodi:role="line"
             id="tspan578">log</tspan></text>
        <text
           xml:space="preserve"
           transform="matrix(1,0,0,-1,148.45989,8.1648)"
           style="font-variant:normal;font-weight:normal;font-size:5.6px;font-family:Helvetica;-inkscape-font-specification:Helvetica;writing-mode:lr-tb;fill:#000000;fill-opacity:1;fill-rule:nonzero;stroke:none"
           id="text584"><tspan
             x="0 3.1136"
             y="0"
             sodipodi:role="line"
             id="tspan582">10</tspan></text>
        <text
           xml:space="preserve"
           transform="matrix(1,0,0,-1,154.68723,10.2648)"
           style="font-variant:normal;font-weight:normal;font-size:7px;font-family:Helvetica;-inkscape-font-specification:Helvetica;writing-mode:lr-tb;fill:#000000;fill-opacity:1;fill-rule:nonzero;stroke:none"
           id="text588"><tspan
             x="0 2.3310001 4.6620002"
             y="0"
             sodipodi:role="line"
             id="tspan586">(r)</tspan></text>
      </g>
    </g>
    <path
       d="m 92.084662,122.07907 c 0.052,0.45333 0.40133,0.90667 1.353327,1.75066 0.652,0.57334 0.912,0.864 1.07334,1.20267 0.10933,0.21867 0.12533,0.292 0.10933,0.50533 -0.036,0.48001 -0.39067,0.792 -0.90133,0.792 -0.51467,-0.005 -0.847997,-0.29733 -0.931997,-0.81733 l -0.0307,-0.17733 -0.16667,0.0213 c -0.0947,0.009 -0.224,0.0307 -0.29733,0.0413 l -0.12533,0.02 0.0373,0.20933 c 0.14,0.776 0.681327,1.19734 1.535997,1.19734 0.20267,0 0.40667,-0.0307 0.588,-0.0827 0.22933,-0.0787 0.31333,-0.13067 0.52667,-0.34934 0.30666,-0.31733 0.40133,-0.568 0.36933,-1.036 -0.036,-0.568 -0.328,-0.99066 -1.22933,-1.78133 -0.30667,-0.272 -0.68667,-0.62533 -0.84267,-0.78667 l -0.281327,-0.29733 2.363997,-0.0213 v -0.57733 h -3.171997 z m -12.442667,4.808 v 3.29733 h 0.874667 l 1.677333,-2.57867 1.677334,-2.57333 0.01067,2.57333 0.0093,2.57867 h 0.813333 v -6.59467 l -0.437333,0.005 h -0.433334 l -1.681333,2.57867 -1.682667,2.58267 -0.02133,-5.16667 h -0.806667 z m 6.519997,0 v 3.29733 h 0.84934 v -2.69333 h 3.36533 v 2.69333 h 0.848 l -0.02,-6.57333 -0.41733,-0.0107 -0.41067,-0.0107 v 3.10934 h -3.36533 v -3.10934 h -0.84934 z m -5.38533,4.344 c 0,0.072 0.245333,2.588 0.542667,5.588 0.296,2.99467 0.536,5.45333 0.530666,5.45867 -0.03067,0.0467 -12.494666,7.36933 -12.541333,7.36933 -0.032,0 -1.037333,-0.57734 -2.223999,-1.28134 -5.656,-3.34266 -7.057334,-4.16666 -7.084,-4.16666 -0.01467,0 -0.09333,0.12 -0.176,0.26666 l -0.146667,0.26534 4.636,2.744 c 4.4,2.60933 4.629333,2.75066 4.629333,2.86 0,0.0627 -0.233333,2.39066 -0.525333,5.17733 -0.286667,2.78133 -0.526667,5.088 -0.526667,5.124 0,0.0573 0.161334,0.0627 1.417333,0.0627 h 1.421334 v -0.0933 c -0.0053,-0.052 -0.249334,-2.40667 -0.546667,-5.23467 -0.301333,-2.82266 -0.541333,-5.14 -0.536,-5.14533 0.0053,0 2.828,-1.66667 6.276,-3.69867 l 6.270666,-3.69733 5.707997,3.36933 5.713337,3.37067 v 11.088 h 0.64666 l 0.009,-5.344 0.0107,-5.348 0.39067,0.228 0.396,0.22933 0.39067,-0.22933 c 0.21333,-0.12933 0.396,-0.23333 0.40666,-0.23333 0.0107,0 0.016,2.40533 0.016,5.348 v 5.34932 h 0.60964 l 0.009,-5.54133 0.0107,-5.54667 4.098661,-2.41733 4.1,-2.42133 -0.10933,-0.19867 c -0.0573,-0.10933 -0.136,-0.23333 -0.172,-0.28133 -0.0573,-0.0827 -0.17733,-0.0147 -4.698671,2.66666 -2.552,1.51067 -4.64533,2.75067 -4.66133,2.75067 -0.016,0 -12.519997,-7.36933 -12.535997,-7.39066 -0.0053,-0.005 0.234667,-2.5 0.530667,-5.54134 0.302666,-3.04667 0.541333,-5.55733 0.546666,-5.58933 0,-0.0413 -0.312,-0.052 -1.416,-0.052 h -1.422366 z m -30.639999,5.85866 c -0.448,0.14667 -0.828,0.52667 -0.958667,0.95867 -0.04133,0.15067 -0.07733,0.28667 -0.07733,0.308 0,0.0413 0.088,0.0667 0.364,0.104 l 0.229333,0.0253 0.02533,-0.14 c 0.048,-0.22933 0.24,-0.54267 0.417333,-0.672 0.24,-0.16666 0.604,-0.19867 0.896,-0.068 0.525333,0.22933 0.76,0.88533 0.5,1.40134 -0.198667,0.39599 -0.688,0.59866 -1.130667,0.46799 l -0.134666,-0.0413 0.02533,0.23466 c 0.016,0.13067 0.036,0.24933 0.04667,0.26534 0.0053,0.0107 0.109333,0.032 0.229333,0.0467 0.276,0.0267 0.598667,0.19333 0.718667,0.36533 0.09867,0.14 0.150666,0.484 0.104,0.67733 -0.036,0.13467 -0.244,0.38534 -0.396,0.46267 -0.150667,0.0787 -0.546667,0.084 -0.728,0.005 -0.198667,-0.0827 -0.381334,-0.31733 -0.464,-0.588 -0.068,-0.20933 -0.084,-0.22933 -0.166667,-0.20933 -0.052,0.0107 -0.177333,0.0373 -0.276,0.048 -0.213333,0.0307 -0.224,0.0667 -0.09867,0.40533 0.109334,0.30267 0.390667,0.61467 0.676,0.76133 0.214667,0.104 0.272,0.11467 0.677334,0.11467 0.406666,0 0.469333,-0.0107 0.677333,-0.11467 0.828,-0.41733 0.974667,-1.50533 0.270667,-2 l -0.192,-0.136 0.166666,-0.0467 c 0.09333,-0.032 0.244,-0.136 0.374667,-0.26533 0.172,-0.172 0.229333,-0.26667 0.286667,-0.464 0.202666,-0.72933 -0.141334,-1.48933 -0.828,-1.81733 -0.218667,-0.104 -0.318667,-0.12534 -0.646667,-0.14134 -0.276,-0.005 -0.448,0.005 -0.588,0.052 z m 4.896,1.68267 c -0.770667,0.14533 -1.38,0.57333 -1.765333,1.24 -0.209334,0.35333 -0.338667,0.72933 -0.442667,1.24933 -0.07867,0.36534 -0.084,0.52134 -0.068,1.068 0.01467,0.54134 0.036,0.708 0.125333,1.016 0.317334,1.09334 0.994667,1.78134 2.046667,2.08267 0.374667,0.104 1.301333,0.104 1.64,0 0.557333,-0.17733 1,-0.48933 1.302667,-0.92133 0.208,-0.29734 0.448,-0.83867 0.396,-0.89067 -0.02133,-0.016 -0.172,-0.0627 -0.338667,-0.0987 -0.166667,-0.0373 -0.344,-0.0787 -0.396,-0.0947 -0.06267,-0.0147 -0.08933,-0.005 -0.08933,0.0373 0,0.036 -0.06667,0.19733 -0.145334,0.35867 -0.317333,0.65066 -0.817333,0.95866 -1.557333,0.95866 -0.614667,0 -1.136,-0.21333 -1.5,-0.604 -0.478667,-0.52133 -0.724,-1.52666 -0.604,-2.52133 0.134667,-1.192 0.609333,-1.85333 1.510667,-2.12 0.333333,-0.0987 0.926666,-0.0667 1.254666,0.0627 0.48,0.188 0.885334,0.64667 1.046667,1.17734 0.052,0.16133 0.1,0.30666 0.114667,0.32266 0.016,0.0267 0.808,-0.156 0.844,-0.192 0.02667,-0.032 -0.249334,-0.71466 -0.38,-0.94266 -0.344,-0.584 -0.969334,-1.032 -1.62,-1.172 -0.312,-0.068 -1.057334,-0.0787 -1.374667,-0.016 z m 52.207997,0.0107 c -1.01067,0.23467 -1.792,0.948 -2.15067,1.97334 -0.292,0.808 -0.28666,1.928 0.0107,2.78666 0.31733,0.912 1.08267,1.636 1.984,1.88 0.36933,0.0987 1.068,0.12534 1.464,0.0467 1.02,-0.19733 1.80667,-0.848 2.18133,-1.80133 0.24,-0.604 0.33334,-1.312 0.26534,-1.964 -0.0613,-0.58267 -0.13467,-0.85867 -0.37467,-1.35867 -0.172,-0.36 -0.25467,-0.48533 -0.516,-0.74533 -0.33733,-0.34934 -0.73333,-0.588 -1.23867,-0.74934 -0.36533,-0.12 -1.24533,-0.15733 -1.62533,-0.068 z m 1.26,0.74934 c 0.76667,0.204 1.324,0.80266 1.54267,1.66133 0.088,0.344 0.11866,1.13067 0.0613,1.51067 -0.208,1.34933 -1.07733,2.136 -2.29067,2.06266 -0.45333,-0.0253 -0.808,-0.156 -1.16666,-0.416 -0.636,-0.464 -0.89067,-1.12 -0.89067,-2.26666 0,-0.968 0.18133,-1.5 0.692,-2.00534 0.43733,-0.42666 0.85467,-0.59866 1.46933,-0.604 0.18667,0 0.45334,0.0267 0.58267,0.0573 z m -65.19733,2.57332 v 3.29734 h 0.854667 v -2.69867 h 3.317333 v 2.69867 h 0.853333 v -6.6 l -0.416,0.016 -0.417333,0.0107 -0.0093,1.54133 -0.01067,1.54667 h -3.317333 v -3.10934 H 43.30336 Z m 68.864,0 v 3.29734 h 0.84933 v -2.69867 h 3.32267 v 2.69867 h 0.84933 v -6.59467 h -0.84933 v 3.10933 h -3.32267 l -0.0107,-1.54133 -0.0107,-1.54666 -0.41067,-0.0107 -0.41733,-0.016 z m -43.473334,19.48931 c -1.390667,0.256 -2.36,1.46933 -2.448,3.06266 -0.06267,1.084 0.24,2.07867 0.838667,2.72934 0.432,0.47333 0.978666,0.78666 1.557333,0.896 0.396,0.0733 1.098666,0.0573 1.462666,-0.0373 0.553334,-0.14 0.958667,-0.38 1.354667,-0.78533 0.286667,-0.292 0.38,-0.42267 0.536,-0.75067 0.553333,-1.14534 0.510667,-2.68267 -0.09867,-3.74933 -0.609333,-1.05734 -1.901333,-1.60401 -3.202666,-1.36534 z m 1.114666,0.74 c 0.364,0.0773 0.724,0.28133 1,0.56267 0.270667,0.27066 0.448,0.57199 0.572,0.99466 0.08933,0.28133 0.1,0.39067 0.09467,1.05733 0,0.69734 -0.01067,0.77067 -0.109333,1.08267 -0.130667,0.40133 -0.349334,0.756 -0.625334,1.016 -0.385333,0.36933 -0.833333,0.536 -1.432,0.536 -0.594666,0 -0.994666,-0.15067 -1.442666,-0.536 -0.489333,-0.416 -0.698667,-0.984 -0.729333,-1.97867 -0.02133,-0.5 -0.01067,-0.69333 0.04667,-0.95333 0.104,-0.48933 0.308,-0.89067 0.609334,-1.19867 0.521333,-0.536 1.250666,-0.74933 2.015999,-0.58266 z m 24.634667,-0.75067 c -0.97867,0.19867 -1.729337,0.808 -2.139997,1.73467 -0.256,0.584 -0.28667,0.756 -0.28667,1.63066 0.005,0.73467 0.0107,0.812 0.11467,1.16134 0.344,1.14 1.062657,1.864 2.130657,2.14 0.29067,0.0733 0.42134,0.084 0.91067,0.068 0.62533,-0.0253 0.83867,-0.0773 1.29733,-0.30667 0.74934,-0.38533 1.24,-1.00533 1.5,-1.90133 0.15067,-0.5 0.188,-1.42667 0.0827,-1.98934 -0.228,-1.25066 -1,-2.14133 -2.12933,-2.46933 -0.39067,-0.10933 -1.08934,-0.14533 -1.48,-0.068 z m 1.09466,0.756 c 0.42134,0.088 0.692,0.244 1.01467,0.572 0.44267,0.45867 0.64133,0.964 0.69333,1.772 0.0413,0.676 -0.0987,1.40533 -0.37466,1.89067 -0.25067,0.43733 -0.792,0.848 -1.27067,0.96266 -0.26667,0.0627 -0.876,0.052 -1.13067,-0.016 -0.33866,-0.0933 -0.64533,-0.27066 -0.91733,-0.53066 -0.48933,-0.464 -0.681327,-1.052 -0.681327,-2.08267 -0.005,-0.69333 0.0467,-0.97467 0.259997,-1.42267 0.15066,-0.31733 0.52133,-0.72933 0.812,-0.91066 0.43733,-0.26667 1.04266,-0.36 1.59466,-0.23467 z m -22.015993,2.60933 v 3.296 h 0.854666 v -2.73866 h 3.317334 v 2.73866 h 0.854666 v -6.59333 h -0.854666 v 3.10933 h -3.317334 v -3.10933 h -0.854666 z"
       style="fill:#000000;fill-opacity:1;fill-rule:nonzero;stroke:none"
       id="path1667" />
    <text
       xml:space="preserve"
       transform="scale(0.86483323,-1.1562923)"
       style="font-variant:normal;font-weight:bold;font-size:8.73058px;font-family:'Noto Sans';-inkscape-font-specification:NotoSans-Bold;writing-mode:lr-tb;fill:#000000;fill-opacity:1;fill-rule:nonzero;stroke:none;stroke-width:0.864833"
       id="text1385"
       x="76.757622"
       y="-94.953201"><tspan
         x="76.757622 81.376091 85.165161 90.324928 95.729149 101.46513 104.12796 109.86395"
         y="-94.953201"
         sodipodi:role="line"
         id="tspan1383"
         style="stroke-width:0.864833">Treonina</tspan></text>
  </g>
</svg>
